/* XPM */
static char * blue32_xpm[] = {
"32 32 821 2",
"  	c None",
". 	c #0E0679",
"+ 	c #24218D",
"@ 	c #211576",
"# 	c #1C0E6F",
"$ 	c #1B137C",
"% 	c #191484",
"& 	c #1E1682",
"* 	c #4A449A",
"= 	c #7E79B8",
"- 	c #ADACD8",
"; 	c #A78D94",
"> 	c #955535",
", 	c #9C7155",
"' 	c #917664",
") 	c #7B504F",
"! 	c #953F22",
"~ 	c #884432",
"{ 	c #572D51",
"] 	c #070075",
"^ 	c #4E489F",
"/ 	c #D2D0E8",
"( 	c #FAF9FE",
"_ 	c #FFFFFF",
": 	c #F3F1F1",
"< 	c #A66D48",
"[ 	c #E1BF8D",
"} 	c #F9DAA3",
"| 	c #E0CE9E",
"1 	c #CBC093",
"2 	c #8E4624",
"3 	c #AE5026",
"4 	c #C95927",
"5 	c #C14E1D",
"6 	c #723232",
"7 	c #1C1481",
"8 	c #817CBE",
"9 	c #E5E3F5",
"0 	c #F9F8FF",
"a 	c #EEEDFB",
"b 	c #EEEFFF",
"c 	c #BCA7A6",
"d 	c #CC9E70",
"e 	c #EDCF9F",
"f 	c #F5D3A0",
"g 	c #DABD90",
"h 	c #ACAC8D",
"i 	c #9D7658",
"j 	c #B0522D",
"k 	c #B1522D",
"l 	c #C34D20",
"m 	c #D6591B",
"n 	c #A84719",
"o 	c #3A1D4C",
"p 	c #120B78",
"q 	c #0F077D",
"r 	c #9A96CE",
"s 	c #F5F4FF",
"t 	c #E7E5F9",
"u 	c #E1DFF6",
"v 	c #E6E7FE",
"w 	c #D7CFDF",
"x 	c #B05732",
"y 	c #A3845F",
"z 	c #DEBF90",
"A 	c #A28D6C",
"B 	c #D3B487",
"C 	c #B4A17E",
"D 	c #9E8B6E",
"E 	c #A24927",
"F 	c #BB572D",
"G 	c #953B1E",
"H 	c #BA471E",
"I 	c #C5480D",
"J 	c #843533",
"K 	c #07057C",
"L 	c #150D79",
"M 	c #181082",
"N 	c #8A85C7",
"O 	c #E4E2FB",
"P 	c #D9D6F4",
"Q 	c #D8D5F3",
"R 	c #D8D6F5",
"S 	c #D7D8F6",
"T 	c #888682",
"U 	c #844623",
"V 	c #896F52",
"W 	c #B89E7B",
"X 	c #AA9877",
"Y 	c #BCA47B",
"Z 	c #BFAD87",
"` 	c #AFA082",
" .	c #974323",
"..	c #BB4D20",
"+.	c #523B2D",
"@.	c #794129",
"#.	c #C54812",
"$.	c #B5685A",
"%.	c #3E3DA2",
"&.	c #100879",
"*.	c #0C037B",
"=.	c #5049A8",
"-.	c #DBD9F8",
";.	c #CECBF2",
">.	c #CBC8F1",
",.	c #CFCBF8",
"'.	c #C3BFE4",
").	c #35685F",
"!.	c #314438",
"~.	c #A37148",
"{.	c #B3A37C",
"].	c #C7AB82",
"^.	c #969675",
"/.	c #C7C297",
"(.	c #A39A79",
"_.	c #A9542E",
":.	c #A4451E",
"<.	c #224745",
"[.	c #43685D",
"}.	c #833415",
"|.	c #C26F57",
"1.	c #BFCAFC",
"2.	c #3432A2",
"3.	c #0F0879",
"4.	c #150D7D",
"5.	c #150D87",
"6.	c #928DD2",
"7.	c #CAC6F2",
"8.	c #C0BDEE",
"9.	c #C0BCEF",
"0.	c #C1BDF2",
"a.	c #B9B9ED",
"b.	c #A9A6CF",
"c.	c #53412E",
"d.	c #6F432A",
"e.	c #AE4C23",
"f.	c #A16E47",
"g.	c #847554",
"h.	c #A3704A",
"i.	c #7B6145",
"j.	c #835B40",
"k.	c #6F3C22",
"l.	c #685941",
"m.	c #292B1C",
"n.	c #234138",
"o.	c #763B1E",
"p.	c #AB4018",
"q.	c #BE7D74",
"r.	c #826193",
"s.	c #0E0878",
"t.	c #0F0C7C",
"u.	c #18107B",
"v.	c #100782",
"w.	c #4C44AC",
"x.	c #BDB9EF",
"y.	c #B4AEEA",
"z.	c #B3AEEB",
"A.	c #B3B1F5",
"B.	c #A9AAF0",
"C.	c #AC6B5D",
"D.	c #A25738",
"E.	c #B24F27",
"F.	c #CB5B2C",
"G.	c #B5552D",
"H.	c #A75732",
"I.	c #B56136",
"J.	c #C4481D",
"K.	c #5B2B1B",
"L.	c #202F27",
"M.	c #335349",
"N.	c #306C6F",
"O.	c #5F7A64",
"P.	c #65795F",
"Q.	c #2F2C20",
"R.	c #433D2D",
"S.	c #743B23",
"T.	c #B4421A",
"U.	c #B14823",
"V.	c #432052",
"W.	c #160C8B",
"X.	c #7A72CB",
"Y.	c #B0ABED",
"Z.	c #A7A1ED",
"`.	c #A6A3F2",
" +	c #9D8DC2",
".+	c #A26764",
"++	c #C45727",
"@+	c #B64F1E",
"#+	c #9F4521",
"$+	c #CD5829",
"%+	c #B75426",
"&+	c #B75529",
"*+	c #B85126",
"=+	c #C75328",
"-+	c #AF3E18",
";+	c #4D5540",
">+	c #5D907D",
",+	c #244845",
"'+	c #526C58",
")+	c #57765F",
"!+	c #45523F",
"~+	c #4C6B56",
"{+	c #1B5357",
"]+	c #444F43",
"^+	c #B35A23",
"/+	c #90392C",
"(+	c #120D7D",
"_+	c #170F7D",
":+	c #180F8A",
"<+	c #22199A",
"[+	c #8A85DC",
"}+	c #9D97EB",
"|+	c #8A84C7",
"1+	c #5E6182",
"2+	c #5A3823",
"3+	c #CF5825",
"4+	c #D4622D",
"5+	c #A74D26",
"6+	c #534339",
"7+	c #6E3C29",
"8+	c #B6461E",
"9+	c #AE4620",
"0+	c #B84D23",
"a+	c #C54D22",
"b+	c #AA4B2B",
"c+	c #334D43",
"d+	c #335045",
"e+	c #5C6E53",
"f+	c #3A4431",
"g+	c #273F34",
"h+	c #578574",
"i+	c #557F6C",
"j+	c #2A2C1F",
"k+	c #3A493A",
"l+	c #2D472E",
"m+	c #553432",
"n+	c #1B0F82",
"o+	c #181083",
"p+	c #1A1192",
"q+	c #2A21A5",
"r+	c #8780E2",
"s+	c #857DCC",
"t+	c #726FA8",
"u+	c #645674",
"v+	c #35270B",
"w+	c #944828",
"x+	c #B65428",
"y+	c #A15933",
"z+	c #3C7F8F",
"A+	c #377785",
"B+	c #6F4C40",
"C+	c #964C31",
"D+	c #CB592A",
"E+	c #CA582B",
"F+	c #9E3C21",
"G+	c #5D5540",
"H+	c #32473D",
"I+	c #5C806B",
"J+	c #476552",
"K+	c #2C3426",
"L+	c #3A685D",
"M+	c #467F72",
"N+	c #4A6852",
"O+	c #2D4E42",
"P+	c #39553A",
"Q+	c #2C2C5C",
"R+	c #190F8B",
"S+	c #1A128B",
"T+	c #1D139A",
"U+	c #2D22AD",
"V+	c #7B73E4",
"W+	c #6F6AB8",
"X+	c #6D618A",
"Y+	c #9C5B59",
"Z+	c #35270E",
"`+	c #242719",
" @	c #84573C",
".@	c #95583C",
"+@	c #3D8396",
"@@	c #5091A0",
"#@	c #3A879B",
"$@	c #60534B",
"%@	c #BD5329",
"&@	c #9D3F20",
"*@	c #843925",
"=@	c #49574E",
"-@	c #38493A",
";@	c #4B6C5C",
">@	c #3C5A4D",
",@	c #364C39",
"'@	c #74A683",
")@	c #57785D",
"!@	c #305039",
"~@	c #3A7564",
"{@	c #5C5EA2",
"]@	c #2B1FAC",
"^@	c #1A1290",
"/@	c #191182",
"(@	c #170F81",
"_@	c #1D1392",
":@	c #1F15A2",
"<@	c #2C21B2",
"[@	c #6F67E4",
"}@	c #615FBC",
"|@	c #7B4B31",
"1@	c #E0682B",
"2@	c #452914",
"3@	c #7C795F",
"4@	c #E0CA9E",
"5@	c #987256",
"6@	c #407889",
"7@	c #3D8297",
"8@	c #428597",
"9@	c #547981",
"0@	c #A05435",
"a@	c #95472A",
"b@	c #797E73",
"c@	c #5D9398",
"d@	c #33504B",
"e@	c #3F5A49",
"f@	c #516848",
"g@	c #2D4B38",
"h@	c #43786C",
"i@	c #3D5B41",
"j@	c #3A4833",
"k@	c #5C639E",
"l@	c #6D62E4",
"m@	c #2B22AF",
"n@	c #1D1498",
"o@	c #1A1287",
"p@	c #1A1187",
"q@	c #20159A",
"r@	c #251AAB",
"s@	c #2B20B8",
"t@	c #5F56E4",
"u@	c #5A5099",
"v@	c #443219",
"w@	c #BE5C3B",
"x@	c #83553B",
"y@	c #8D8165",
"z@	c #DFBD91",
"A@	c #A78F6E",
"B@	c #4C808D",
"C@	c #5197A6",
"D@	c #468697",
"E@	c #368097",
"F@	c #528186",
"G@	c #8D876B",
"H@	c #9D875F",
"I@	c #998762",
"J@	c #9DA590",
"K@	c #3E5C4D",
"L@	c #36556B",
"M@	c #2D435C",
"N@	c #406D63",
"O@	c #496565",
"P@	c #5F56CA",
"Q@	c #6C5FEB",
"R@	c #5A50D6",
"S@	c #2A1FB3",
"T@	c #2318A1",
"U@	c #1D138F",
"V@	c #1B138D",
"W@	c #2218A1",
"X@	c #291EB4",
"Y@	c #2D22C0",
"Z@	c #4F44DB",
"`@	c #6157CC",
" #	c #2B2B29",
".#	c #584E98",
"+#	c #6E66A9",
"@#	c #887D5F",
"##	c #C0AA82",
"$#	c #8D7F65",
"%#	c #344950",
"&#	c #285460",
"*#	c #47737E",
"=#	c #949D88",
"-#	c #DCBA85",
";#	c #E0BD8A",
">#	c #AF9A76",
",#	c #958266",
"'#	c #E3C297",
")#	c #C4A56C",
"!#	c #9E919B",
"~#	c #8C7BC5",
"{#	c #675CBF",
"]#	c #574ED2",
"^#	c #665CF0",
"/#	c #6459E4",
"(#	c #4D43D3",
"_#	c #2C21B9",
":#	c #271CA9",
"<#	c #1F1696",
"[#	c #1C1494",
"}#	c #241BA8",
"|#	c #2D22BC",
"1#	c #3428C8",
"2#	c #4237D7",
"3#	c #655AF0",
"4#	c #4F487B",
"5#	c #3D394B",
"6#	c #232723",
"7#	c #3D4835",
"8#	c #5A6048",
"9#	c #303325",
"0#	c #16140B",
"a#	c #141209",
"b#	c #181509",
"c#	c #5E4D34",
"d#	c #C0A37A",
"e#	c #BB9B6A",
"f#	c #CEA76E",
"g#	c #CFAB75",
"h#	c #DBB884",
"i#	c #D2AE7C",
"j#	c #9B8054",
"k#	c #C0AD8A",
"l#	c #CFAC8E",
"m#	c #A088B2",
"n#	c #645AE8",
"o#	c #5F54E5",
"p#	c #4237D2",
"q#	c #3327C2",
"r#	c #2A20B1",
"s#	c #22189D",
"t#	c #1E1599",
"u#	c #271DAF",
"v#	c #3226C3",
"w#	c #3B2FD0",
"x#	c #4A3EE8",
"y#	c #473EAD",
"z#	c #1B1A1A",
"A#	c #1F1E0E",
"B#	c #242211",
"C#	c #201F12",
"D#	c #1E2113",
"E#	c #202116",
"F#	c #202115",
"G#	c #202014",
"H#	c #16160B",
"I#	c #14160C",
"J#	c #1D1A0E",
"K#	c #232114",
"L#	c #584C35",
"M#	c #CAA36D",
"N#	c #D8B178",
"O#	c #D3AF7C",
"P#	c #A68658",
"Q#	c #C3A472",
"R#	c #EAC379",
"S#	c #DEBA83",
"T#	c #6E62E6",
"U#	c #5A50E7",
"V#	c #453AD6",
"W#	c #3B30CB",
"X#	c #2F24B8",
"Y#	c #251BA3",
"Z#	c #20179F",
"`#	c #2B21B6",
" $	c #372BCA",
".$	c #4337D9",
"+$	c #574BF4",
"@$	c #262350",
"#$	c #0C0D00",
"$$	c #212110",
"%$	c #242314",
"&$	c #2E2A1A",
"*$	c #2D2919",
"=$	c #2D2A1B",
"-$	c #1F1E12",
";$	c #242315",
">$	c #262517",
",$	c #212214",
"'$	c #1B1B0E",
")$	c #212113",
"!$	c #0C1009",
"~$	c #705D3E",
"{$	c #ECC082",
"]$	c #E7C082",
"^$	c #F7CF86",
"/$	c #F5CD80",
"($	c #F6CE7D",
"_$	c #E4C08C",
":$	c #7268E9",
"<$	c #5B52EA",
"[$	c #4E42DD",
"}$	c #4236D2",
"|$	c #3429BF",
"1$	c #2D22BB",
"2$	c #3A2FD0",
"3$	c #4B3FE9",
"4$	c #4F46C0",
"5$	c #0C0C0E",
"6$	c #100F05",
"7$	c #201F10",
"8$	c #2C2819",
"9$	c #2F2C1C",
"0$	c #2C2817",
"a$	c #2B2817",
"b$	c #212114",
"c$	c #282818",
"d$	c #232314",
"e$	c #282617",
"f$	c #302D1D",
"g$	c #232113",
"h$	c #302C1B",
"i$	c #7C6944",
"j$	c #9A8453",
"k$	c #BB9D65",
"l$	c #ECC67C",
"m$	c #F7CE7D",
"n$	c #E1BE8E",
"o$	c #756AED",
"p$	c #6157EE",
"q$	c #5449E4",
"r$	c #463BD7",
"s$	c #372CC5",
"t$	c #281DAE",
"u$	c #2E23C0",
"v$	c #3E32D7",
"w$	c #5345ED",
"x$	c #2B275A",
"y$	c #000100",
"z$	c #131308",
"A$	c #242214",
"B$	c #292817",
"C$	c #312D1E",
"D$	c #2E2C1C",
"E$	c #31301A",
"F$	c #2F2C19",
"G$	c #2A2719",
"H$	c #2A291A",
"I$	c #262515",
"J$	c #2B2A1A",
"K$	c #2E2B19",
"L$	c #2E301E",
"M$	c #313628",
"N$	c #1E2013",
"O$	c #1E1F11",
"P$	c #040601",
"Q$	c #836D44",
"R$	c #FAD383",
"S$	c #A592CD",
"T$	c #746CFA",
"U$	c #6B61F2",
"V$	c #5B50E9",
"W$	c #4B40DD",
"X$	c #3A2FCA",
"Y$	c #271CB2",
"Z$	c #2C21C3",
"`$	c #4236E0",
" %	c #4F43DC",
".%	c #120F20",
"+%	c #050600",
"@%	c #0D0F05",
"#%	c #1A190B",
"$%	c #222213",
"%%	c #2D2A1C",
"&%	c #272617",
"*%	c #33301F",
"=%	c #2C291A",
"-%	c #211E11",
";%	c #282616",
">%	c #262415",
",%	c #242617",
"'%	c #434834",
")%	c #4A523C",
"!%	c #303120",
"~%	c #33301D",
"{%	c #292815",
"]%	c #0C0E03",
"^%	c #383019",
"/%	c #D9BE99",
"(%	c #9288F6",
"_%	c #7E75FD",
":%	c #7268F5",
"<%	c #5F54EE",
"[%	c #4F44E2",
"}%	c #392DCD",
"|%	c #4438EA",
"1%	c #453AD0",
"2%	c #040505",
"3%	c #020300",
"4%	c #000000",
"5%	c #080903",
"6%	c #1B1B0F",
"7%	c #202113",
"8%	c #272516",
"9%	c #252417",
"0%	c #212011",
"a%	c #1E1C0E",
"b%	c #292615",
"c%	c #1F1D10",
"d%	c #232214",
"e%	c #5C533A",
"f%	c #838260",
"g%	c #2E3720",
"h%	c #2D2914",
"i%	c #2B2714",
"j%	c #131002",
"k%	c #030200",
"l%	c #A28E73",
"m%	c #AA9DFA",
"n%	c #847BFE",
"o%	c #766CFA",
"p%	c #6155F2",
"q%	c #5044E7",
"r%	c #3125CE",
"s%	c #3B2EEE",
"t%	c #5D52BF",
"u%	c #27241C",
"v%	c #12100B",
"w%	c #322C22",
"x%	c #343024",
"y%	c #171811",
"z%	c #101208",
"A%	c #202114",
"B%	c #1F1F14",
"C%	c #1E1D0E",
"D%	c #232213",
"E%	c #222113",
"F%	c #1C1B0F",
"G%	c #242415",
"H%	c #524930",
"I%	c #8F8C6B",
"J%	c #3E4D3C",
"K%	c #282B1A",
"L%	c #272C1B",
"M%	c #2E332D",
"N%	c #434454",
"O%	c #9A92D9",
"P%	c #9E95FF",
"Q%	c #887FFD",
"R%	c #776DFD",
"S%	c #6155F7",
"T%	c #4C3FEA",
"U%	c #393365",
"V%	c #373624",
"W%	c #4C4738",
"X%	c #736550",
"Y%	c #A59370",
"Z%	c #968565",
"`%	c #605241",
" &	c #231D12",
".&	c #161709",
"+&	c #1D1B0F",
"@&	c #1E1D13",
"#&	c #212013",
"$&	c #232315",
"%&	c #201F13",
"&&	c #242316",
"*&	c #49432E",
"=&	c #7D6F50",
"-&	c #2D261B",
";&	c #55524F",
">&	c #9292B7",
",&	c #BBB7F7",
"'&	c #B8B2FF",
")&	c #AAA2FF",
"!&	c #9A91FC",
"~&	c #7369FE",
"{&	c #5F53FC",
"]&	c #3F32EC",
"^&	c #2D2D0F",
"/&	c #070601",
"(&	c #393026",
"_&	c #7C6A55",
":&	c #7E6F59",
"<&	c #70614D",
"[&	c #74644C",
"}&	c #4D3B26",
"|&	c #241D11",
"1&	c #151509",
"2&	c #1C1B10",
"3&	c #1D1C11",
"4&	c #212012",
"5&	c #1D1C0F",
"6&	c #1B190D",
"7&	c #34301F",
"8&	c #7A6948",
"9&	c #4A474F",
"0&	c #C4BBEE",
"a&	c #CCC5FF",
"b&	c #BFB8FF",
"c&	c #B5AFFF",
"d&	c #A79FFD",
"e&	c #978EFE",
"f&	c #8278FE",
"g&	c #6F63FE",
"h&	c #4F41FE",
"i&	c #312D1F",
"j&	c #1B261D",
"k&	c #453827",
"l&	c #5A4835",
"m&	c #5F4F3F",
"n&	c #5B4B3A",
"o&	c #483520",
"p&	c #48341F",
"q&	c #614D38",
"r&	c #282119",
"s&	c #0B0A01",
"t&	c #121309",
"u&	c #1D1C0D",
"v&	c #090904",
"w&	c #1B180F",
"x&	c #4D4127",
"y&	c #4C4B58",
"z&	c #D2CDFF",
"A&	c #C6C0FF",
"B&	c #BCB6FD",
"C&	c #B1AAFD",
"D&	c #A098FE",
"E&	c #8E84FE",
"F&	c #7B70FE",
"G&	c #6153FF",
"H&	c #6E795D",
"I&	c #63836B",
"J&	c #4E4637",
"K&	c #5B4733",
"L&	c #46321F",
"M&	c #483623",
"N&	c #46341F",
"O&	c #45331E",
"P&	c #614F37",
"Q&	c #756550",
"R&	c #3F362B",
"S&	c #392D23",
"T&	c #282517",
"U&	c #22221C",
"V&	c #A29FB6",
"W&	c #B0ACC7",
"X&	c #9B98B6",
"Y&	c #AAA5CB",
"Z&	c #C8C4FF",
"`&	c #C0BAFE",
" *	c #B5ADFE",
".*	c #A79FFE",
"+*	c #948AFE",
"@*	c #8478FF",
"#*	c #685AFF",
"$*	c #8FA07E",
"%*	c #7D9B7D",
"&*	c #433D31",
"**	c #6F5E4E",
"=*	c #554330",
"-*	c #463520",
";*	c #4C3A26",
">*	c #594731",
",*	c #4E3C29",
"'*	c #75634B",
")*	c #77614A",
"!*	c #564129",
"~*	c #7A7483",
"{*	c #DFDBFF",
"]*	c #D5D1FF",
"^*	c #D3CDFF",
"/*	c #CCC6FF",
"(*	c #BDB7FE",
"_*	c #B3ACFE",
":*	c #A59CFE",
"<*	c #988DFE",
"[*	c #887BFE",
"}*	c #6859FF",
"|*	c #4A5943",
"1*	c #554C40",
"2*	c #635243",
"3*	c #423527",
"4*	c #52412C",
"5*	c #6B5A43",
"6*	c #7C6B51",
"7*	c #726149",
"8*	c #68553E",
"9*	c #4B3723",
"0*	c #503D26",
"a*	c #3E2A0C",
"b*	c #8A819A",
"c*	c #CBC5FF",
"d*	c #C0BAFF",
"e*	c #BCB4FE",
"f*	c #B6AEFE",
"g*	c #ACA4FF",
"h*	c #A39AFF",
"i*	c #978BFE",
"j*	c #8173FE",
"k*	c #5F4EFF",
"l*	c #726A51",
"m*	c #514439",
"n*	c #342920",
"o*	c #574C3A",
"p*	c #8D7B5C",
"q*	c #978768",
"r*	c #8E7C60",
"s*	c #76624B",
"t*	c #5C4832",
"u*	c #402C0D",
"v*	c #584C56",
"w*	c #A59CEB",
"x*	c #B0A5FF",
"y*	c #ABA2FF",
"z*	c #A79EFF",
"A*	c #A297FF",
"B*	c #988CFF",
"C*	c #8577FF",
"D*	c #604FFE",
"E*	c #594C3C",
"F*	c #5B4C3A",
"G*	c #4C4533",
"H*	c #716249",
"I*	c #9B8A6B",
"J*	c #948465",
"K*	c #726048",
"L*	c #5C4A36",
"M*	c #4E3E73",
"N*	c #8475F4",
"O*	c #8F81FF",
"P*	c #8B7DFF",
"Q*	c #8879FF",
"R*	c #8070FF",
"S*	c #7462FF",
"T*	c #624DFF",
"                          . + @ # $ %                           ",
"                    & * = - ; > , ' ) ! ~ {                     ",
"                ] ^ / ( _ : < [ } | 1 2 3 4 5 6                 ",
"              7 8 9 0 a b c d e f g h i j k l m n o             ",
"          p q r s t u v w x y z A B C D E F G H I J K           ",
"        L M N O P Q R S T U V W X Y Z `  ...+.@.#.$.%.&.        ",
"        *.=.-.;.>.>.,.'.).!.~.{.].^./.(._.:.<.[.}.|.1.2.3.      ",
"      4.5.6.7.8.9.0.a.b.c.d.e.f.g.h.i.j.k.l.m.n.o.p.q.r.s.t.    ",
"    u.v.w.x.y.z.A.B.C.D.E.F.G.H.I.J.K.L.M.N.O.P.Q.R.S.T.U.V.    ",
"    M W.X.Y.Z.`. +.+++@+#+$+%+&+*+=+-+;+>+,+'+)+!+~+{+]+^+/+(+  ",
"  _+:+<+[+}+|+1+2+3+4+5+6+7+8+9+0+a+b+c+d+e+f+g+h+i+j+k+l+m+n+  ",
"  o+p+q+r+s+t+u+v+w+x+y+z+A+B+C+D+E+F+G+H+I+J+K+L+M+N+O+P+Q+R+  ",
"  S+T+U+V+W+X+Y+Z+`+ @.@+@@@#@$@%@&@*@=@-@;@>@,@'@)@!@~@{@]@^@/@",
"(@_@:@<@[@}@|@1@2@3@4@5@6@7@8@9@0@a@b@c@d@e@f@g@h@i@j@k@l@m@n@o@",
"p@q@r@s@t@u@v@w@x@y@z@A@B@C@D@E@F@G@H@I@J@K@L@M@N@O@P@Q@R@S@T@U@",
"V@W@X@Y@Z@`@ #.#+#@###$#%#&#*#=#-#;#>#,#'#)#!#~#{#]#^#/#(#_#:#<#",
"[#}#|#1#2#3#4#5#6#7#8#9#0#a#b#c#d#e#f#g#h#i#j#k#l#m#n#o#p#q#r#s#",
"t#u#v#w#x#y#z#A#B#C#D#E#F#G#H#I#J#K#L#M#N#O#P#Q#R#S#T#U#V#W#X#Y#",
"Z#`# $.$+$@$#$$$%$&$*$=$-$;$>$,$'$)$!$~${$]$^$/$($_$:$<$[$}$|$:#",
"  1$2$3$4$5$6$7$%$8$9$0$a$b$c$d$e$f$g$h$i$j$k$l$m$n$o$p$q$r$s$t$",
"  u$v$w$x$y$z$A$B$C$D$E$F$G$H$I$J$K$L$M$N$O$P$Q$R$S$T$U$V$W$X$Y$",
"  Z$`$ %.%+%@%#%$%%%&%*%=%-%;%>%,%'%)%!%~%{%]%^%/%(%_%:%<%[%}%  ",
"    |%1%2%3%4%5%6%7%8%9%0%a%b%c%d%e%f%g%h%i%j%k%l%m%n%o%p%q%r%  ",
"    s%t%u%v%w%x%y%z%A%B%C%D%E%F%G%H%I%J%K%L%M%N%O%P%Q%R%S%T%    ",
"    U%V%W%X%Y%Z%`% &.&+&@&#&$&%&&&*&=&-&;&>&,&'&)&!&Q%~&{&]&    ",
"    ^&/&(&_&:&<&[&}&|&1&2&3&4&5&6&7&8&9&0&a&b&c&d&e&f&g&h&      ",
"    i&j&k&l&m&n&o&p&q&r&s&t&D%u&v&w&x&y&z&A&B&C&D&E&F&G&        ",
"    H&I&J&K&L&M&N&O&P&Q&R&S&T&U&V&W&X&Y&Z&`& *.*+*@*#*          ",
"    $*%*&***=*-*;*>*,*>*'*)*!*~*{*]*^*/*(*_*:*<*[*}*            ",
"      |*1*2*3*4*5*6*7*8*9*0*a*b*c*d*e*f*g*h*i*j*k*              ",
"        l*m*n*o*p*q*r*s*t*u*v*w*x*y*z*A*B*C*D*                  ",
"          E*F*G*H*I*J*K*L*M*N*O*P*Q*R*S*T*                      "};
