/* XPM */
static char * emerald32_xpm[] = {
"32 32 773 2",
"  	c None",
". 	c #405F13",
"+ 	c #6C834D",
"@ 	c #778C5A",
"# 	c #768C5A",
"$ 	c #677E46",
"% 	c #3E5D0E",
"& 	c #546D32",
"* 	c #86996C",
"= 	c #BFC9B0",
"- 	c #E3E5E1",
"; 	c #FFFEFF",
"> 	c #FFFFFF",
", 	c #BDC9B2",
"' 	c #697C4E",
") 	c #536C2E",
"! 	c #355605",
"~ 	c #A1B08C",
"{ 	c #F7F9F9",
"] 	c #F2F6ED",
"^ 	c #EEF2E9",
"/ 	c #EEF3EA",
"( 	c #E9E9D8",
"_ 	c #ECE0C6",
": 	c #AEABA6",
"< 	c #464145",
"[ 	c #251E31",
"} 	c #616165",
"| 	c #D3E0BB",
"1 	c #4F6D25",
"2 	c #4F6A24",
"3 	c #C8D1BF",
"4 	c #FFFDFF",
"5 	c #EBF0E3",
"6 	c #E8EDE0",
"7 	c #E7EDDF",
"8 	c #E7EDE0",
"9 	c #E8EFE3",
"0 	c #E9E4C4",
"a 	c #B09E6F",
"b 	c #5D5656",
"c 	c #463A37",
"d 	c #212021",
"e 	c #24252B",
"f 	c #918FA5",
"g 	c #8C9484",
"h 	c #577233",
"i 	c #2C4A00",
"j 	c #294800",
"k 	c #516D26",
"l 	c #DADDD3",
"m 	c #EEF1EC",
"n 	c #E0E9D6",
"o 	c #E1E8D5",
"p 	c #E1E9D6",
"q 	c #E0E8D5",
"r 	c #E0E9D5",
"s 	c #E6EEDA",
"t 	c #DCE5D3",
"u 	c #7A7B81",
"v 	c #FFF9E7",
"w 	c #AAA59A",
"x 	c #0C151F",
"y 	c #33392E",
"z 	c #121A2B",
"A 	c #201E34",
"B 	c #6E884B",
"C 	c #2E4B04",
"D 	c #426112",
"E 	c #C6CEBB",
"F 	c #E7EBE1",
"G 	c #D8E2C9",
"H 	c #D9E3CB",
"I 	c #D9E3CA",
"J 	c #D8E4CA",
"K 	c #D9E4CA",
"L 	c #D9E4C9",
"M 	c #CDD5BE",
"N 	c #B1BAA4",
"O 	c #C8C8BE",
"P 	c #F5ECE3",
"Q 	c #F3EEE6",
"R 	c #1C252F",
"S 	c #271B23",
"T 	c #99927C",
"U 	c #758072",
"V 	c #F4FDEF",
"W 	c #D4DCCA",
"X 	c #49671A",
"Y 	c #2D4D01",
"Z 	c #294D00",
"` 	c #80985F",
" .	c #E3EADB",
"..	c #CFDBBD",
"+.	c #CFDCBE",
"@.	c #CFDCBD",
"#.	c #CFDDBD",
"$.	c #D0DEBD",
"%.	c #CFDCBC",
"&.	c #CDDAB9",
"*.	c #D6E3BF",
"=.	c #F0E9D8",
"-.	c #FEF8F4",
";.	c #FEFBF9",
">.	c #A8AC99",
",.	c #9CA68C",
"'.	c #C1B991",
").	c #A88463",
"!.	c #C0C3A3",
"~.	c #E3F0DF",
"{.	c #B0C19C",
"].	c #3B5B07",
"^.	c #2F4E05",
"/.	c #315004",
"(.	c #436413",
"_.	c #B6C7A0",
":.	c #CCDAB8",
"<.	c #C7D7B2",
"[.	c #C8D7B2",
"}.	c #C8D8B2",
"|.	c #C8D8B1",
"1.	c #C9D8B1",
"2.	c #C8D8B0",
"3.	c #C9D9B1",
"4.	c #C9DAAF",
"5.	c #ADC2A6",
"6.	c #CDC5BD",
"7.	c #FCF5F1",
"8.	c #F6F1E9",
"9.	c #CFD7B1",
"0.	c #D6EBBB",
"a.	c #C9D7AE",
"b.	c #966B4D",
"c.	c #B5AD84",
"d.	c #CBD9B2",
"e.	c #DBE4D3",
"f.	c #789253",
"g.	c #2E5000",
"h.	c #314D08",
"i.	c #335108",
"j.	c #335500",
"k.	c #7B9653",
"l.	c #CAD8B7",
"m.	c #BDCFA2",
"n.	c #BDD0A2",
"o.	c #BDD1A1",
"p.	c #BDD1A0",
"q.	c #BDD29F",
"r.	c #BED3A0",
"s.	c #C3D79F",
"t.	c #769690",
"u.	c #001867",
"v.	c #4B688A",
"w.	c #FDF8F1",
"x.	c #FFFFFE",
"y.	c #FFFDF1",
"z.	c #778393",
"A.	c #436B7B",
"B.	c #C1D8A6",
"C.	c #BED0A1",
"D.	c #BBCD9F",
"E.	c #C2D3A9",
"F.	c #A2B885",
"G.	c #375A00",
"H.	c #355307",
"I.	c #365607",
"J.	c #3C6008",
"K.	c #9AB277",
"L.	c #BBCE9E",
"M.	c #B4C995",
"N.	c #B4CB94",
"O.	c #B5CB93",
"P.	c #B4CB92",
"Q.	c #B4CC93",
"R.	c #B3CE90",
"S.	c #B8BD9B",
"T.	c #80839A",
"U.	c #9D929D",
"V.	c #919BA8",
"W.	c #CFD8D9",
"X.	c #2B5E8A",
"Y.	c #023C76",
"Z.	c #496D91",
"`.	c #94B193",
" +	c #B8CE93",
".+	c #B4C994",
"++	c #B5CA97",
"@+	c #AAC189",
"#+	c #4B6E19",
"$+	c #365805",
"%+	c #324E08",
"&+	c #325108",
"*+	c #395D07",
"=+	c #476C12",
"-+	c #A2BB7F",
";+	c #ADC48A",
">+	c #A9C385",
",+	c #AAC384",
"'+	c #AAC583",
")+	c #AAC682",
"!+	c #AAC582",
"~+	c #ABC781",
"{+	c #A3C17F",
"]+	c #AC9D9F",
"^+	c #B4A2A8",
"/+	c #CDCAC5",
"(+	c #EFEEE7",
"_+	c #C4D2DB",
":+	c #033E6E",
"<+	c #1B4E7B",
"[+	c #BDC9CF",
"}+	c #EFE1D8",
"|+	c #BECBB7",
"1+	c #A4C17C",
"2+	c #A5C07D",
"3+	c #9EBB74",
"4+	c #B8C99D",
"5+	c #A7B19A",
"6+	c #395E06",
"7+	c #345406",
"8+	c #365608",
"9+	c #3E6406",
"0+	c #4B7214",
"a+	c #9BB673",
"b+	c #A4C07A",
"c+	c #A1BF77",
"d+	c #A2BE77",
"e+	c #A2BF75",
"f+	c #A1C075",
"g+	c #A1C174",
"h+	c #A1C074",
"i+	c #A3C570",
"j+	c #A3B182",
"k+	c #A6979E",
"l+	c #C6C4BB",
"m+	c #E0E3DD",
"n+	c #F2F2EC",
"o+	c #A2A0AB",
"p+	c #9A9BA9",
"q+	c #D8D7D5",
"r+	c #FFF8F1",
"s+	c #EAEBF1",
"t+	c #96B298",
"u+	c #A5C173",
"v+	c #B2C892",
"w+	c #C7D5B3",
"x+	c #DFDEE2",
"y+	c #809A56",
"z+	c #3A6102",
"A+	c #3A5C09",
"B+	c #3F620C",
"C+	c #3F571A",
"D+	c #687548",
"E+	c #86966E",
"F+	c #7D9463",
"G+	c #93AE68",
"H+	c #97BB67",
"I+	c #98BB68",
"J+	c #99BD67",
"K+	c #9BBF69",
"L+	c #98C061",
"M+	c #82AA65",
"N+	c #A19B9E",
"O+	c #DFD9D5",
"P+	c #DCE0D7",
"Q+	c #DDDBDD",
"R+	c #D2CBCA",
"S+	c #EFE5DC",
"T+	c #FFFFFB",
"U+	c #EBE9DF",
"V+	c #FCFCFA",
"W+	c #FEFEFE",
"X+	c #EFF2F0",
"Y+	c #F4F6F0",
"Z+	c #EDE5F8",
"`+	c #A7BD87",
" @	c #6C9236",
".@	c #426908",
"+@	c #3E610B",
"@@	c #365409",
"#@	c #375608",
"$@	c #38481C",
"%@	c #201B22",
"&@	c #828369",
"*@	c #687B56",
"=@	c #858F6C",
"-@	c #A8AA87",
";@	c #819E5B",
">@	c #98C360",
",@	c #9DA863",
"'@	c #A4845E",
")@	c #9FB16C",
"!@	c #578589",
"~@	c #8D91A5",
"{@	c #D6C5C3",
"]@	c #BCB1B1",
"^@	c #C9C0C3",
"/@	c #F7ECE5",
"(@	c #BAC3CC",
"_@	c #A7B0BA",
":@	c #F4F4F1",
"<@	c #FDFDFF",
"[@	c #E8EBEC",
"}@	c #AABE8B",
"|@	c #8DB15A",
"1@	c #6C9234",
"2@	c #466F0B",
"3@	c #42660B",
"4@	c #38590A",
"5@	c #3B5810",
"6@	c #281C1C",
"7@	c #5D6445",
"8@	c #879471",
"9@	c #7D8662",
"0@	c #76825C",
"a@	c #6C7960",
"b@	c #1A232B",
"c@	c #7A8E4A",
"d@	c #7E6E4D",
"e@	c #90956F",
"f@	c #CEC3C7",
"g@	c #DDC9CF",
"h@	c #C1A4AA",
"i@	c #A39698",
"j@	c #A5919D",
"k@	c #675A75",
"l@	c #969BA3",
"m@	c #294F7D",
"n@	c #94A7B3",
"o@	c #DCD1D0",
"p@	c #BBC5CF",
"q@	c #B4C8BE",
"r@	c #EBECE4",
"s@	c #B0C693",
"t@	c #82AF46",
"u@	c #83B04D",
"v@	c #86B052",
"w@	c #618D26",
"x@	c #4C770F",
"y@	c #466D0D",
"z@	c #3C5E0A",
"A@	c #415624",
"B@	c #617854",
"C@	c #8D977C",
"D@	c #858B6D",
"E@	c #758054",
"F@	c #727F4F",
"G@	c #506533",
"H@	c #6F8E45",
"I@	c #586B54",
"J@	c #B196AA",
"K@	c #D1BEC6",
"L@	c #DBCECF",
"M@	c #C09BA4",
"N@	c #B5ACB2",
"O@	c #3E6687",
"P@	c #0B4B75",
"Q@	c #586F84",
"R@	c #93929C",
"S@	c #CAC0BE",
"T@	c #CBBBB9",
"U@	c #636685",
"V@	c #96B1B0",
"W@	c #F3F6F0",
"X@	c #8FB859",
"Y@	c #88AA42",
"Z@	c #99A346",
"`@	c #8FA042",
" #	c #628B20",
".#	c #4F7E13",
"+#	c #47730F",
"@#	c #40630B",
"##	c #3D610A",
"$#	c #4B750F",
"%#	c #567F21",
"&#	c #60852E",
"*#	c #6E9532",
"=#	c #759453",
"-#	c #6F975B",
";#	c #8BB562",
">#	c #1F6171",
",#	c #5E7293",
"'#	c #9F8795",
")#	c #B2A7AD",
"!#	c #FCFFF5",
"~#	c #F0E0DC",
"{#	c #D2D6CC",
"]#	c #4D6A89",
"^#	c #2B537F",
"/#	c #326785",
"(#	c #D4C5BF",
"_#	c #B2A1A9",
":#	c #9F9AA1",
"<#	c #A3A0A5",
"[#	c #D8E1C4",
"}#	c #9A9B36",
"|#	c #B19A41",
"1#	c #B4953E",
"2#	c #B0943A",
"3#	c #A69133",
"4#	c #848827",
"5#	c #527714",
"6#	c #3B650A",
"7#	c #3F640A",
"8#	c #4F7A0E",
"9#	c #5E8D11",
"0#	c #629020",
"a#	c #527B47",
"b#	c #275277",
"c#	c #627399",
"d#	c #878DA1",
"e#	c #2E517F",
"f#	c #6A728A",
"g#	c #928694",
"h#	c #B7AFB5",
"i#	c #FFFFF4",
"j#	c #FFFFF8",
"k#	c #4E7094",
"l#	c #093E76",
"m#	c #3C5E88",
"n#	c #AFB1B3",
"o#	c #E2C2C0",
"p#	c #A799A6",
"q#	c #93909B",
"r#	c #ABB8C5",
"s#	c #C2B06F",
"t#	c #B4963C",
"u#	c #B49A42",
"v#	c #B0963E",
"w#	c #AF953B",
"x#	c #B19538",
"y#	c #B39538",
"z#	c #A48E31",
"A#	c #787B20",
"B#	c #4B6D17",
"C#	c #4A7221",
"D#	c #3F6645",
"E#	c #1B4567",
"F#	c #002C7E",
"G#	c #14457D",
"H#	c #A9A0A6",
"I#	c #C3A6B6",
"J#	c #747992",
"K#	c #376286",
"L#	c #A797A3",
"M#	c #DACBCE",
"N#	c #C6BCBF",
"O#	c #163272",
"P#	c #1B4E80",
"Q#	c #BCD2D5",
"R#	c #FFE7D9",
"S#	c #9F8D9D",
"T#	c #084D78",
"U#	c #2C5F89",
"V#	c #D6D5DB",
"W#	c #C1AD63",
"X#	c #B09538",
"Y#	c #B39B43",
"Z#	c #B39A41",
"`#	c #B2983F",
" $	c #B0963C",
".$	c #B0953A",
"+$	c #AD9337",
"@$	c #B29638",
"#$	c #AB9235",
"$$	c #486967",
"%$	c #1D4165",
"&$	c #2F4C88",
"*$	c #6976A0",
"=$	c #6F7B9C",
"-$	c #46546B",
";$	c #7C7F85",
">$	c #9794A4",
",$	c #516B8A",
"'$	c #767E97",
")$	c #A793A0",
"!$	c #EBDCD8",
"~$	c #D6CDCE",
"{$	c #865975",
"]$	c #3B5883",
"^$	c #063979",
"/$	c #627FA0",
"($	c #BEA49F",
"_$	c #AE9A64",
":$	c #8B874B",
"<$	c #717956",
"[$	c #AD994B",
"}$	c #B4993F",
"|$	c #B69D48",
"1$	c #B59B44",
"2$	c #B39A40",
"3$	c #B29941",
"4$	c #B3993E",
"5$	c #B1963A",
"6$	c #B0963A",
"7$	c #AB9336",
"8$	c #648751",
"9$	c #B1AED0",
"0$	c #9295A5",
"a$	c #B2A8B0",
"b$	c #B5ADB1",
"c$	c #D2C9C4",
"d$	c #69849E",
"e$	c #003972",
"f$	c #526582",
"g$	c #968D98",
"h$	c #908A98",
"i$	c #592A5D",
"j$	c #8C7485",
"k$	c #8E9CAC",
"l$	c #163F76",
"m$	c #00307A",
"n$	c #636368",
"o$	c #B38850",
"p$	c #B39345",
"q$	c #BA9D38",
"r$	c #B79E3E",
"s$	c #B69E46",
"t$	c #B59D48",
"u$	c #B49B47",
"v$	c #B59C46",
"w$	c #B49B44",
"x$	c #B59C45",
"y$	c #B69D44",
"z$	c #B49B42",
"A$	c #B1973D",
"B$	c #A89436",
"C$	c #7D986E",
"D$	c #53729B",
"E$	c #5D6D8A",
"F$	c #9792A2",
"G$	c #C4AFB1",
"H$	c #91A8B9",
"I$	c #3F6489",
"J$	c #7E8094",
"K$	c #928E9D",
"L$	c #9A949C",
"M$	c #B0AEB6",
"N$	c #EAF6EF",
"O$	c #B3B6BF",
"P$	c #0F4483",
"Q$	c #5A5867",
"R$	c #8A6550",
"S$	c #8F6D5A",
"T$	c #A07E54",
"U$	c #A68847",
"V$	c #A99042",
"W$	c #B69D46",
"X$	c #B9A048",
"Y$	c #B79E47",
"Z$	c #B49B45",
"`$	c #B59C47",
" %	c #B69D47",
".%	c #305C79",
"+%	c #45618F",
"@%	c #546C8C",
"#%	c #526C91",
"$%	c #365F82",
"%%	c #6E7A92",
"&%	c #818395",
"*%	c #858295",
"=%	c #AC9FA9",
"-%	c #D7D1D0",
";%	c #99A9AE",
">%	c #99A5A9",
",%	c #AEB6B9",
"'%	c #949CA5",
")%	c #4A6C91",
"!%	c #525962",
"~%	c #966F52",
"{%	c #8C6B54",
"]%	c #8D6C5B",
"^%	c #866558",
"/%	c #846552",
"(%	c #957750",
"_%	c #A58C43",
":%	c #B69C3F",
"<%	c #B99F3F",
"[%	c #B69E44",
"}%	c #C0A44A",
"|%	c #BB9F46",
"1%	c #A08732",
"2%	c #3B5E71",
"3%	c #153C73",
"4%	c #254F7F",
"5%	c #2B5A84",
"6%	c #335A7E",
"7%	c #667491",
"8%	c #868A9D",
"9%	c #82859A",
"0%	c #8A8796",
"a%	c #838898",
"b%	c #737A8C",
"c%	c #8C8699",
"d%	c #71788C",
"e%	c #415C79",
"f%	c #3D6284",
"g%	c #506371",
"h%	c #866C55",
"i%	c #906C53",
"j%	c #91725A",
"k%	c #93705A",
"l%	c #9C755B",
"m%	c #856654",
"n%	c #6C554B",
"o%	c #7C6744",
"p%	c #9C8440",
"q%	c #A69040",
"r%	c #8C8039",
"s%	c #625C27",
"t%	c #5E7E9A",
"u%	c #103973",
"v%	c #0D3276",
"w%	c #597091",
"x%	c #6D819C",
"y%	c #003370",
"z%	c #395B80",
"A%	c #B4B0B8",
"B%	c #818897",
"C%	c #868698",
"D%	c #7C7D90",
"E%	c #858395",
"F%	c #7D7C91",
"G%	c #767A8D",
"H%	c #737A8B",
"I%	c #687992",
"J%	c #294D75",
"K%	c #3D6071",
"L%	c #715B47",
"M%	c #8B654C",
"N%	c #785B4A",
"O%	c #7A594B",
"P%	c #8E6A56",
"Q%	c #98755F",
"R%	c #886A58",
"S%	c #A47864",
"T%	c #7C634A",
"U%	c #1C3114",
"V%	c #373B16",
"W%	c #689656",
"X%	c #8EBD50",
"Y%	c #A5B985",
"Z%	c #6B799E",
"`%	c #43638F",
" &	c #F0E2E9",
".&	c #8994A4",
"+&	c #C9C6CD",
"@&	c #F6E8E8",
"#&	c #AAB3B8",
"$&	c #A5ACB1",
"%&	c #C9C0C5",
"&&	c #A6A9B1",
"*&	c #113C6D",
"=&	c #22476F",
"-&	c #406183",
";&	c #26455D",
">&	c #6F5D54",
",&	c #989475",
"'&	c #A0966C",
")&	c #91775A",
"!&	c #906A58",
"~&	c #9B725E",
"{&	c #906D5B",
"]&	c #68533F",
"^&	c #483C13",
"/&	c #8DC434",
"(&	c #97CD49",
"_&	c #A2C57E",
":&	c #8AA597",
"<&	c #CCD1D8",
"[&	c #E5E6EF",
"}&	c #E0E5EC",
"|&	c #DADFDF",
"1&	c #CDCDC8",
"2&	c #CBCCCA",
"3&	c #A7ABB2",
"4&	c #969DA7",
"5&	c #436784",
"6&	c #A196A7",
"7&	c #8D8C96",
"8&	c #697A8E",
"9&	c #4C6A85",
"0&	c #929AA8",
"a&	c #B8DDA1",
"b&	c #C2E98C",
"c&	c #A6B16A",
"d&	c #967F57",
"e&	c #866155",
"f&	c #68563F",
"g&	c #99CD4C",
"h&	c #A6DD54",
"i&	c #B3E26C",
"j&	c #AED582",
"k&	c #BFE097",
"l&	c #91B196",
"m&	c #7C81A3",
"n&	c #D4D2D3",
"o&	c #969EB2",
"p&	c #596C85",
"q&	c #646F86",
"r&	c #64748A",
"s&	c #7A8396",
"t&	c #707E92",
"u&	c #5C6F83",
"v&	c #405972",
"w&	c #566183",
"x&	c #9BB0A0",
"y&	c #C0EA86",
"z&	c #B7EC75",
"A&	c #A4D55C",
"B&	c #7E6E44",
"C&	c #665937",
"D&	c #A3D857",
"E&	c #A7DE57",
"F&	c #B9E972",
"G&	c #C3EE83",
"H&	c #C9EE92",
"I&	c #A7C29C",
"J&	c #9EADA6",
"K&	c #B1C7A5",
"L&	c #9CB596",
"M&	c #4F5B88",
"N&	c #5C688A",
"O&	c #819497",
"P&	c #889096",
"Q&	c #355783",
"R&	c #0C3972",
"S&	c #829293",
"T&	c #B2DA88",
"U&	c #BCEB75",
"V&	c #ADE262",
"W&	c #9EDD49",
"X&	c #B3E16E",
"Y&	c #B0E662",
"Z&	c #B7EB6E",
"`&	c #C5F183",
" *	c #CDF68F",
".*	c #CDF398",
"+*	c #D9FDA1",
"@*	c #D9FAA6",
"#*	c #A9BCA2",
"$*	c #9AA7A6",
"%*	c #C5E4A4",
"&*	c #C9E79A",
"**	c #9EC28F",
"=*	c #8CB87D",
"-*	c #B1DE7C",
";*	c #BFF172",
">*	c #B0E661",
",*	c #A1DC4A",
"'*	c #BAEB74",
")*	c #B8EF68",
"!*	c #BFF570",
"~*	c #C7F97E",
"{*	c #CAF985",
"]*	c #CFFD8E",
"^*	c #D2FE91",
"/*	c #D2FB91",
"(*	c #CFFD8D",
"_*	c #CDFD88",
":*	c #CEFF80",
"<*	c #CAFE76",
"[*	c #BBF468",
"}*	c #ACE956",
"|*	c #C1F378",
"1*	c #C2F676",
"2*	c #C4F978",
"3*	c #C4FA76",
"4*	c #C6FB76",
"5*	c #C5FA74",
"6*	c #C1F971",
"7*	c #BDF769",
"8*	c #B5F25D",
"                          . + @ # $ %                           ",
"                    & * = - ; > > > > , ' )                     ",
"                ! ~ > > { ] ^ / ( _ : < [ } | 1                 ",
"              2 3 4 5 6 7 7 8 9 0 a b c d e f g h i             ",
"          j k l m n o p p q r s t u v w x y z A > B j           ",
"        C D E F G H I J I K L M N O P Q R S T U V W X Y         ",
"        Z `  ...+.@.#.$.#.#.%.&.*.=.-.;.>.,.'.).!.~.{.].^.      ",
"      /.(._.:.<.[.}.|.|.1.2.3.4.5.6.7.8.9.0.a.b.c.d.e.f.g.h.    ",
"    i.j.k.l.m.n.o.o.o.p.q.r.s.t.u.v.w.x.y.z.A.B.C.D.E.F.G.H.    ",
"    I.J.K.L.M.M.N.O.P.Q.P.R.S.T.U.V.> W.X.Y.Z.`. +.+++@+#+$+%+  ",
"  &+*+=+-+;+>+,+'+'+)+!+~+{+]+^+/+(+_+:+<+[+}+|+1+2+3+4+5+6+7+  ",
"  8+9+0+a+b+c+d+e+f+g+h+i+j+k+l+m+n+o+p+q+r+s+t+u+v+w+x+y+z+A+  ",
"  B+C+D+E+F+G+H+I+J+K+L+M+N+O+P+Q+R+S+T+U+V+W+X+Y+4 Z+`+ @.@+@@@",
"#@$@%@&@*@=@-@;@>@,@'@)@!@~@{@]@^@/@(@_@:@> > > <@[@}@|@1@2@3@4@",
"5@6@7@8@9@0@a@b@c@d@e@f@g@h@i@j@k@l@m@n@o@p@q@r@s@t@u@v@w@x@y@z@",
"A+A@B@C@D@E@F@G@H@I@J@K@L@M@N@O@P@Q@R@S@T@U@V@W@X@Y@Z@`@ #.#+#@#",
"##$#%#&#*#=#-#;#>#,#'#)#!#~#{#]#^#/#(#_#:#<#> [#}#|#1#2#3#4#5#6#",
"7#8#9#0#a#b#c#d#e#f#g#h#i#j#k#l#m#n#o#p#q#r#> s#t#u#v#w#x#y#z#A#",
"B#C#D#E#F#G#H#I#J#K#L#M#> N#O#P#Q#R#S#T#U#V#W#X#Y#Z#`# $.$+$@$#$",
"$$%$&$*$=$-$;$>$,$'$)$!$~${$]$^$/$($_$:$<$[$}$|$1$u#2$3$4$5$6$7$",
"  8$9$0$a$b$c$d$e$f$g$h$i$j$k$l$m$n$o$p$q$r$s$t$u$v$w$x$y$z$A$B$",
"  C$D$E$F$G$H$I$J$K$L$M$N$> > O$P$Q$R$S$T$U$V$W$X$Y$Z$Z$`$ %2$  ",
"    .%+%@%#%$%%%&%*%=%-%;%>%,%'%)%!%~%{%]%^%/%(%_%:%<%[%}%|%1%  ",
"    2%3%4%5%6%7%8%9%0%a%b%c%d%e%f%g%h%i%j%k%l%m%n%o%p%q%r%s%    ",
"  t%u%v%w%x%y%z%A%B%C%D%E%F%G%H%I%J%K%L%M%N%O%P%Q%R%S%T%U%V%    ",
"      W%X%Y%Z%`% &.&+&@&#&$&%&&&*&=&-&;&>&,&'&)&!&~&{&]&^&      ",
"        /&(&_&:&<&[&}&|&1&2&3&4&5&6&7&8&9&0&a&b&c&d&e&f&        ",
"          g&h&i&j&k&l&m&n&o&p&q&r&s&t&u&v&w&x&y&z&A&B&C&        ",
"            D&E&F&G&H&I&J&K&L&M&N&O&P&Q&R&S&T&U&V&W&            ",
"              X&Y&Z&`& *.*+*@*#*$*%*&***=*-*;*>*,*              ",
"                  '*)*!*~*{*]*^*/*(*_*:*<*[*}*                  ",
"                      |*1*2*3*4*4*5*6*7*8*                      "};
