/* XPM */
static char * green32_xpm[] = {
"32 32 802 2",
"  	c None",
". 	c #373819",
"+ 	c #232C14",
"@ 	c #245525",
"# 	c #2B6930",
"$ 	c #29632D",
"% 	c #215D25",
"& 	c #0F4F12",
"* 	c #1A5C1F",
"= 	c #334F29",
"- 	c #43482E",
"; 	c #504E41",
"> 	c #B5BBAE",
", 	c #D9DED7",
"' 	c #EFF3EF",
") 	c #DFE9E1",
"! 	c #B6CAB7",
"~ 	c #86A788",
"{ 	c #4E7F51",
"] 	c #235F27",
"^ 	c #034707",
"/ 	c #3D7340",
"( 	c #CEDED0",
"_ 	c #CCC9C0",
": 	c #423420",
"< 	c #3E352E",
"[ 	c #3F2E1E",
"} 	c #827A71",
"| 	c #FFFFFF",
"1 	c #FDFFFD",
"2 	c #FEFFFE",
"3 	c #DCE6DD",
"4 	c #608D62",
"5 	c #0E5012",
"6 	c #135317",
"7 	c #6F9871",
"8 	c #DBE7DB",
"9 	c #E9EBE3",
"0 	c #4A3D28",
"a 	c #3D301C",
"b 	c #473B23",
"c 	c #5B5951",
"d 	c #F7FEF8",
"e 	c #F0F6F1",
"f 	c #F0F6EF",
"g 	c #F0F6F0",
"h 	c #F1F7F1",
"i 	c #FAFDFA",
"j 	c #F7FBF7",
"k 	c #97B698",
"l 	c #1B5A1F",
"m 	c #0B4B0F",
"n 	c #114E14",
"o 	c #044B09",
"p 	c #82A885",
"q 	c #FFFFFE",
"r 	c #F6FFF6",
"s 	c #F3FCF4",
"t 	c #D1D6C4",
"u 	c #5B4B2F",
"v 	c #DDC587",
"w 	c #8F7D54",
"x 	c #70736F",
"y 	c #F1FDF2",
"z 	c #E5F0E6",
"A 	c #E5F1E6",
"B 	c #E8F2E8",
"C 	c #F5FCF5",
"D 	c #BED4BF",
"E 	c #28652C",
"F 	c #0C4C10",
"G 	c #125017",
"H 	c #115315",
"I 	c #739E76",
"J 	c #E4F0E4",
"K 	c #B9C8BE",
"L 	c #A8B9AD",
"M 	c #67736B",
"N 	c #826950",
"O 	c #EAD492",
"P 	c #FBE09A",
"Q 	c #7D7457",
"R 	c #AAB6AA",
"S 	c #DFEFDF",
"T 	c #DFF0E1",
"U 	c #DBEBDC",
"V 	c #DCECDD",
"W 	c #DCEBDD",
"X 	c #EFF8F0",
"Y 	c #A5C2A7",
"Z 	c #125617",
"` 	c #114F15",
" .	c #094E0E",
"..	c #437C47",
"+.	c #E1F2E2",
"@.	c #C0D5C5",
"#.	c #657E73",
"$.	c #768F7C",
"%.	c #314E48",
"&.	c #52493A",
"*.	c #AD7F53",
"=.	c #C49E6B",
"-.	c #767B63",
";.	c #718069",
">.	c #85917D",
",.	c #BECFB8",
"'.	c #DAF1DC",
").	c #D0E7D2",
"!.	c #CFE5D1",
"~.	c #D0E6D2",
"{.	c #D0E5D2",
"].	c #CFE4D1",
"^.	c #D0E5D1",
"/.	c #DEEEDE",
"(.	c #6E9D71",
"_.	c #084E0C",
":.	c #135117",
"<.	c #0D5512",
"[.	c #89B18C",
"}.	c #D7EDD8",
"|.	c #A2BBA6",
"1.	c #7B937E",
"2.	c #5A7465",
"3.	c #6F8979",
"4.	c #687D6B",
"5.	c #51483C",
"6.	c #695340",
"7.	c #7B856B",
"8.	c #5F6B57",
"9.	c #707E66",
"0.	c #79866A",
"a.	c #97AC96",
"b.	c #C4DFC4",
"c.	c #C5E1C7",
"d.	c #C4E0C7",
"e.	c #C5DFC7",
"f.	c #C6DFC7",
"g.	c #CBE3CC",
"h.	c #C3DCC4",
"i.	c #37743B",
"j.	c #0E5112",
"k.	c #145017",
"l.	c #145218",
"m.	c #0C5211",
"n.	c #458248",
"o.	c #C4E1C6",
"p.	c #BDDCBD",
"q.	c #7A9988",
"r.	c #5C7971",
"s.	c #59695F",
"t.	c #799285",
"u.	c #55746F",
"v.	c #829B83",
"w.	c #778E7B",
"x.	c #849681",
"y.	c #818F78",
"z.	c #748775",
"A.	c #5A7263",
"B.	c #5A7062",
"C.	c #82927B",
"D.	c #B3D6B4",
"E.	c #B6DAB8",
"F.	c #B5D7B8",
"G.	c #B6D8B8",
"H.	c #B7D8BA",
"I.	c #B8D7B9",
"J.	c #C7E2C9",
"K.	c #80AD83",
"L.	c #0C5511",
"M.	c #145419",
"N.	c #145619",
"O.	c #125B17",
"P.	c #7DAC7E",
"Q.	c #AFCDAF",
"R.	c #A0BE9C",
"S.	c #60776B",
"T.	c #2F4D4C",
"U.	c #6A8275",
"V.	c #4D706E",
"W.	c #5C7972",
"X.	c #758B78",
"Y.	c #5D766B",
"Z.	c #586D61",
"`.	c #8EA088",
" +	c #617260",
".+	c #5E7263",
"++	c #717963",
"@+	c #7D886F",
"#+	c #A2C9A3",
"$+	c #AAD6AE",
"%+	c #A9D2AA",
"&+	c #A9D2AC",
"*+	c #AAD1AD",
"=+	c #ABD2AE",
"-+	c #B2D5B4",
";+	c #92BD95",
">+	c #165F1A",
",+	c #145918",
"'+	c #135017",
")+	c #145217",
"!+	c #145B19",
"~+	c #246E27",
"{+	c #668364",
"]+	c #597367",
"^+	c #5B6E5E",
"/+	c #445B54",
"(+	c #697D6F",
"_+	c #6F8476",
":+	c #4F6761",
"<+	c #728C7E",
"[+	c #53695F",
"}+	c #748874",
"|+	c #94A389",
"1+	c #82937A",
"2+	c #81907A",
"3+	c #788873",
"4+	c #57604F",
"5+	c #757C63",
"6+	c #769672",
"7+	c #99CF9C",
"8+	c #9ACFA0",
"9+	c #9ACB9D",
"0+	c #9CCA9E",
"a+	c #9CCA9F",
"b+	c #A0CBA1",
"c+	c #98C69B",
"d+	c #28702D",
"e+	c #135B17",
"f+	c #145518",
"g+	c #15571A",
"h+	c #16621B",
"i+	c #2E6C2D",
"j+	c #506251",
"k+	c #768C77",
"l+	c #5E7161",
"m+	c #394D43",
"n+	c #647666",
"o+	c #44605B",
"p+	c #829783",
"q+	c #678174",
"r+	c #7A8E7A",
"s+	c #868B76",
"t+	c #85927B",
"u+	c #799682",
"v+	c #7C947D",
"w+	c #627463",
"x+	c #858E74",
"y+	c #767F69",
"z+	c #899E7A",
"A+	c #84B183",
"B+	c #8CC58F",
"C+	c #8EC692",
"D+	c #8FC492",
"E+	c #91C494",
"F+	c #93C597",
"G+	c #39813E",
"H+	c #136018",
"I+	c #175B1B",
"J+	c #175C1B",
"K+	c #17671D",
"L+	c #326F31",
"M+	c #929C7D",
"N+	c #728269",
"O+	c #3F3328",
"P+	c #665641",
"Q+	c #604B39",
"R+	c #434941",
"S+	c #5D7C74",
"T+	c #5F7D73",
"U+	c #859A86",
"V+	c #3C554B",
"W+	c #3C241A",
"X+	c #6D2F1F",
"Y+	c #8E543E",
"Z+	c #684939",
"`+	c #4D6257",
" @	c #758770",
".@	c #A2AC89",
"+@	c #637868",
"@@	c #8C977E",
"#@	c #7CA575",
"$@	c #81C186",
"%@	c #82BE86",
"&@	c #83BE87",
"*@	c #87BF8B",
"=@	c #438C48",
"-@	c #17671B",
";@	c #19601D",
">@	c #155518",
",@	c #18611D",
"'@	c #1A6E20",
")@	c #2D7332",
"!@	c #8D9E87",
"~@	c #51594C",
"{@	c #593C2A",
"]@	c #71533E",
"^@	c #644535",
"/@	c #4D3425",
"(@	c #2B4544",
"_@	c #638377",
":@	c #6F8879",
"<@	c #3F4B3D",
"[@	c #1D1D10",
"}@	c #26150A",
"|@	c #581906",
"1@	c #76432C",
"2@	c #7B8470",
"3@	c #758974",
"4@	c #828E72",
"5@	c #70755E",
"6@	c #867D66",
"7@	c #6C7858",
"8@	c #7BC380",
"9@	c #79BC7E",
"0@	c #7ABB7E",
"a@	c #7DBA80",
"b@	c #408E46",
"c@	c #1A6D1F",
"d@	c #1A651E",
"e@	c #16591A",
"f@	c #165A1A",
"g@	c #1B6720",
"h@	c #217625",
"i@	c #246E2C",
"j@	c #517363",
"k@	c #687A66",
"l@	c #4C271E",
"m@	c #502E22",
"n@	c #4D2F23",
"o@	c #552A1D",
"p@	c #472921",
"q@	c #5F756C",
"r@	c #677B6C",
"s@	c #48625A",
"t@	c #475E53",
"u@	c #3C4232",
"v@	c #1A190C",
"w@	c #2E2010",
"x@	c #993D1A",
"y@	c #8E3C1E",
"z@	c #523121",
"A@	c #714D31",
"B@	c #7D5332",
"C@	c #5F4E31",
"D@	c #6CB06F",
"E@	c #73C078",
"F@	c #71BA77",
"G@	c #70B575",
"H@	c #3A8D40",
"I@	c #207525",
"J@	c #1E6B23",
"K@	c #185E1C",
"L@	c #175E1B",
"M@	c #1E6C23",
"N@	c #247929",
"O@	c #2D8632",
"P@	c #5BA45E",
"Q@	c #67AB6C",
"R@	c #575038",
"S@	c #4B1C16",
"T@	c #3C1B15",
"U@	c #4C2D21",
"V@	c #5B3023",
"W@	c #50443A",
"X@	c #335653",
"Y@	c #5C675A",
"Z@	c #847755",
"`@	c #AC9864",
" #	c #44321A",
".#	c #3C3622",
"+#	c #434E41",
"@#	c #5A351C",
"##	c #694C32",
"$#	c #654A30",
"%#	c #67492D",
"&#	c #5B3D29",
"*#	c #4C6354",
"=#	c #689769",
"-#	c #65A868",
";#	c #67B26B",
">#	c #358D3B",
",#	c #267D2C",
"'#	c #217126",
")#	c #1A631F",
"!#	c #19621D",
"~#	c #207226",
"{#	c #29812E",
"]#	c #308B36",
"^#	c #50A556",
"/#	c #6ABB70",
"(#	c #64A665",
"_#	c #505639",
":#	c #472C20",
"<#	c #4A2A21",
"[#	c #603E2E",
"}#	c #553425",
"|#	c #2B3235",
"1#	c #796845",
"2#	c #A58756",
"3#	c #F7D794",
"4#	c #AC8656",
"5#	c #6E6246",
"6#	c #2F392F",
"7#	c #5D623E",
"8#	c #686D48",
"9#	c #68613F",
"0#	c #60432A",
"a#	c #553A25",
"b#	c #584A37",
"c#	c #5B7C5D",
"d#	c #486843",
"e#	c #5EA15B",
"f#	c #36943E",
"g#	c #2D8532",
"h#	c #237728",
"i#	c #1C6821",
"j#	c #1A6620",
"k#	c #247729",
"l#	c #2E8734",
"m#	c #38933D",
"n#	c #48A24E",
"o#	c #64B46A",
"p#	c #6EBF74",
"q#	c #6FC077",
"r#	c #619F64",
"s#	c #6C8D5C",
"t#	c #846A4A",
"u#	c #87603F",
"v#	c #836140",
"w#	c #876F43",
"x#	c #C0AA6D",
"y#	c #DDC283",
"z#	c #B79B68",
"A#	c #803F29",
"B#	c #583E28",
"C#	c #5A6541",
"D#	c #5D6945",
"E#	c #694B2D",
"F#	c #882D16",
"G#	c #5E422B",
"H#	c #5B402A",
"I#	c #6BA363",
"J#	c #70BF75",
"K#	c #5AAB5F",
"L#	c #3C9842",
"M#	c #338C38",
"N#	c #277C2C",
"O#	c #1E6D24",
"P#	c #1C6A21",
"Q#	c #287D2D",
"R#	c #338E39",
"S#	c #409B46",
"T#	c #4CA753",
"U#	c #60B366",
"V#	c #6FBE77",
"W#	c #70C37C",
"X#	c #91CA81",
"Y#	c #9FAE6B",
"Z#	c #9A8969",
"`#	c #C0AC90",
" $	c #B29970",
".$	c #C58F5A",
"+$	c #C55F31",
"@$	c #C3A36E",
"#$	c #6B734A",
"$$	c #7F774A",
"%$	c #62623F",
"&$	c #4C5436",
"*$	c #575F40",
"=$	c #544E31",
"-$	c #6F5331",
";$	c #5F5A3A",
">$	c #525236",
",$	c #74B673",
"'$	c #6EBF75",
")$	c #56AD5C",
"!$	c #449F4A",
"~$	c #39933E",
"{$	c #2B8231",
"]$	c #2A812F",
"^$	c #37933D",
"/$	c #46A14C",
"($	c #56AE5B",
"_$	c #62B86A",
":$	c #7CC07B",
"<$	c #B1B570",
"[$	c #B99662",
"}$	c #B49B84",
"|$	c #8F8575",
"1$	c #C9B28C",
"2$	c #C19B64",
"3$	c #BF9A61",
"4$	c #7F482A",
"5$	c #6B4329",
"6$	c #626743",
"7$	c #67724B",
"8$	c #69714A",
"9$	c #555A3A",
"0$	c #484A32",
"a$	c #53593B",
"b$	c #566242",
"c$	c #5C5D3A",
"d$	c #57653E",
"e$	c #6EBD73",
"f$	c #5BB161",
"g$	c #4BA651",
"h$	c #3D9842",
"i$	c #217426",
"j$	c #2B8430",
"k$	c #3A9841",
"l$	c #5DB463",
"m$	c #69BE73",
"n$	c #8BC17C",
"o$	c #E9B86F",
"p$	c #DEAE68",
"q$	c #C6A066",
"r$	c #C6A36F",
"s$	c #D0B07D",
"t$	c #E3B574",
"u$	c #A68B51",
"v$	c #536542",
"w$	c #474A2D",
"x$	c #616540",
"y$	c #615738",
"z$	c #574C33",
"A$	c #5F6742",
"B$	c #5F6443",
"C$	c #42412A",
"D$	c #47422C",
"E$	c #5F5C3D",
"F$	c #6F8A5B",
"G$	c #82D38E",
"H$	c #75CA7E",
"I$	c #65B96B",
"J$	c #51AA57",
"K$	c #419D47",
"L$	c #318B37",
"M$	c #217727",
"N$	c #29852F",
"O$	c #3D9C44",
"P$	c #4EAA54",
"Q$	c #62B968",
"R$	c #70C47A",
"S$	c #91C582",
"T$	c #E8BA70",
"U$	c #ECBD72",
"V$	c #EFBF73",
"W$	c #E8B96E",
"X$	c #DFB069",
"Y$	c #E8B76F",
"Z$	c #A78750",
"`$	c #3A3824",
" %	c #525537",
".%	c #616C46",
"+%	c #572B19",
"@%	c #6D301A",
"#%	c #5A623F",
"$%	c #616A45",
"%%	c #524A31",
"&%	c #5C3E2A",
"*%	c #858058",
"=%	c #6A7048",
"-%	c #7C7A4F",
";%	c #74A066",
">%	c #67B86C",
",%	c #55B35C",
"'%	c #44A14A",
")%	c #318E37",
"!%	c #3E9F44",
"~%	c #4FAE56",
"{%	c #66BD6B",
"]%	c #78C87F",
"^%	c #90CD8D",
"/%	c #D2BA77",
"(%	c #EBB86E",
"_%	c #EABA6F",
":%	c #F3C075",
"<%	c #F0BE73",
"[%	c #E2B16A",
"}%	c #E3AF68",
"|%	c #A07A47",
"1%	c #535537",
"2%	c #666D43",
"3%	c #575836",
"4%	c #5E5E3C",
"5%	c #5F6645",
"6%	c #595F3E",
"7%	c #656A46",
"8%	c #43442E",
"9%	c #495133",
"0%	c #4E3E26",
"a%	c #722010",
"b%	c #5F4329",
"c%	c #5E7341",
"d%	c #57AF59",
"e%	c #45A84C",
"f%	c #2C8D32",
"g%	c #3BA042",
"h%	c #4FB156",
"i%	c #66BF6C",
"j%	c #7BCA80",
"k%	c #8CD696",
"l%	c #A3CF95",
"m%	c #D4A969",
"n%	c #E1B975",
"o%	c #B1935B",
"p%	c #675936",
"q%	c #686942",
"r%	c #7E502F",
"s%	c #785332",
"t%	c #42472E",
"u%	c #575C3B",
"v%	c #5F6A45",
"w%	c #606946",
"x%	c #5B6342",
"y%	c #606342",
"z%	c #646A48",
"A%	c #595E40",
"B%	c #525337",
"C%	c #57593A",
"D%	c #615B39",
"E%	c #706E45",
"F%	c #685F38",
"G%	c #568743",
"H%	c #43AC4C",
"I%	c #4CB454",
"J%	c #63C26A",
"K%	c #79CD7E",
"L%	c #8FD997",
"M%	c #A6D299",
"N%	c #D09C61",
"O%	c #CCBC86",
"P%	c #799577",
"Q%	c #353B2A",
"R%	c #5C6845",
"S%	c #566340",
"T%	c #575F3C",
"U%	c #5C2C19",
"V%	c #4A4128",
"W%	c #4D5938",
"X%	c #5E593B",
"Y%	c #722C19",
"Z%	c #67482D",
"`%	c #515C3B",
" &	c #4D4C30",
".&	c #606540",
"+&	c #5F633F",
"@&	c #767247",
"#&	c #6D6541",
"$&	c #566A37",
"%&	c #38A841",
"&&	c #43B04A",
"*&	c #5FC265",
"=&	c #74CE79",
"-&	c #8BD892",
";&	c #A0DB9F",
">&	c #BCCA94",
",&	c #C4DDAF",
"'&	c #A5CAAA",
")&	c #79885F",
"!&	c #474C32",
"~&	c #494B30",
"{&	c #5F6845",
"]&	c #575F3E",
"^&	c #584429",
"/&	c #4E462B",
"(&	c #536040",
"_&	c #6B6344",
":&	c #763320",
"<&	c #6D4F30",
"[&	c #6E6F47",
"}&	c #3C5244",
"|&	c #5B5936",
"1&	c #5F5D37",
"2&	c #747446",
"3&	c #6F4B2E",
"4&	c #724621",
"5&	c #53C15A",
"6&	c #6CCE73",
"7&	c #85D889",
"8&	c #97E09D",
"9&	c #AAE9B4",
"0&	c #B9ECC0",
"a&	c #CBF5CF",
"b&	c #99AB85",
"c&	c #9FAB71",
"d&	c #5D603D",
"e&	c #474A30",
"f&	c #595F3C",
"g&	c #56593A",
"h&	c #535136",
"i&	c #5C4C2E",
"j&	c #46422C",
"k&	c #3E432C",
"l&	c #5B492A",
"m&	c #6C6F56",
"n&	c #3F6969",
"o&	c #7C3A23",
"p&	c #6E5A36",
"q&	c #6C6B3F",
"r&	c #6F5C37",
"s&	c #795430",
"t&	c #5FCD66",
"u&	c #79D87F",
"v&	c #8CDF92",
"w&	c #A2E6A7",
"x&	c #B2EAB6",
"y&	c #C6F5C9",
"z&	c #B3D3AF",
"A&	c #8E9975",
"B&	c #707354",
"C&	c #5A593E",
"D&	c #525335",
"E&	c #686744",
"F&	c #69351C",
"G&	c #543B23",
"H&	c #4B5030",
"I&	c #564731",
"J&	c #496964",
"K&	c #416E6C",
"L&	c #5E4934",
"M&	c #70643B",
"N&	c #6D6B41",
"O&	c #6C7247",
"P&	c #747042",
"Q&	c #68D86E",
"R&	c #7CDF82",
"S&	c #92E697",
"T&	c #A3EBA8",
"U&	c #B4EEB7",
"V&	c #C2F5C5",
"W&	c #C9F2CE",
"X&	c #CEF4D4",
"Y&	c #C6DFC2",
"Z&	c #524F32",
"`&	c #5B3016",
" *	c #664124",
".*	c #595A3A",
"+*	c #575234",
"@*	c #88906A",
"#*	c #646E4E",
"$*	c #818F60",
"%*	c #95A876",
"&*	c #72845A",
"**	c #68683E",
"=*	c #797548",
"-*	c #68673E",
";*	c #5B522B",
">*	c #6EDF75",
",*	c #81E688",
"'*	c #91EA97",
")*	c #A2EEA7",
"!*	c #B0F2B4",
"~*	c #BDF6C1",
"{*	c #C4F9C9",
"]*	c #CCFACF",
"^*	c #A8C9A3",
"/*	c #ABAD89",
"(*	c #A3A27F",
"_*	c #8EA881",
":*	c #8BA279",
"<*	c #B4F2B9",
"[*	c #8BA773",
"}*	c #6C4423",
"|*	c #827E50",
"1*	c #848A5A",
"2*	c #665934",
"3*	c #7A4926",
"4*	c #655632",
"5*	c #7A7748",
"6*	c #7EEC86",
"7*	c #8AF090",
"8*	c #95F39C",
"9*	c #A3F6A8",
"0*	c #AAF6AF",
"a*	c #B2F8B7",
"b*	c #BCFFC1",
"c*	c #BAFFC5",
"d*	c #B8FFC2",
"e*	c #B2FFB9",
"f*	c #A9FDB1",
"g*	c #9CF9A3",
"h*	c #8FEC91",
"i*	c #806034",
"j*	c #74633E",
"k*	c #7C7A4C",
"l*	c #7A7448",
"m*	c #5E552D",
"n*	c #5D5B32",
"o*	c #675E32",
"p*	c #8CF693",
"q*	c #93F899",
"r*	c #9BFAA1",
"s*	c #9BFBA1",
"t*	c #9DFCA3",
"u*	c #9EFCA4",
"v*	c #9CFCA2",
"w*	c #9CFAA2",
"x*	c #97F99D",
"y*	c #8CF794",
"z*	c #6E6037",
"A*	c #74693B",
"                        . + @ # $ % &                           ",
"                    * = - ; > , ' ) ! ~ { ]                     ",
"                ^ / ( _ : < [ } | 1 | | 2 3 4 5                 ",
"              6 7 8 | 9 0 a b c d e f g h i j k l m             ",
"          n o p q r s t u v w x y z z A A A B C D E F           ",
"        G H I J K L M N O P Q R S T U U V W U W X Y Z `         ",
"         ...+.@.#.$.%.&.*.=.-.;.>.,.'.).!.~.{.].^./.(._.:.      ",
"      6 <.[.}.|.1.2.3.4.5.6.7.8.9.0.a.b.c.d.e.f.f.g.h.i.j.k.    ",
"    l.m.n.o.p.q.r.s.t.u.v.w.x.y.z.A.B.C.D.E.F.G.H.I.J.K.L.M.    ",
"    N.O.P.Q.R.S.T.U.V.W.X.Y.Z.`. +.+++@+#+$+%+&+*+=+-+;+>+,+'+  ",
"  )+!+~+{+]+^+/+(+_+:+<+[+}+|+1+2+3+4+5+6+7+8+9+0+a+b+c+d+e+f+  ",
"  g+h+i+j+k+l+m+n+o+p+q+r+;.s+t+u+v+w+x+y+z+A+B+C+D+E+F+G+H+I+  ",
"  J+K+L+M+N+O+P+Q+R+S+T+U+V+W+X+Y+Z+`+ @.@+@@@#@$@%@&@*@=@-@;@N.",
">@,@'@)@!@~@{@]@^@/@(@_@:@<@[@}@|@1@2@3@4@5@6@7@8@9@0@a@b@c@d@e@",
"f@g@h@i@j@k@l@m@n@o@p@q@r@s@t@u@v@w@x@y@z@A@B@C@D@E@F@G@H@I@J@K@",
"L@M@N@O@P@Q@R@S@T@U@V@W@X@Y@Z@`@ #.#+#@###$#%#&#*#=#-#;#>#,#'#)#",
"!#~#{#]#^#/#(#_#:#<#[#}#|#1#2#3#4#5#6#7#8#9#0#a#b#c#d#e#f#g#h#i#",
"j#k#l#m#n#o#p#q#r#s#t#u#v#w#x#y#z#A#B#C#D#E#F#G#H#I#J#K#L#M#N#O#",
"P#Q#R#S#T#U#V#W#X#Y#Z#`# $.$+$@$#$$$%$&$*$=$-$;$>$,$'$)$!$~${$'#",
"  ]$^$/$($_$:$<$[$}$|$1$2$3$4$5$6$7$8$9$0$a$b$c$d$8@e$f$g$h$l#i$",
"  j$k$g$l$m$n$o$p$q$r$s$t$u$v$w$x$y$z$A$B$C$D$E$F$G$H$I$J$K$L$M$",
"  N$O$P$Q$R$S$T$U$V$W$X$Y$Z$`$ %.%+%@%#%$%%%&%*%=%-%;%>%,%'%)%  ",
"    !%~%{%]%^%/%(%_%:%<%[%}%|%1%2%3%4%5%6%7%8%9%0%a%b%c%d%e%f%  ",
"    g%h%i%j%k%l%m%n%o%p%q%r%s%t%u%v%w%x%y%z%A%B%C%D%E%F%G%H%    ",
"      I%J%K%L%M%N%O%P%Q%t%R%S%T%U%V%W%X%Y%Z%`% &.&+&@&#&$&%&    ",
"      &&*&=&-&;&>&,&'&)&!&~&{&]&^&/&(&_&:&<&[&}&|&1&2&3&4&      ",
"        5&6&7&8&9&0&a&b&c&d&e&f&g&h&i&j&k&l&m&n&o&p&q&r&s&      ",
"          t&u&v&w&x&y&z&A&B&C&D&w%E&F&G&H&I&J&K&L&M&N&O&P&      ",
"            Q&R&S&T&U&V&W&X&Y&Z&`& *.*+*@*#*$*%*&***=*-*;*      ",
"              >*,*'*)*!*~*{*]*^*/*(*_*:*<*[*}*|*1*2*3*4*5*      ",
"                  6*7*8*9*0*a*b*c*d*e*f*g*h*i*j*k*l*m*n*o*      ",
"                      p*q*r*s*t*u*v*w*x*y*    z*A*              "};
