/* XPM */
static char * navy32_xpm[] = {
"32 32 779 2",
"  	c None",
". 	c #181B3F",
"+ 	c #494C67",
"@ 	c #595B74",
"# 	c #5B5D74",
"$ 	c #4A4C67",
"% 	c #1B1F42",
"& 	c #000028",
"* 	c #1A1D40",
"= 	c #555872",
"- 	c #A0A3B2",
"; 	c #D4D6DD",
"> 	c #FCFCFE",
", 	c #FFFFFF",
"' 	c #FBFCFD",
") 	c #D8DAE0",
"! 	c #A5A7B6",
"~ 	c #5C5E77",
"{ 	c #232548",
"] 	c #000022",
"^ 	c #4A4E6B",
"/ 	c #E1E1E7",
"( 	c #FEFFFF",
"_ 	c #FAFAFC",
": 	c #F5F6F8",
"< 	c #F5F5F8",
"[ 	c #F5F4F8",
"} 	c #F6F5F8",
"| 	c #F9FAFB",
"1 	c #E6E7EB",
"2 	c #656880",
"3 	c #03072F",
"4 	c #070A30",
"5 	c #70738B",
"6 	c #E4E5EB",
"7 	c #F7F7FA",
"8 	c #ECEDF2",
"9 	c #EAECF0",
"0 	c #EBECF0",
"a 	c #EBECF1",
"b 	c #EBEBF0",
"c 	c #EBEDF1",
"d 	c #F4F5F8",
"e 	c #F9F9FC",
"f 	c #9296A8",
"g 	c #0E1036",
"h 	c #000229",
"i 	c #02092F",
"j 	c #6E7089",
"k 	c #F6F7FA",
"l 	c #E6E7EE",
"m 	c #E0E1E8",
"n 	c #E0E2E9",
"o 	c #E1E2E7",
"p 	c #E0E2E8",
"q 	c #DFE1E8",
"r 	c #E0E1E9",
"s 	c #E3E4EA",
"t 	c #F1F3F7",
"u 	c #B0B3C1",
"v 	c #15173E",
"w 	c #00032B",
"x 	c #00042C",
"y 	c #4B506D",
"z 	c #D4D7E0",
"A 	c #DADCE4",
"B 	c #D5D7E1",
"C 	c #D5D8E1",
"D 	c #D5D7E0",
"E 	c #D4D7E1",
"F 	c #D5D8E4",
"G 	c #D7DAE8",
"H 	c #D4D8E6",
"I 	c #D5D7E3",
"J 	c #D6D6E1",
"K 	c #D5D6E1",
"L 	c #D5D6E0",
"M 	c #D6D7E1",
"N 	c #E9EBF0",
"O 	c #8F93A7",
"P 	c #02052E",
"Q 	c #02082E",
"R 	c #00042D",
"S 	c #1D2248",
"T 	c #C7C9D6",
"U 	c #D2D4DF",
"V 	c #C8CAD7",
"W 	c #C8CAD9",
"X 	c #C7CBDA",
"Y 	c #C6CADC",
"Z 	c #C5CBDF",
"` 	c #C5CCE0",
" .	c #C9CEDF",
"..	c #C8C7CE",
"+.	c #C1B8AE",
"@.	c #CAC1BB",
"#.	c #C3C4D1",
"$.	c #C3C8DA",
"%.	c #C7CCE0",
"&.	c #C7CBDD",
"*.	c #C7CBD9",
"=.	c #C8CBD8",
"-.	c #CACCD9",
";.	c #D2D4E0",
">.	c #4A4E6F",
",.	c #03092F",
"'.	c #030B31",
").	c #00002A",
"!.	c #515374",
"~.	c #C9CCDD",
"{.	c #BBC1D5",
"].	c #B8BED5",
"^.	c #B9BCCF",
"/.	c #BABAC4",
"(.	c #C2BABA",
"_.	c #C2B5AA",
":.	c #BEAB96",
"<.	c #A28C70",
"[.	c #A3855B",
"}.	c #564327",
"|.	c #A58F70",
"1.	c #CFBCA2",
"2.	c #CEBFAF",
"3.	c #BCAFA4",
"4.	c #C1B8B5",
"5.	c #BCBBC4",
"6.	c #B9BCCE",
"7.	c #B8BED4",
"8.	c #C2C7DA",
"9.	c #A8ACC2",
"0.	c #181D46",
"a.	c #01052E",
"b.	c #00022E",
"c.	c #000030",
"d.	c #000337",
"e.	c #898EAB",
"f.	c #B5B4C1",
"g.	c #B1A7A6",
"h.	c #BBA58B",
"i.	c #C5A173",
"j.	c #CA9D5E",
"k.	c #AF854A",
"l.	c #C19250",
"m.	c #7B5D31",
"n.	c #8A6633",
"o.	c #BB9C70",
"p.	c #B7925E",
"q.	c #897150",
"r.	c #C6B397",
"s.	c #DCCDB6",
"t.	c #3D2F19",
"u.	c #795A30",
"v.	c #C5995A",
"w.	c #C29E6D",
"x.	c #BEA890",
"y.	c #B1A7A5",
"z.	c #C1C2D0",
"A.	c #5C6386",
"B.	c #00002C",
"C.	c #000330",
"D.	c #292139",
"E.	c #433540",
"F.	c #6A5851",
"G.	c #B99D7A",
"H.	c #CEAB7B",
"I.	c #D5AB6E",
"J.	c #B88B48",
"K.	c #9E7A46",
"L.	c #BC9050",
"M.	c #A07A44",
"N.	c #AE874E",
"O.	c #A47F49",
"P.	c #C89A59",
"Q.	c #CAA56E",
"R.	c #CCA56C",
"S.	c #E2C69D",
"T.	c #C39450",
"U.	c #957648",
"V.	c #785D36",
"W.	c #A67E48",
"X.	c #9A7747",
"Y.	c #9F7D4E",
"Z.	c #977B4F",
"`.	c #C09F70",
" +	c #B39367",
".+	c #A38A70",
"++	c #503F41",
"@+	c #382D3E",
"#+	c #C99759",
"$+	c #C49657",
"%+	c #C19656",
"&+	c #C89C5A",
"*+	c #C89851",
"=+	c #D0AC74",
"-+	c #DCD3C6",
";+	c #A68E6A",
">+	c #E2CEAF",
",+	c #8D7C64",
"'+	c #9C7641",
")+	c #D7AA6A",
"!+	c #816439",
"~+	c #9B7644",
"{+	c #C59656",
"]+	c #C09557",
"^+	c #BB8D4D",
"/+	c #BF9559",
"(+	c #C09355",
"_+	c #BE914F",
":+	c #CC9C57",
"<+	c #95703B",
"[+	c #AA8A5C",
"}+	c #675F55",
"|+	c #9F9075",
"1+	c #979082",
"2+	c #655D4E",
"3+	c #F7E7CC",
"4+	c #D7AF72",
"5+	c #C19451",
"6+	c #BC9054",
"7+	c #B3884D",
"8+	c #C89254",
"9+	c #CA9452",
"0+	c #CB9957",
"a+	c #C99858",
"b+	c #C29151",
"c+	c #CEA570",
"d+	c #8E7759",
"e+	c #83673D",
"f+	c #E3CBA7",
"g+	c #BDA178",
"h+	c #B59972",
"i+	c #B89D76",
"j+	c #9F7A43",
"k+	c #BA935C",
"l+	c #C99F64",
"m+	c #C69B60",
"n+	c #CDAA75",
"o+	c #B5894B",
"p+	c #C09354",
"q+	c #C8A169",
"r+	c #C6A068",
"s+	c #C7A069",
"t+	c #BF9B67",
"u+	c #B49970",
"v+	c #7E5C2E",
"w+	c #7A5A2E",
"x+	c #B6905E",
"y+	c #C19F79",
"z+	c #A47B4B",
"A+	c #9E713E",
"B+	c #A8773E",
"C+	c #A7753A",
"D+	c #D29C5D",
"E+	c #D6A05C",
"F+	c #D19B5C",
"G+	c #DAA864",
"H+	c #AB7C4A",
"I+	c #723C1C",
"J+	c #A16A37",
"K+	c #D19B56",
"L+	c #C49254",
"M+	c #D0A266",
"N+	c #9D7C4A",
"O+	c #977441",
"P+	c #87683A",
"Q+	c #6B5A3D",
"R+	c #A68655",
"S+	c #CAA779",
"T+	c #ECD8BD",
"U+	c #9D8766",
"V+	c #68512D",
"W+	c #BB9154",
"X+	c #C89C5D",
"Y+	c #C19251",
"Z+	c #C08E4E",
"`+	c #B9874B",
" @	c #BD894A",
".@	c #9B6C3B",
"+@	c #6C4832",
"@@	c #4E2E24",
"#@	c #926536",
"$@	c #C48F4A",
"%@	c #BD8947",
"&@	c #976539",
"*@	c #A67341",
"=@	c #966237",
"-@	c #83502C",
";@	c #6E3C20",
">@	c #7F4D2A",
",@	c #C49155",
"'@	c #D19F5C",
")@	c #C79455",
"!@	c #C08C4F",
"~@	c #C49150",
"{@	c #C99754",
"]@	c #D1A15C",
"^@	c #C19353",
"/@	c #886739",
"(@	c #8D724A",
"_@	c #D4B285",
":@	c #CCA168",
"<@	c #B2874C",
"[@	c #C09153",
"}@	c #C08F52",
"|@	c #BC8A4D",
"1@	c #B17F46",
"2@	c #AE7B42",
"3@	c #B48247",
"4@	c #BD894B",
"5@	c #A57743",
"6@	c #724E38",
"7@	c #573B2F",
"8@	c #6B4728",
"9@	c #664729",
"0@	c #684B2B",
"a@	c #6C4F37",
"b@	c #513827",
"c@	c #462D22",
"d@	c #522F1E",
"e@	c #64331B",
"f@	c #733E20",
"g@	c #744121",
"h@	c #9D6B3D",
"i@	c #CE9C5B",
"j@	c #D4A05D",
"k@	c #C79459",
"l@	c #CB9959",
"m@	c #C39054",
"n@	c #C08D52",
"o@	c #C69457",
"p@	c #BA864B",
"q@	c #BF8947",
"r@	c #B68244",
"s@	c #B98549",
"t@	c #BA874A",
"u@	c #BA884D",
"v@	c #BB894D",
"w@	c #BE8A4F",
"x@	c #C38F4F",
"y@	c #B7864C",
"z@	c #845B38",
"A@	c #41241B",
"B@	c #381815",
"C@	c #2A1B18",
"D@	c #201211",
"E@	c #10090B",
"F@	c #221517",
"G@	c #72654C",
"H@	c #5F422D",
"I@	c #734A2C",
"J@	c #71462E",
"K@	c #7B4929",
"L@	c #683C21",
"M@	c #62351C",
"N@	c #5E2D18",
"O@	c #7F4D28",
"P@	c #A06E3E",
"Q@	c #AF7B47",
"R@	c #B7844B",
"S@	c #BE894E",
"T@	c #C18F54",
"U@	c #9C6E3F",
"V@	c #804D29",
"W@	c #AB7741",
"X@	c #B48046",
"Y@	c #BC894A",
"Z@	c #BB884B",
"`@	c #AB7944",
" #	c #AC7A43",
".#	c #A87540",
"+#	c #906034",
"@#	c #75503B",
"##	c #583C35",
"$#	c #35231E",
"%#	c #3B201B",
"&#	c #160D0D",
"*#	c #181110",
"=#	c #402621",
"-#	c #422920",
";#	c #655846",
">#	c #80613F",
",#	c #845F3E",
"'#	c #7B5D4C",
")#	c #784E36",
"!#	c #4A261E",
"~#	c #452016",
"{#	c #4E2A1A",
"]#	c #704021",
"^#	c #6F3D1E",
"/#	c #703F20",
"(#	c #754424",
"_#	c #764524",
":#	c #734122",
"<#	c #613119",
"[#	c #65371F",
"}#	c #6C3F24",
"|#	c #744525",
"1#	c #784927",
"2#	c #794A28",
"3#	c #714225",
"4#	c #69381F",
"5#	c #8F6437",
"6#	c #5B3724",
"7#	c #321B1A",
"8#	c #6F564B",
"9#	c #705445",
"0#	c #4E3122",
"a#	c #331D18",
"b#	c #160F0E",
"c#	c #161212",
"d#	c #4C2E1E",
"e#	c #564334",
"f#	c #5E4835",
"g#	c #8D7154",
"h#	c #AC8D60",
"i#	c #6B4533",
"j#	c #80583B",
"k#	c #96693D",
"l#	c #4E2818",
"m#	c #693C23",
"n#	c #663A22",
"o#	c #6A3C20",
"p#	c #643A21",
"q#	c #562E1B",
"r#	c #5D341F",
"s#	c #582F1D",
"t#	c #582E1B",
"u#	c #6B3C23",
"v#	c #6B3D22",
"w#	c #6C3E23",
"x#	c #6E4024",
"y#	c #744528",
"z#	c #A17844",
"A#	c #9F7745",
"B#	c #5C311A",
"C#	c #210D09",
"D#	c #4D2E20",
"E#	c #71472F",
"F#	c #55301C",
"G#	c #391F15",
"H#	c #3B231B",
"I#	c #291815",
"J#	c #372620",
"K#	c #715E47",
"L#	c #66533D",
"M#	c #7A5C3C",
"N#	c #E8B86A",
"O#	c #C3965D",
"P#	c #9A784C",
"Q#	c #AB7E48",
"R#	c #4D2B1C",
"S#	c #562F21",
"T#	c #3B1E1E",
"U#	c #62361F",
"V#	c #5A301A",
"W#	c #4F2717",
"X#	c #573627",
"Y#	c #5C4A3A",
"Z#	c #60442E",
"`#	c #60321A",
" $	c #603119",
".$	c #64351B",
"+$	c #67361E",
"@$	c #A06F3E",
"#$	c #D7AC66",
"$$	c #9D7D6F",
"%$	c #8F6F61",
"&$	c #774F3C",
"*$	c #6B3D28",
"=$	c #5F2F16",
"-$	c #612E14",
";$	c #643010",
">$	c #532C1D",
",$	c #67381B",
"'$	c #733E1B",
")$	c #363347",
"!$	c #6B4D35",
"~$	c #B3854D",
"{$	c #8D6B46",
"]$	c #503C29",
"^$	c #38231A",
"/$	c #2B1510",
"($	c #47291D",
"_$	c #4A2B22",
":$	c #62321E",
"<$	c #552A1A",
"[$	c #4A2317",
"}$	c #43231A",
"|$	c #49352E",
"1$	c #554231",
"2$	c #583C27",
"3$	c #5E3922",
"4$	c #6C4125",
"5$	c #5F341E",
"6$	c #B59454",
"7$	c #F1C56F",
"8$	c #C5AB6D",
"9$	c #837554",
"0$	c #B19769",
"a$	c #B4996B",
"b$	c #A2825D",
"c$	c #916E51",
"d$	c #855B3F",
"e$	c #6F4D37",
"f$	c #3B2836",
"g$	c #402528",
"h$	c #071455",
"i$	c #665B63",
"j$	c #D6A561",
"k$	c #D09F59",
"l$	c #987653",
"m$	c #3D374F",
"n$	c #2E232B",
"o$	c #261110",
"p$	c #260E0A",
"q$	c #2D0F08",
"r$	c #3F1A11",
"s$	c #3F1910",
"t$	c #522B20",
"u$	c #4F3529",
"v$	c #433429",
"w$	c #57402C",
"x$	c #624E36",
"y$	c #574632",
"z$	c #5A4028",
"A$	c #D0A957",
"B$	c #F5C162",
"C$	c #D8AC57",
"D$	c #9D8D52",
"E$	c #826F53",
"F$	c #908775",
"G$	c #D3B77B",
"H$	c #E6B468",
"I$	c #E0AC61",
"J$	c #897264",
"K$	c #0C1A5B",
"L$	c #1E2761",
"M$	c #5A5161",
"N$	c #D4A666",
"O$	c #E4AE60",
"P$	c #C89E6A",
"Q$	c #7B80A8",
"R$	c #7B82AC",
"S$	c #797892",
"T$	c #5E5B6F",
"U$	c #3C3C49",
"V$	c #322B34",
"W$	c #3C2B2C",
"X$	c #52322B",
"Y$	c #351B17",
"Z$	c #34201B",
"`$	c #695338",
" %	c #745B3D",
".%	c #876A48",
"+%	c #A88960",
"@%	c #C09A70",
"#%	c #C4A888",
"$%	c #BBA89A",
"%%	c #9F9CA8",
"&%	c #7F85AF",
"*%	c #7B80A9",
"=%	c #BE9B72",
"-%	c #DEAB62",
";%	c #E2AE61",
">%	c #806B62",
",%	c #0D1957",
"'%	c #D1A35F",
")%	c #E5B469",
"!%	c #D8A864",
"~%	c #D69E52",
"{%	c #A68D7C",
"]%	c #828CB9",
"^%	c #98A0C3",
"/%	c #A2A9CA",
"(%	c #A7ADCC",
"_%	c #A4A9C8",
":%	c #A4A6C4",
"<%	c #95878F",
"[%	c #6C492A",
"}%	c #684C2F",
"|%	c #C39251",
"1%	c #CEA16A",
"2%	c #AEABBB",
"3%	c #ABAFC8",
"4%	c #A1AACA",
"5%	c #9BA4C8",
"6%	c #97A1C7",
"7%	c #969CC1",
"8%	c #8892BD",
"9%	c #A39493",
"0%	c #DEAC5D",
"a%	c #DBAD68",
"b%	c #DEAC64",
"c%	c #C8985A",
"d%	c #181B50",
"e%	c #AC8E6C",
"f%	c #D6A965",
"g%	c #DAA860",
"h%	c #CD9C5F",
"i%	c #948891",
"j%	c #868EB8",
"k%	c #9BA1C1",
"l%	c #A4AAC7",
"m%	c #ABB0CB",
"n%	c #AFB3CD",
"o%	c #AFB5D4",
"p%	c #B6B7CB",
"q%	c #D4A66C",
"r%	c #D59E55",
"s%	c #DAA659",
"t%	c #C5AD94",
"u%	c #ABB3D6",
"v%	c #ADB2CE",
"w%	c #ADB2CD",
"x%	c #A7ACC8",
"y%	c #9FA5C3",
"z%	c #8D96BE",
"A%	c #9590A0",
"B%	c #CEA56A",
"C%	c #DCAF67",
"D%	c #DAA862",
"E%	c #A07D5C",
"F%	c #3D406F",
"G%	c #67667F",
"H%	c #656893",
"I%	c #6E78AB",
"J%	c #8990B7",
"K%	c #9FA4C4",
"L%	c #AAB0CC",
"M%	c #B5B8D1",
"N%	c #B9BDD3",
"O%	c #BAC0D9",
"P%	c #BFBBC5",
"Q%	c #CF9F5F",
"R%	c #D3A059",
"S%	c #D8A65B",
"T%	c #C9AA87",
"U%	c #BAC1DA",
"V%	c #BBBFD6",
"W%	c #BABED4",
"X%	c #B6B9D2",
"Y%	c #AEB3CE",
"Z%	c #A4A9C7",
"`%	c #9198BC",
" &	c #7A83B1",
".&	c #696D9B",
"+&	c #6A6684",
"@&	c #55557A",
"#&	c #162164",
"$&	c #273681",
"%&	c #495595",
"&&	c #6B73A6",
"*&	c #828AB5",
"=&	c #9CA1C3",
"-&	c #ABB0CD",
";&	c #B8BCD5",
">&	c #BFC2D9",
",&	c #C2C9E4",
"'&	c #CABAAF",
")&	c #D39B51",
"!&	c #D29F5A",
"~&	c #D3A058",
"{&	c #D3A467",
"]&	c #C7C8D9",
"^&	c #C3C7DE",
"/&	c #C0C3D9",
"(&	c #B9BED6",
"_&	c #AFB4CF",
":&	c #A1A7C7",
"<&	c #8C92BA",
"[&	c #757DAC",
"}&	c #56619C",
"|&	c #3A488D",
"1&	c #182673",
"2&	c #3A4586",
"3&	c #3B4689",
"4&	c #5F67A0",
"5&	c #767FAF",
"6&	c #9198BF",
"7&	c #A5AACB",
"8&	c #B5BBD4",
"9&	c #C0C3DA",
"0&	c #C7CBE2",
"a&	c #CBC8CF",
"b&	c #D6AC72",
"c&	c #DBA860",
"d&	c #D9A75C",
"e&	c #D5B893",
"f&	c #CBD0E5",
"g&	c #C7CBDF",
"h&	c #C1C5DB",
"i&	c #B8BDD6",
"j&	c #AAAFCD",
"k&	c #989EC3",
"l&	c #7F87B5",
"m&	c #676FA6",
"n&	c #4E5896",
"o&	c #323D82",
"p&	c #4C5695",
"q&	c #475296",
"r&	c #666FA8",
"s&	c #828AB8",
"t&	c #979DC5",
"u&	c #AAB0D0",
"v&	c #B8BCD7",
"w&	c #C2C7DD",
"x&	c #C7CDE4",
"y&	c #CDCFDC",
"z&	c #D2CECD",
"A&	c #D3CFD0",
"B&	c #CDD0E2",
"C&	c #C8CCE2",
"D&	c #C3C7DD",
"E&	c #BABFD9",
"F&	c #AEB3D2",
"G&	c #9CA2C7",
"H&	c #8990BC",
"I&	c #6E77AC",
"J&	c #58629F",
"K&	c #3B458C",
"L&	c #545F9F",
"M&	c #4B569B",
"N&	c #6872AD",
"O&	c #8089BA",
"P&	c #969DC7",
"Q&	c #A6ACCF",
"R&	c #B4B9D7",
"S&	c #BCC1DB",
"T&	c #C3C8E1",
"U&	c #C4CAE5",
"V&	c #C3C8E0",
"W&	c #BEC1DB",
"X&	c #B6BAD8",
"Y&	c #A9AFD1",
"Z&	c #99A1C8",
"`&	c #858DBD",
" *	c #727BB1",
".*	c #5B65A4",
"+*	c #3C4892",
"@*	c #5B66A8",
"#*	c #636EAD",
"$*	c #7C85BB",
"%*	c #8F98C5",
"&*	c #9FA6CE",
"**	c #A8AED2",
"=*	c #AFB5D7",
"-*	c #B2B8D9",
";*	c #B3B8D8",
">*	c #B1B6D7",
",*	c #A9AFD2",
"'*	c #A0A6CE",
")*	c #929AC7",
"!*	c #828BBE",
"~*	c #6F79B3",
"{*	c #5963A7",
"]*	c #3A4695",
"^*	c #7A84BB",
"/*	c #616CB0",
"(*	c #6873B4",
"_*	c #7883BE",
":*	c #858DC4",
"<*	c #8F97C9",
"[*	c #929BCB",
"}*	c #939BCB",
"|*	c #9097C9",
"1*	c #8891C5",
"2*	c #7E88C0",
"3*	c #717BB9",
"4*	c #606BB0",
"5*	c #4653A2",
"6*	c #737DBD",
"7*	c #757FBE",
"8*	c #737DBF",
"9*	c #737EBF",
"0*	c #727CBE",
"a*	c #717BBD",
"b*	c #6975B9",
"c*	c #5E6AB4",
"d*	c #525FAD",
"                          . + @ # $ % &                         ",
"                    * = - ; > , , ' ) ! ~ {                     ",
"                ] ^ / ( , _ : < [ } | , , 1 2 3                 ",
"              4 5 6 7 8 9 0 0 a b b 0 0 c d e f g h             ",
"          i ] j k l m n o p q m m r m m p q s t u v w           ",
"        i x y z A B C B B D E F G H I B J K L M N O P Q         ",
"        R S T U V W X Y Z `  ...+.@.#.$.%.&.*.=.-.;.>.& ,.      ",
"      '.).!.~.{.].^./.(._.:.<.[.}.|.1.2.3.4.5.6.7.8.9.0.a.      ",
"    b.c.d.e.f.g.h.i.j.k.l.m.n.o.p.q.r.s.t.u.v.w.x.y.z.A.B.C.    ",
"    D.E.F.G.H.I.J.K.L.M.N.O.P.Q.R.S.T.U.V.W.X.Y.Z.`. +.+++@+    ",
"#+$+%+&+*+=+-+;+>+,+'+)+!+~+{+]+^+/+(+_+:+<+[+}+|+1+2+3+4+5+6+7+",
"8+9+0+a+b+c+d+e+f+g+h+i+j+k+l+m+n+o+p+q+r+s+t+u+v+w+x+y+z+A+B+C+",
"D+E+F+G+H+I+J+K+L+M+N+O+P+Q+R+S+T+U+V+W+X+m+Y+Z+`+ @.@+@@@#@$@%@",
"&@*@=@-@;@>@,@'@)@!@~@{@]@^@/@(@_@:@<@[@}@|@1@2@3@4@5@6@7@8@9@0@",
"a@b@c@d@e@f@g@h@i@j@k@l@m@n@o@p@q@r@s@t@u@v@w@x@y@z@A@B@C@D@E@F@",
"G@H@I@J@K@L@M@N@O@P@Q@R@S@T@U@V@W@X@Y@Z@`@ #.#+#@###$#%#&#*#=#-#",
";#>#,#'#)#!#~#{#]#^#/#(#_#:#<#[#}#|#1#2#3#4#5#6#7#8#9#0#a#b#c#d#",
"e#f#g#h#i#j#k#l#m#n#o#p#q#r#s#t#u#v#w#x#y#z#A#B#C#D#E#F#G#H#I#J#",
"K#L#M#N#O#P#Q#R#S#T#U#V#W#X#Y#Z#`# $.$+$@$#$$$%$&$*$=$-$;$>$,$'$",
"  )$!$~${$]$^$/$($_$:$<$[$}$|$1$2$3$4$5$6$7$8$9$0$a$b$c$d$e$f$g$",
"  h$i$j$k$l$m$n$o$p$q$r$s$t$u$v$w$x$y$z$A$B$C$D$E$F$G$H$I$J$K$  ",
"  L$M$N$O$P$Q$R$S$T$U$V$W$X$Y$Z$`$ %.%+%@%#%$%%%&%*%=%-%;%>%,%  ",
"    '%)%!%~%{%]%^%/%(%_%:%<%[%}%|%1%2%3%4%5%6%7%8%9%0%a%b%c%d%  ",
"    e%f%g%h%i%j%k%l%m%n%o%p%q%r%s%t%u%v%w%m%x%y%z%A%B%C%D%E%    ",
"      F%G%H%I%J%K%L%M%N%O%P%Q%R%S%T%U%V%W%X%Y%Z%`% &.&+&@&#&    ",
"        $&%&&&*&=&-&;&>&,&'&)&!&~&{&]&^&/&(&_&:&<&[&}&|&1&      ",
"        2&3&4&5&6&7&8&9&0&a&b&c&d&e&f&g&h&i&j&k&l&m&n&o&        ",
"          p&q&r&s&t&u&v&w&x&y&z&A&B&C&D&E&F&G&H&I&J&K&          ",
"            L&M&N&O&P&Q&R&S&T&U&U&V&W&X&Y&Z&`& *.*+*            ",
"                @*#*$*%*&***=*-*;*>*,*'*)*!*~*{*]*              ",
"                  ^*/*(*_*:*<*[*}*|*1*2*3*4*5*                  ",
"                        6*7*8*9*0*a*b*c*d*                      "};
