/* XPM */
static char * purple32_xpm[] = {
"32 32 830 2",
"  	c None",
". 	c #35164D",
"+ 	c #401E60",
"@ 	c #432660",
"# 	c #452962",
"$ 	c #3E1E5C",
"% 	c #2E084E",
"& 	c #68163B",
"* 	c #600C0C",
"= 	c #000000",
"- 	c #0E0E16",
"; 	c #BBB5C0",
"> 	c #EFECF2",
", 	c #F0EEF3",
"' 	c #E4E0E9",
") 	c #C0B4CA",
"! 	c #947FA5",
"~ 	c #62457A",
"{ 	c #3C175A",
"] 	c #28024F",
"^ 	c #341F5A",
"/ 	c #880C0C",
"( 	c #420003",
"_ 	c #171511",
": 	c #3F2D18",
"< 	c #B5B3AD",
"[ 	c #FFFFFF",
"} 	c #FBF9FC",
"| 	c #FCFBFE",
"1 	c #FDFCFE",
"2 	c #D7CFDE",
"3 	c #63457D",
"4 	c #29014A",
"5 	c #391355",
"6 	c #7A4F64",
"7 	c #B5988A",
"8 	c #724745",
"9 	c #1B0000",
"0 	c #1C160E",
"a 	c #654723",
"b 	c #AC9D90",
"c 	c #F3EDEF",
"d 	c #F1EDF5",
"e 	c #F2EDF6",
"f 	c #F2EEF6",
"g 	c #F4F0F7",
"h 	c #FCFAFE",
"i 	c #F1ECF4",
"j 	c #937CA5",
"k 	c #310A52",
"l 	c #2C064D",
"m 	c #310C4F",
"n 	c #240047",
"o 	c #74578C",
"p 	c #F8EEEA",
"q 	c #A69991",
"r 	c #000206",
"s 	c #020607",
"t 	c #2A2623",
"u 	c #1B1817",
"v 	c #201F1E",
"w 	c #DDD5DE",
"x 	c #EEE7F4",
"y 	c #E9E2F0",
"z 	c #EAE2EF",
"A 	c #E9E2EF",
"B 	c #EBE3F0",
"C 	c #F2EEFC",
"D 	c #FEFCFF",
"E 	c #BBA7C8",
"F 	c #3F165D",
"G 	c #310D50",
"H 	c #2F0750",
"I 	c #613F7C",
"J 	c #D9CDE2",
"K 	c #F8F2FF",
"L 	c #888593",
"M 	c #43382E",
"N 	c #A89078",
"O 	c #E7C7A4",
"P 	c #B49C7E",
"Q 	c #6D686E",
"R 	c #E7DCF0",
"S 	c #E4D9EC",
"T 	c #E2D8EA",
"U 	c #E2D9EB",
"V 	c #DFD5E8",
"W 	c #CABBBC",
"X 	c #C0B0B2",
"Y 	c #9C9C95",
"Z 	c #6D5265",
"` 	c #340A57",
" .	c #300C4F",
"..	c #310851",
"+.	c #492268",
"@.	c #D6C9E1",
"#.	c #E3D6EB",
"$.	c #D0BECF",
"%.	c #CFB6BC",
"&.	c #EAC9A8",
"*.	c #FED8B4",
"=.	c #F9D4A8",
"-.	c #AC9786",
";.	c #C8BCD7",
">.	c #DDCFE9",
",.	c #D7C9E3",
"'.	c #D8CAE4",
").	c #D7C9E2",
"!.	c #E6D8F3",
"~.	c #938999",
"{.	c #100A04",
"].	c #0A0300",
"^.	c #57494A",
"/.	c #724E89",
"(.	c #2D0350",
"_.	c #310C52",
":.	c #330D52",
"<.	c #2D0151",
"[.	c #7C5F98",
"}.	c #E2D5F1",
"|.	c #AE9EA3",
"1.	c #917466",
"2.	c #C69E90",
"3.	c #EECBA8",
"4.	c #E7C5A3",
"5.	c #DCC0B6",
"6.	c #CEBBD6",
"7.	c #D1C0E2",
"8.	c #CFBCDD",
"9.	c #CFBCDE",
"0.	c #CFBDDE",
"a.	c #CFBDDF",
"b.	c #DBC9EF",
"c.	c #4E4753",
"d.	c #000101",
"e.	c #313C38",
"f.	c #2B3B35",
"g.	c #493C3E",
"h.	c #C3AACB",
"i.	c #48226A",
"j.	c #300951",
"k.	c #360E53",
"l.	c #330E51",
"m.	c #300856",
"n.	c #421B6C",
"o.	c #C1AACD",
"p.	c #B9A6B4",
"q.	c #8A8574",
"r.	c #605E52",
"s.	c #806D63",
"t.	c #DAB39E",
"u.	c #A78D7F",
"v.	c #B9A5CE",
"w.	c #C7B0DE",
"x.	c #C4ADD7",
"y.	c #C4ACD6",
"z.	c #C3ACD7",
"A.	c #C5AED7",
"B.	c #C9ABB7",
"C.	c #554431",
"D.	c #090B0D",
"E.	c #1B2020",
"F.	c #040706",
"G.	c #564D5A",
"H.	c #DFCDED",
"I.	c #8D70A6",
"J.	c #300554",
"K.	c #340F54",
"L.	c #320B55",
"M.	c #491D5B",
"N.	c #734F70",
"O.	c #8D6B77",
"P.	c #876C5A",
"Q.	c #90917C",
"R.	c #837D6C",
"S.	c #7C7161",
"T.	c #D7B39C",
"U.	c #AA927C",
"V.	c #827883",
"W.	c #BCA1D3",
"X.	c #BB9FD2",
"Y.	c #BA9FD1",
"Z.	c #BA9ED0",
"`.	c #BB9FD0",
" +	c #BBA0CC",
".+	c #C9A7BE",
"++	c #6F5D68",
"@+	c #302C38",
"#+	c #C9B3DB",
"$+	c #A78CBD",
"%+	c #3B0E60",
"&+	c #360E58",
"*+	c #391A56",
"=+	c #320D52",
"-+	c #3C1361",
";+	c #9F6F62",
">+	c #D14A39",
",+	c #973C39",
"'+	c #858A70",
")+	c #9D9B84",
"!+	c #A8A189",
"~+	c #9F9780",
"{+	c #CCB390",
"]+	c #E6C7A2",
"^+	c #A0997A",
"/+	c #9B8AA4",
"(+	c #B391CF",
"_+	c #B191CB",
":+	c #B192CB",
"<+	c #B394D2",
"[+	c #AB8DC1",
"}+	c #63554D",
"|+	c #413A2F",
"1+	c #27251F",
"2+	c #544A63",
"3+	c #BB9CD7",
"4+	c #B397CA",
"5+	c #4F2474",
"6+	c #390D5D",
"7+	c #350E55",
"8+	c #310B57",
"9+	c #6C4162",
"0+	c #BD8258",
"a+	c #D10C06",
"b+	c #CD1614",
"c+	c #887668",
"d+	c #A0A087",
"e+	c #928C78",
"f+	c #9B8F7C",
"g+	c #967363",
"h+	c #A38C76",
"i+	c #D4A585",
"j+	c #946C79",
"k+	c #AA8BCC",
"l+	c #AA88C8",
"m+	c #AB88C8",
"n+	c #AB88C7",
"o+	c #AB87C6",
"p+	c #A987C6",
"q+	c #AB87CB",
"r+	c #CBABBB",
"s+	c #D2AE87",
"t+	c #B97956",
"u+	c #BD6852",
"v+	c #AC9287",
"w+	c #AA95C4",
"x+	c #683E8B",
"y+	c #3C0F62",
"z+	c #371059",
"A+	c #3C135B",
"B+	c #765C7E",
"C+	c #826B86",
"D+	c #A53A4A",
"E+	c #D63532",
"F+	c #AD9483",
"G+	c #A0A28B",
"H+	c #B49B8B",
"I+	c #BD8E7C",
"J+	c #854449",
"K+	c #8A3F41",
"L+	c #94302B",
"M+	c #7E6361",
"N+	c #A283C0",
"O+	c #A57FC7",
"P+	c #A47EC4",
"Q+	c #A47FC4",
"R+	c #A180BD",
"S+	c #718A78",
"T+	c #5E9A74",
"U+	c #6A9D7C",
"V+	c #7AA573",
"W+	c #678960",
"X+	c #877486",
"Y+	c #7E53A3",
"Z+	c #43146A",
"`+	c #3D1260",
" @	c #3D165C",
".@	c #431660",
"+@	c #451F62",
"@@	c #876B8F",
"#@	c #967B9D",
"$@	c #A07C68",
"%@	c #BA856B",
"&@	c #9D9582",
"*@	c #93927E",
"=@	c #90827A",
"-@	c #9B8778",
";@	c #B18E78",
">@	c #D9A685",
",@	c #CEA187",
"'@	c #908571",
")@	c #9977B1",
"!@	c #A37AC8",
"~@	c #A27BC3",
"{@	c #A17BC3",
"]@	c #A27BC2",
"^@	c #A17CC2",
"/@	c #A37BC8",
"(@	c #947BA0",
"_@	c #7D8F73",
":@	c #6D9E83",
"<@	c #5E9B7F",
"[@	c #60957B",
"}@	c #877B70",
"|@	c #8E857F",
"1@	c #7F5A9D",
"2@	c #4A1874",
"3@	c #401465",
"4@	c #421962",
"5@	c #320B58",
"6@	c #552E6E",
"7@	c #AC8EA2",
"8@	c #B5968C",
"9@	c #AD6D56",
"0@	c #AB825E",
"a@	c #908C70",
"b@	c #888777",
"c@	c #828371",
"d@	c #8B7569",
"e@	c #BD4137",
"f@	c #AE9775",
"g@	c #B9AC89",
"h@	c #8A827B",
"i@	c #9E76BD",
"j@	c #A078C4",
"k@	c #9F77C1",
"l@	c #A077C2",
"m@	c #A177C2",
"n@	c #A178C3",
"o@	c #9F76C1",
"p@	c #9B7F7A",
"q@	c #9F8C70",
"r@	c #7A9781",
"s@	c #6AAA87",
"t@	c #6D9E81",
"u@	c #917369",
"v@	c #8D8875",
"w@	c #6C6E87",
"x@	c #541D7E",
"y@	c #47196D",
"z@	c #3C135F",
"A@	c #370D5E",
"B@	c #593074",
"C@	c #BE9F7F",
"D@	c #BF9863",
"E@	c #BA726E",
"F@	c #A37257",
"G@	c #82826D",
"H@	c #868375",
"I@	c #828372",
"J@	c #8A6D64",
"K@	c #A52920",
"L@	c #725D51",
"M@	c #737669",
"N@	c #8A7F82",
"O@	c #A378C6",
"P@	c #A178C4",
"Q@	c #A179C3",
"R@	c #A178C5",
"S@	c #A078C2",
"T@	c #99837A",
"U@	c #8E957A",
"V@	c #6C937C",
"W@	c #5FA182",
"X@	c #629B7A",
"Y@	c #7D8269",
"Z@	c #8E7B6A",
"`@	c #6E887D",
" #	c #5D2A83",
".#	c #4B1B73",
"+#	c #411665",
"@#	c #3C1164",
"##	c #53236C",
"$#	c #B88453",
"%#	c #C7A38E",
"&#	c #CAA9A4",
"*#	c #B1775F",
"=#	c #8F8772",
"-#	c #8E8A7C",
";#	c #898776",
">#	c #80726F",
",#	c #826273",
"'#	c #69635B",
")#	c #747362",
"!#	c #998D8A",
"~#	c #A57BC9",
"{#	c #A47BCA",
"]#	c #A37BC5",
"^#	c #A47CC7",
"/#	c #A179C2",
"(#	c #6E8D83",
"_#	c #66A782",
":#	c #659D7E",
"<#	c #6D7A56",
"[#	c #987B56",
"}#	c #97775A",
"|#	c #AE884C",
"1#	c #BD9647",
"2#	c #8D6266",
"3#	c #4E1D7D",
"4#	c #431769",
"5#	c #3C0E68",
"6#	c #5D2D73",
"7#	c #8A805D",
"8#	c #A39074",
"9#	c #AF8995",
"0#	c #AE8D74",
"a#	c #A29D87",
"b#	c #9A9785",
"c#	c #7A796B",
"d#	c #838175",
"e#	c #989587",
"f#	c #92917C",
"g#	c #7C7B6A",
"h#	c #8D8A74",
"i#	c #AB95A3",
"j#	c #A37FBD",
"k#	c #AB83BA",
"l#	c #A982BA",
"m#	c #A680C8",
"n#	c #A880D0",
"o#	c #A480C9",
"p#	c #6B9987",
"q#	c #5FA985",
"r#	c #708F70",
"s#	c #986E44",
"t#	c #AE8262",
"u#	c #AC8160",
"v#	c #C39553",
"w#	c #B99055",
"x#	c #9E775F",
"y#	c #542181",
"z#	c #47196E",
"A#	c #5A2F68",
"B#	c #906E6B",
"C#	c #868473",
"D#	c #7C6A6A",
"E#	c #825D6E",
"F#	c #A89073",
"G#	c #A8A690",
"H#	c #A29E8A",
"I#	c #7F7F71",
"J#	c #777A6B",
"K#	c #9CA18D",
"L#	c #8A8C7D",
"M#	c #7C7864",
"N#	c #908264",
"O#	c #B89A63",
"P#	c #B18C5C",
"Q#	c #A8824F",
"R#	c #AE9065",
"S#	c #C49B77",
"T#	c #C19286",
"U#	c #A48BA6",
"V#	c #5C9884",
"W#	c #6D8C73",
"X#	c #79816A",
"Y#	c #A18258",
"Z#	c #B58A6F",
"`#	c #B79180",
" $	c #AD877A",
".$	c #9B7779",
"+$	c #8E6860",
"@$	c #63337E",
"#$	c #481874",
"$$	c #B19186",
"%$	c #978180",
"&$	c #867B84",
"*$	c #725C77",
"=$	c #67497C",
"-$	c #8D7E81",
";$	c #B5AF93",
">$	c #928D7A",
",$	c #827D6A",
"'$	c #95886E",
")$	c #AD976D",
"!$	c #BDA373",
"~$	c #B89663",
"{$	c #C29B63",
"]$	c #9A7B4F",
"^$	c #B1874C",
"/$	c #BD9253",
"($	c #C49B5E",
"_$	c #B78E4E",
":$	c #BB9754",
"<$	c #79956E",
"[$	c #7C816C",
"}$	c #99776D",
"|$	c #B27A66",
"1$	c #E78352",
"2$	c #B7865C",
"3$	c #AF8A73",
"4$	c #B18871",
"5$	c #916D6A",
"6$	c #9B7460",
"7$	c #824B71",
"8$	c #46157A",
"9$	c #998693",
"0$	c #8C727A",
"a$	c #9F6055",
"b$	c #875A63",
"c$	c #715576",
"d$	c #938F80",
"e$	c #B1AC90",
"f$	c #B1AC94",
"g$	c #797668",
"h$	c #322D27",
"i$	c #554534",
"j$	c #816848",
"k$	c #94764D",
"l$	c #B58D55",
"m$	c #BB9157",
"n$	c #C39758",
"o$	c #C79B5B",
"p$	c #C89A5A",
"q$	c #CF9A5A",
"r$	c #909A6F",
"s$	c #67917A",
"t$	c #928572",
"u$	c #8E6F5A",
"v$	c #87674E",
"w$	c #E7734C",
"x$	c #ED7645",
"y$	c #B18A60",
"z$	c #9E754F",
"A$	c #C8924C",
"B$	c #F48B43",
"C$	c #A74A61",
"D$	c #43157F",
"E$	c #965C4D",
"F$	c #A24536",
"G$	c #A4625A",
"H$	c #8F776E",
"I$	c #7E7B6B",
"J$	c #898A75",
"K$	c #B1AC93",
"L$	c #AFAC94",
"M$	c #757465",
"N$	c #1D1E21",
"O$	c #23252A",
"P$	c #1D1E25",
"Q$	c #1C1B1B",
"R$	c #352E27",
"S$	c #625138",
"T$	c #735C3B",
"U$	c #95794F",
"V$	c #AC8859",
"W$	c #987F54",
"X$	c #60997C",
"Y$	c #6F816B",
"Z$	c #968C7B",
"`$	c #979281",
" %	c #A66F48",
".%	c #AC5E34",
"+%	c #FB552E",
"@%	c #F76834",
"#%	c #BE7B4C",
"$%	c #A3855E",
"%%	c #EB6234",
"&%	c #A73954",
"*%	c #96150F",
"=%	c #A7917D",
"-%	c #98A08C",
";%	c #858875",
">%	c #91917E",
",%	c #818071",
"'%	c #989480",
")%	c #97937F",
"!%	c #67655A",
"~%	c #161717",
"{%	c #1E1D1E",
"]%	c #1F1E1F",
"^%	c #171818",
"/%	c #0D0F12",
"(%	c #080A0C",
"_%	c #171B1D",
":%	c #2C302F",
"<%	c #3A4640",
"[%	c #58947B",
"}%	c #5A9D81",
"|%	c #70806C",
"1%	c #95685F",
"2%	c #B97A5E",
"3%	c #967541",
"4%	c #E14925",
"5%	c #F14A25",
"6%	c #A77150",
"7%	c #A07C52",
"8%	c #A17454",
"9%	c #766462",
"0%	c #927A69",
"a%	c #A6AE96",
"b%	c #A4A58E",
"c%	c #959481",
"d%	c #767668",
"e%	c #6D6C60",
"f%	c #777465",
"g%	c #8A8777",
"h%	c #5D5D51",
"i%	c #121311",
"j%	c #201F1F",
"k%	c #252526",
"l%	c #20211F",
"m%	c #191918",
"n%	c #141212",
"o%	c #252D27",
"p%	c #676254",
"q%	c #8F8773",
"r%	c #7C9B84",
"s%	c #5D9C7F",
"t%	c #63A286",
"u%	c #609C7F",
"v%	c #836C63",
"w%	c #CA563C",
"x%	c #A65C37",
"y%	c #C36139",
"z%	c #C96D3F",
"A%	c #96765C",
"B%	c #A3724D",
"C%	c #8F7959",
"D%	c #5C9375",
"E%	c #798E77",
"F%	c #9A8E78",
"G%	c #939281",
"H%	c #8A8B78",
"I%	c #807F6C",
"J%	c #787B65",
"K%	c #80836A",
"L%	c #7B7B64",
"M%	c #767967",
"N%	c #6F6E65",
"O%	c #5E565A",
"P%	c #20201F",
"Q%	c #1E1F1E",
"R%	c #1C1D1B",
"S%	c #151714",
"T%	c #0F0C0A",
"U%	c #476B58",
"V%	c #82846F",
"W%	c #8A7563",
"X%	c #868E7D",
"Y%	c #7D9485",
"Z%	c #619F84",
"`%	c #5AA183",
" &	c #857E78",
".&	c #C9594A",
"+&	c #B84E2A",
"@&	c #A87143",
"#&	c #BE6638",
"$&	c #A5704B",
"%&	c #997748",
"&&	c #A27D52",
"*&	c #A25738",
"=&	c #8F7769",
"-&	c #98715B",
";&	c #8D7461",
">&	c #88705C",
",&	c #846074",
"'&	c #7A5284",
")&	c #816291",
"!&	c #877290",
"~&	c #887291",
"{&	c #BFA0D4",
"]&	c #C6ABDA",
"^&	c #272528",
"/&	c #1E1D1D",
"(&	c #9C90A6",
"_&	c #93899C",
":&	c #685D6A",
"<&	c #5A766C",
"[&	c #52947A",
"}&	c #6B7967",
"|&	c #A17773",
"1&	c #A88681",
"2&	c #818D84",
"3&	c #549B7E",
"4&	c #8A8278",
"5&	c #B66864",
"6&	c #95673F",
"7&	c #A96340",
"8&	c #E73D21",
"9&	c #DC512B",
"0&	c #C06A39",
"a&	c #9D7752",
"b&	c #BF5D3C",
"c&	c #A5684C",
"d&	c #8032C5",
"e&	c #9453CB",
"f&	c #4A3B58",
"g&	c #48473D",
"h&	c #5B4F65",
"i&	c #BFA1D9",
"j&	c #3E3842",
"k&	c #2C2A2C",
"l&	c #D1BFDF",
"m&	c #F5E1FF",
"n&	c #FBE9FF",
"o&	c #A49AB2",
"p&	c #4E7B5F",
"q&	c #6E927D",
"r&	c #937772",
"s&	c #B0947F",
"t&	c #977F7B",
"u&	c #5A8D77",
"v&	c #7C8878",
"w&	c #C1676B",
"x&	c #BA613D",
"y&	c #CD5938",
"z&	c #AD6F50",
"A&	c #BC6352",
"B&	c #B8675A",
"C&	c #9E7B63",
"D&	c #899376",
"E&	c #769D7D",
"F&	c #893FC5",
"G&	c #7A4D9E",
"H&	c #725486",
"I&	c #8F6CAC",
"J&	c #C9A1EC",
"K&	c #C8A9E1",
"L&	c #C5ACD9",
"M&	c #E3CBF7",
"N&	c #DFCAEA",
"O&	c #E2CAC1",
"P&	c #A38F88",
"Q&	c #453B25",
"R&	c #858669",
"S&	c #A4888A",
"T&	c #A7897D",
"U&	c #9A877E",
"V&	c #85A482",
"W&	c #829F7D",
"X&	c #B84D50",
"Y&	c #A73A30",
"Z&	c #938A69",
"`&	c #7CB58D",
" *	c #888E80",
".*	c #989085",
"+*	c #987E68",
"@*	c #85715E",
"#*	c #90A17B",
"$*	c #9342D6",
"%*	c #A863E3",
"&*	c #B77CE9",
"**	c #BC88E6",
"=*	c #CB9FEF",
"-*	c #D5B0F4",
";*	c #D9BBFB",
">*	c #D1B2C3",
",*	c #C3A246",
"'*	c #A0A364",
")*	c #9FAA6E",
"!*	c #A0B17B",
"~*	c #8F9D84",
"{*	c #949677",
"]*	c #97AE7B",
"^*	c #A3BD80",
"/*	c #848968",
"(*	c #9A3F3E",
"_*	c #C60000",
":*	c #B81B13",
"<*	c #A66245",
"[*	c #A28471",
"}*	c #A68E7D",
"|*	c #A07F6D",
"1*	c #8A7460",
"2*	c #AEB484",
"3*	c #8E38D5",
"4*	c #A35BE0",
"5*	c #B274E6",
"6*	c #BE88EB",
"7*	c #C695EF",
"8*	c #CEA4F5",
"9*	c #CEA7E2",
"0*	c #BE9D79",
"a*	c #C68F7B",
"b*	c #C8856A",
"c*	c #BC6142",
"d*	c #AB6D56",
"e*	c #A6AF96",
"f*	c #A6A694",
"g*	c #9EA682",
"h*	c #817657",
"i*	c #8D6256",
"j*	c #B02825",
"k*	c #B70005",
"l*	c #AD2017",
"m*	c #AB9B7B",
"n*	c #ACAA94",
"o*	c #999275",
"p*	c #9E9875",
"q*	c #BDA382",
"r*	c #973CE3",
"s*	c #AC60EB",
"t*	c #B978EF",
"u*	c #C288F2",
"v*	c #C691F8",
"w*	c #CB97F8",
"x*	c #CA92DE",
"y*	c #CB78B3",
"z*	c #C7659C",
"A*	c #C783D9",
"B*	c #C68EF6",
"C*	c #BF7FF3",
"D*	c #AE68E9",
"E*	c #9758B3",
"F*	c #886F65",
"G*	c #9C8C5C",
"H*	c #AC482E",
"I*	c #B2281C",
"J*	c #C15942",
"K*	c #C97465",
"L*	c #D08178",
"M*	c #E5838A",
"N*	c #F0828B",
"O*	c #AA52F4",
"P*	c #B261F6",
"Q*	c #B86CFA",
"R*	c #BD74FE",
"S*	c #BB79FF",
"T*	c #BA79FF",
"U*	c #B668FD",
"V*	c #AE57F4",
"W*	c #A244F0",
"X*	c #BC7143",
"Y*	c #C04E2E",
"Z*	c #D45644",
"`*	c #DE776C",
" =	c #CD856D",
".=	c #C08C66",
"                          . + @ # $ %                           ",
"                    & * = - ; > , ' ) ! ~ {                     ",
"                ] ^ / ( _ : < [ } | [ [ 1 2 3 4                 ",
"              5 6 7 8 9 0 a b c d e d f g h i j k l             ",
"          m n o p q r s t u v w x y z z A B C D E F %           ",
"        G H I J K L M N O P Q R S T T T U V W X Y Z `  .        ",
"        ..+.@.#.$.%.&.*.=.-.;.>.,.'.'.).!.~.{.].= ^./.(._.      ",
"      :.<.[.}.|.1.2.3.4.5.6.7.8.9.0.0.a.b.c.d.e.f.g.h.i.j.k.    ",
"    l.m.n.o.p.q.r.s.t.u.v.w.x.x.y.z.z.A.B.C.D.E.F.G.H.I.J.K.    ",
"    L.M.N.O.P.Q.R.S.T.U.V.W.X.Y.Z.`.Y. +.+++= = = @+#+$+%+&+*+  ",
"  =+-+;+>+,+'+)+!+~+{+]+^+/+(+_+_+:+:+:+<+[+}+|+1+2+3+4+5+6+7+  ",
"  8+9+0+a+b+c+d+e+f+g+h+i+j+k+l+m+n+o+n+p+q+r+s+t+u+v+w+x+y+z+  ",
"  A+B+C+D+E+F+G+H+I+J+K+L+M+N+O+P+Q+Q+Q+P+R+S+T+U+V+W+X+Y+Z+`+ @",
".@+@@@#@$@%@&@*@=@-@;@>@,@'@)@!@~@{@]@^@/@(@_@:@<@[@}@|@1@2@3@4@",
"5@6@7@8@9@0@a@b@c@d@e@f@g@h@i@j@k@l@m@n@o@p@q@r@s@t@u@v@w@x@y@z@",
"A@B@C@D@E@F@G@H@I@J@K@L@M@N@O@P@n@Q@Q@R@S@T@U@V@W@X@Y@Z@`@ #.#+#",
"@###$#%#&#*#=#-#;#>#,#'#)#!#~#{#!@/@]#^#/#(#_#:#<#[#}#|#1#2#3#4#",
"5#6#7#8#9#0#a#b#c#d#e#f#g#h#i#j#k#l#m#n#o#p#q#r#s#t#u#v#w#x#y#z#",
"A#B#C#D#E#F#G#H#I#J#K#L#M#N#O#P#Q#R#S#T#U#V#W#X#Y#Z#`# $.$+$@$#$",
"$$%$&$*$=$-$;$>$,$'$)$!$~${$]$^$/$($_$:$<$[$}$|$1$2$3$4$5$6$7$8$",
"9$0$a$b$c$d$e$f$g$h$i$j$k$l$m$n$o$p$q$r$s$t$u$v$w$x$y$z$A$B$C$D$",
"E$F$G$H$I$J$K$L$M$N$O$P$Q$R$S$T$U$V$W$X$Y$Z$`$ %.%+%@%#%$%%%&%  ",
"*%=%-%;%>%,%'%)%!%~%{%]%^%~%/%(%_%:%<%[%}%|%1%2%3%4%5%6%7%8%9%  ",
"0%a%b%c%d%e%f%g%h%i%j%k%l%m%n%o%p%q%r%s%t%u%v%w%x%y%z%A%B%C%D%E%",
"F%G%H%I%J%K%L%M%N%O%P%Q%R%S%T%U%V%W%X%Y%Z%`% &.&+&@&#&$&%&&&*&=&",
"-&;&>&,&'&)&!&~&{&]&^&/&(&_&:&<&[&}&|&1&2&3&4&5&6&7&8&9&0&a&b&c&",
"        d&e&f&g&h&i&j&k&l&m&n&o&p&q&r&s&t&u&v&w&x&y&z&A&B&C&D&E&",
"          F&G&H&I&J&K&L&M&N&O&P&Q&R&S&T&U&V&W&X&Y&Z&`& *.*+*@*#*",
"            $*%*&***=*-*;*>*,*'*)*!*~*{*]*^*/*(*_*:*<*[*}*|*1*2*",
"              3*4*5*6*7*8*9*0*a*b*c*d*e*f*g*h*i*j*k*l*m*n*o*p*q*",
"                  r*s*t*u*v*w*x*y*z*A*B*C*D*E*F*G*H*I*J*K*L*M*N*",
"                        O*P*Q*R*S*T*U*V*W*          X*Y*Z*`* =.="};
