/* XPM */
static char * red32_xpm[] = {
"32 32 756 2",
"  	c None",
". 	c #681010",
"+ 	c #762525",
"@ 	c #7D3131",
"# 	c #7E3131",
"$ 	c #772626",
"% 	c #6A1313",
"& 	c #7C3232",
"* 	c #985858",
"= 	c #B68686",
"- 	c #CEACAC",
"; 	c #D9BDBE",
"> 	c #DDC4C4",
", 	c #DDC5C5",
"' 	c #D9BDBD",
") 	c #D1B0B1",
"! 	c #BC8F8F",
"~ 	c #9C5F5F",
"{ 	c #803637",
"] 	c #7C3131",
"^ 	c #C29897",
"/ 	c #E5CDCC",
"( 	c #E6CFCF",
"_ 	c #E6CDCC",
": 	c #E4CACA",
"< 	c #E3C8C8",
"[ 	c #E2C8C7",
"} 	c #E2C7C7",
"| 	c #E3C8C9",
"1 	c #E4CBCA",
"2 	c #E6CDCD",
"3 	c #E7D0D0",
"4 	c #CEA9A9",
"5 	c #8C4848",
"6 	c #905151",
"7 	c #DDBCBC",
"8 	c #E5C9C9",
"9 	c #DEBEBE",
"0 	c #DEBDBD",
"a 	c #DEBCBC",
"b 	c #DFBCBD",
"c 	c #DFBCBC",
"d 	c #DFBDBC",
"e 	c #DFBDBD",
"f 	c #DFBFBF",
"g 	c #E5C9C8",
"h 	c #DFBFC0",
"i 	c #A26666",
"j 	c #661E1E",
"k 	c #5A0809",
"l 	c #BE8C8C",
"m 	c #E1BFBF",
"n 	c #DBB5B5",
"o 	c #DAB2B1",
"p 	c #DBB2B2",
"q 	c #DDB2B2",
"r 	c #DDB3B3",
"s 	c #DCB2B2",
"t 	c #DCB3B3",
"u 	c #DEB7B7",
"v 	c #EDC9C9",
"w 	c #B28789",
"x 	c #600809",
"y 	c #510908",
"z 	c #B37676",
"A 	c #D5A6A6",
"B 	c #D6A6A6",
"C 	c #D8A6A6",
"D 	c #D8A6A7",
"E 	c #D8A7A7",
"F 	c #D9A7A7",
"G 	c #DAA6A6",
"H 	c #DAA7A7",
"I 	c #DAA8A7",
"J 	c #D9A8A7",
"K 	c #DBA9AA",
"L 	c #C6989B",
"M 	c #A07E82",
"N 	c #5D5159",
"O 	c #AE8182",
"P 	c #742727",
"Q 	c #AB6666",
"R 	c #D09998",
"S 	c #D29999",
"T 	c #D3999A",
"U 	c #D49A9B",
"V 	c #D59A9B",
"W 	c #D69B9A",
"X 	c #D79B9B",
"Y 	c #D89A9A",
"Z 	c #D79A9B",
"` 	c #D89B9B",
" .	c #D89A9B",
"..	c #D69B9B",
"+.	c #D69A9B",
"@.	c #D99E9E",
"#.	c #CFB599",
"$.	c #474639",
"%.	c #3E3239",
"&.	c #9A7F84",
"*.	c #C88A8A",
"=.	c #520000",
"-.	c #6F1B1B",
";.	c #CB8F8F",
">.	c #CD9190",
",.	c #CE8E8E",
"'.	c #D08F8F",
").	c #D18F8F",
"!.	c #D38F8F",
"~.	c #D48F8F",
"{.	c #D58F8F",
"].	c #D68F8F",
"^.	c #D58F8E",
"/.	c #D68F90",
"(.	c #D58F90",
"_.	c #D59090",
":.	c #D49090",
"<.	c #D48D90",
"[.	c #D9AD94",
"}.	c #FDF3B1",
"|.	c #C4BF92",
"1.	c #634A4B",
"2.	c #A3777A",
"3.	c #D59999",
"4.	c #853131",
"5.	c #5C0C0C",
"6.	c #580000",
"7.	c #964040",
"8.	c #CA8585",
"9.	c #C8807F",
"0.	c #CA7F7F",
"a.	c #CC7F80",
"b.	c #CD7B7D",
"c.	c #CF7C7D",
"d.	c #D17F7F",
"e.	c #D28081",
"f.	c #D38080",
"g.	c #D48080",
"h.	c #D48081",
"i.	c #D48181",
"j.	c #D48082",
"k.	c #D47D84",
"l.	c #D18085",
"m.	c #EDCE9C",
"n.	c #FFF9B1",
"o.	c #E6D3A1",
"p.	c #A77377",
"q.	c #9A646C",
"r.	c #D38B8C",
"s.	c #BC7675",
"t.	c #670A0A",
"u.	c #660404",
"v.	c #AB5555",
"w.	c #C67676",
"x.	c #C57272",
"y.	c #C87171",
"z.	c #C97172",
"A.	c #D38A80",
"B.	c #D1847C",
"C.	c #CC6F70",
"D.	c #D07273",
"E.	c #D07373",
"F.	c #D17373",
"G.	c #D17273",
"H.	c #D27372",
"I.	c #D47375",
"J.	c #D07872",
"K.	c #CB845C",
"L.	c #B98345",
"M.	c #AD9161",
"N.	c #E7D9AD",
"O.	c #D2C0A2",
"P.	c #9E775E",
"Q.	c #AC7553",
"R.	c #C2776E",
"S.	c #C77B7D",
"T.	c #892F2F",
"U.	c #681515",
"V.	c #731C1C",
"W.	c #760C0C",
"X.	c #B35757",
"Y.	c #C16767",
"Z.	c #C36464",
"`.	c #C55F62",
" +	c #CE7A71",
".+	c #ECDDA0",
"++	c #EEDDA2",
"@+	c #D5937D",
"#+	c #CB5F62",
"$+	c #CF6464",
"%+	c #CF6564",
"&+	c #CF6565",
"*+	c #CF6666",
"=+	c #D16666",
"-+	c #D16267",
";+	c #AA6558",
">+	c #A87E3A",
",+	c #BC9339",
"'+	c #B28D3F",
")+	c #9A7432",
"!+	c #A0814E",
"~+	c #A88139",
"{+	c #B28737",
"]+	c #C69632",
"^+	c #B68142",
"/+	c #C26A71",
"(+	c #9C3D3C",
"_+	c #620303",
":+	c #680A0A",
"<+	c #801010",
"[+	c #B34E4E",
"}+	c #BF5A5A",
"|+	c #C25958",
"1+	c #CB5356",
"2+	c #C66D60",
"3+	c #D4BF80",
"4+	c #E1D090",
"5+	c #DCAA86",
"6+	c #CA5256",
"7+	c #CD5757",
"8+	c #CE5959",
"9+	c #D45959",
"0+	c #CF5857",
"a+	c #B46347",
"b+	c #A17E33",
"c+	c #B78D33",
"d+	c #AC8C5A",
"e+	c #CAB780",
"f+	c #B89342",
"g+	c #BA8E36",
"h+	c #A98035",
"i+	c #937030",
"j+	c #C19337",
"k+	c #BF9135",
"l+	c #B26A57",
"m+	c #A1373C",
"n+	c #690201",
"o+	c #6B0203",
"p+	c #870F0F",
"q+	c #AD3D3C",
"r+	c #BF4B4B",
"s+	c #C24949",
"t+	c #954B4C",
"u+	c #B88D71",
"v+	c #C7AD70",
"w+	c #CCBC7E",
"x+	c #C98E71",
"y+	c #CB4548",
"z+	c #CD4B4B",
"A+	c #CD4A4A",
"B+	c #D74949",
"C+	c #B34A50",
"D+	c #A68387",
"E+	c #AB9268",
"F+	c #CB9A33",
"G+	c #C6983A",
"H+	c #8C6D41",
"I+	c #C8A74E",
"J+	c #C49A44",
"K+	c #B78B3C",
"L+	c #936D2F",
"M+	c #977230",
"N+	c #C49838",
"O+	c #BE9432",
"P+	c #B88E3F",
"Q+	c #9D3632",
"R+	c #750406",
"S+	c #7E2323",
"T+	c #7D2424",
"U+	c #750808",
"V+	c #8B0D0D",
"W+	c #AA2C2C",
"X+	c #C64846",
"Y+	c #703034",
"Z+	c #23252D",
"`+	c #C1C0A5",
" @	c #D8CFA7",
".@	c #C3A37E",
"+@	c #C1564C",
"@@	c #CE4042",
"#@	c #D04342",
"$@	c #D54646",
"%@	c #AA4349",
"&@	c #5A4E59",
"*@	c #73777C",
"=@	c #B5AEAB",
"-@	c #917544",
";@	c #A1782E",
">@	c #B4903F",
",@	c #D5AF4D",
"'@	c #C99C40",
")@	c #AB8237",
"!@	c #957131",
"~@	c #B88E3A",
"{@	c #CEA03B",
"]@	c #CB9E3B",
"^@	c #C19B39",
"/@	c #994426",
"(@	c #7E060B",
"_@	c #7A1818",
":@	c #6C0A0A",
"<@	c #820F0F",
"[@	c #930F10",
"}@	c #AE1F1F",
"|@	c #923838",
"1@	c #251F1C",
"2@	c #0E0713",
"3@	c #A9A492",
"4@	c #FFFFDD",
"5@	c #F1DFBF",
"6@	c #CC4644",
"7@	c #D13839",
"8@	c #B54245",
"9@	c #95777B",
"0@	c #636574",
"a@	c #6F7272",
"b@	c #4E4A59",
"c@	c #7A777D",
"d@	c #6F5E56",
"e@	c #7F5A25",
"f@	c #CFAA4E",
"g@	c #CDA447",
"h@	c #CC9B3F",
"i@	c #98732C",
"j@	c #8C692A",
"k@	c #C99F41",
"l@	c #CDA141",
"m@	c #D3A43E",
"n@	c #C8A03E",
"o@	c #964E26",
"p@	c #890A10",
"q@	c #750D0D",
"r@	c #710B0B",
"s@	c #891111",
"t@	c #9B1414",
"u@	c #AE1B1B",
"v@	c #783632",
"w@	c #64542C",
"x@	c #271B1C",
"y@	c #A09A89",
"z@	c #FFFDD6",
"A@	c #F8F9D3",
"B@	c #D17A6C",
"C@	c #D23133",
"D@	c #BF3E43",
"E@	c #945244",
"F@	c #898383",
"G@	c #636370",
"H@	c #87817A",
"I@	c #A29080",
"J@	c #A5793B",
"K@	c #8D692B",
"L@	c #BA9845",
"M@	c #B48C3A",
"N@	c #AB8136",
"O@	c #906D2C",
"P@	c #9A732D",
"Q@	c #B88C39",
"R@	c #BC923E",
"S@	c #9A7D41",
"T@	c #A28C4E",
"U@	c #9E6D34",
"V@	c #902019",
"W@	c #7D0D10",
"X@	c #780E0E",
"Y@	c #8F1313",
"Z@	c #A41919",
"`@	c #B51F1F",
" #	c #562129",
".#	c #4A3324",
"+#	c #2F1E1E",
"@#	c #8C7D6A",
"##	c #F5EDCA",
"$#	c #FEFFDA",
"%#	c #E2BBA1",
"&#	c #D23335",
"*#	c #DB413C",
"=#	c #C84F41",
"-#	c #BE9C76",
";#	c #CFA871",
">#	c #C38D44",
",#	c #B98744",
"'#	c #BE8C42",
")#	c #C5934A",
"!#	c #B4883F",
"~#	c #AB8037",
"{#	c #A17A35",
"]#	c #A17933",
"^#	c #B38933",
"/#	c #B78A2B",
"(#	c #817042",
"_#	c #9A9996",
":#	c #65676E",
"<#	c #514B3F",
"[#	c #A67C2F",
"}#	c #8B3924",
"|#	c #7D0F0F",
"1#	c #951616",
"2#	c #AC1E1E",
"3#	c #B72524",
"4#	c #4E201D",
"5#	c #261D24",
"6#	c #341C1B",
"7#	c #716248",
"8#	c #E7DFBD",
"9#	c #FFFCD8",
"0#	c #F3E7C6",
"a#	c #CD7B64",
"b#	c #CA7B36",
"c#	c #B6782F",
"d#	c #C3893D",
"e#	c #D6A157",
"f#	c #BD8C45",
"g#	c #C4934C",
"h#	c #BD8A46",
"i#	c #D09953",
"j#	c #B77B38",
"k#	c #CB8434",
"l#	c #AA7C33",
"m#	c #AB8131",
"n#	c #A27C35",
"o#	c #84765D",
"p#	c #9C9CA0",
"q#	c #979694",
"r#	c #50525E",
"s#	c #74716E",
"t#	c #94762B",
"u#	c #9C6930",
"v#	c #7F0E0E",
"w#	c #9B1616",
"x#	c #B6191C",
"y#	c #AE2627",
"z#	c #6F4729",
"A#	c #442C1E",
"B#	c #1E111C",
"C#	c #796B3E",
"D#	c #EDE3B6",
"E#	c #F6F0CD",
"F#	c #F4EEC8",
"G#	c #EDEDCA",
"H#	c #CFC39B",
"I#	c #D18F49",
"J#	c #C97221",
"K#	c #D1802D",
"L#	c #D1883A",
"M#	c #D0883A",
"N#	c #CF8030",
"O#	c #CD7D2B",
"P#	c #D4812D",
"Q#	c #D5822E",
"R#	c #BD8A31",
"S#	c #877242",
"T#	c #575760",
"U#	c #3A4254",
"V#	c #9FA19D",
"W#	c #ADAAA6",
"X#	c #4B5365",
"Y#	c #424343",
"Z#	c #886D3E",
"`#	c #B59443",
" $	c #A12A29",
".$	c #C06458",
"+$	c #BA7567",
"@$	c #554539",
"#$	c #371F1B",
"$$	c #431E15",
"%$	c #58452B",
"&$	c #E5D9AE",
"*$	c #F4EECB",
"=$	c #FAF2CD",
"-$	c #FFF8D3",
";$	c #EDE8C8",
">$	c #D7C191",
",$	c #D19C40",
"'$	c #CB832F",
")$	c #D3812E",
"!$	c #CF812C",
"~$	c #C67D27",
"{$	c #BE7624",
"]$	c #CE7F30",
"^$	c #A56C45",
"/$	c #7A525A",
"($	c #6C5565",
"_$	c #6F5A63",
":$	c #7D6E73",
"<$	c #AF9D9A",
"[$	c #87656E",
"}$	c #8D3236",
"|$	c #993933",
"1$	c #90432E",
"2$	c #D2BCA2",
"3$	c #C6C7A4",
"4$	c #C7C5A1",
"5$	c #694D3E",
"6$	c #1B1116",
"7$	c #291E23",
"8$	c #0E050F",
"9$	c #786F60",
"0$	c #FFFED9",
"a$	c #FFF9D9",
"b$	c #FFF9DB",
"c$	c #F6EECF",
"d$	c #E1D6A0",
"e$	c #FFFA82",
"f$	c #E5CC65",
"g$	c #C87A2C",
"h$	c #CA8033",
"i$	c #CB7835",
"j$	c #D27546",
"k$	c #C5772E",
"l$	c #D27641",
"m$	c #E86A72",
"n$	c #EA6D6E",
"o$	c #E46969",
"p$	c #E26A6A",
"q$	c #DB6163",
"r$	c #D8595A",
"s$	c #D64C4C",
"t$	c #CF3F3F",
"u$	c #AF2526",
"v$	c #A9383B",
"w$	c #C08575",
"x$	c #BB8274",
"y$	c #BB9C89",
"z$	c #B4A791",
"A$	c #513F32",
"B$	c #694020",
"C$	c #2F1C15",
"D$	c #422818",
"E$	c #BAAA8F",
"F$	c #F7F3D1",
"G$	c #FCF6D5",
"H$	c #FAF5D6",
"I$	c #E9DFB1",
"J$	c #F1E272",
"K$	c #EECC78",
"L$	c #D07742",
"M$	c #CC7A34",
"N$	c #EE7B7D",
"O$	c #F07A7E",
"P$	c #D47D43",
"Q$	c #D77B51",
"R$	c #EE7B7F",
"S$	c #EC7B7B",
"T$	c #EB7979",
"U$	c #E97575",
"V$	c #E66E6E",
"W$	c #E16363",
"X$	c #D85454",
"Y$	c #CC4444",
"Z$	c #B12E2E",
"`$	c #D9C2A6",
" %	c #D6D0B1",
".%	c #D8D3B4",
"+%	c #E1E0C0",
"@%	c #B7AF90",
"#%	c #8A683F",
"$%	c #74583D",
"%%	c #6F5833",
"&%	c #7D5D4A",
"*%	c #D7D3B4",
"=%	c #D6CFAE",
"-%	c #F0E9C6",
";%	c #F1EDCA",
">%	c #DBCD95",
",%	c #E99E8E",
"'%	c #E07E61",
")%	c #D87F4D",
"!%	c #F38C90",
"~%	c #F28C8D",
"{%	c #F18C8B",
"]%	c #F18B8C",
"^%	c #EF8C8C",
"/%	c #EF8B8B",
"(%	c #EE8989",
"_%	c #EC8484",
":%	c #EA7B7B",
"<%	c #E66D6D",
"[%	c #DD5B5A",
"}%	c #CC4343",
"|%	c #B84040",
"1%	c #C69982",
"2%	c #CEA390",
"3%	c #DF7F76",
"4%	c #DB9D8D",
"5%	c #CDCFB1",
"6%	c #CECCB1",
"7%	c #B3AE94",
"8%	c #CAC1A4",
"9%	c #DED6B6",
"0%	c #DED8B8",
"a%	c #E4DFBC",
"b%	c #F0EDC8",
"c%	c #E6E1C3",
"d%	c #E2D0B5",
"e%	c #D8B8A3",
"f%	c #E3A39C",
"g%	c #F59A9A",
"h%	c #F59B9B",
"i%	c #F59B9C",
"j%	c #F49B9B",
"k%	c #F39A9A",
"l%	c #F39898",
"m%	c #F19494",
"n%	c #EF8D8D",
"o%	c #ED8181",
"p%	c #E97171",
"q%	c #E05C5C",
"r%	c #CD4646",
"s%	c #D44243",
"t%	c #E95659",
"u%	c #E47B78",
"v%	c #D8C0A8",
"w%	c #D7AA9D",
"x%	c #DEA9A0",
"y%	c #E8B5AD",
"z%	c #F0AAA7",
"A%	c #E6AAA4",
"B%	c #D7BCA6",
"C%	c #D9C6AC",
"D%	c #DDCAAE",
"E%	c #DDDCB8",
"F%	c #E3BFAD",
"G%	c #E5B1AA",
"H%	c #F6ABAB",
"I%	c #F7ACAC",
"J%	c #F8ABAB",
"K%	c #F7AAAA",
"L%	c #F7A8A8",
"M%	c #F6A4A4",
"N%	c #F69E9E",
"O%	c #F39494",
"P%	c #F18585",
"Q%	c #EB7373",
"R%	c #DD5353",
"S%	c #D25959",
"T%	c #D03333",
"U%	c #E95C5B",
"V%	c #F46D6E",
"W%	c #F07F80",
"X%	c #F79494",
"Y%	c #FBA1A3",
"Z%	c #F8A8A9",
"`%	c #FAAFB1",
" &	c #FCB4B5",
".&	c #F8B6B7",
"+&	c #F7B5B6",
"@&	c #EFB3B3",
"#&	c #E8C2B8",
"$&	c #F7B6B7",
"%&	c #FAB6B8",
"&&	c #F8B9B8",
"*&	c #F8B8B7",
"=&	c #F9B7B7",
"-&	c #F9B4B4",
";&	c #F9B1B1",
">&	c #F9ABAC",
",&	c #F8A1A1",
"'&	c #F48282",
")&	c #EC6B6B",
"!&	c #DC5555",
"~&	c #E34A4A",
"{&	c #F26A69",
"]&	c #FB7E7F",
"^&	c #FB9090",
"/&	c #FAA3A2",
"(&	c #FAADAD",
"_&	c #F9BCBC",
":&	c #FAC0C0",
"<&	c #FAC2C2",
"[&	c #FAC3C4",
"}&	c #FBC3C4",
"|&	c #F9C5C5",
"1&	c #F9C4C4",
"2&	c #F9C2C2",
"3&	c #F9C0BF",
"4&	c #F9B5B5",
"5&	c #FAACAC",
"6&	c #FA9E9E",
"7&	c #FA8F8F",
"8&	c #F67676",
"9&	c #EA6162",
"0&	c #ED5050",
"a&	c #F87273",
"b&	c #FB8584",
"c&	c #FB9998",
"d&	c #FBA7A7",
"e&	c #FBB4B4",
"f&	c #FBBBBB",
"g&	c #FBC2C2",
"h&	c #FBC5C5",
"i&	c #FBC8C8",
"j&	c #FBC9C9",
"k&	c #FBC7C7",
"l&	c #FBC0C0",
"m&	c #FBBABA",
"n&	c #FBB0B0",
"o&	c #FBA5A5",
"p&	c #FB9494",
"q&	c #F97E7E",
"r&	c #F36868",
"s&	c #EF5454",
"t&	c #F67272",
"u&	c #FB8888",
"v&	c #FC9797",
"w&	c #FCA6A6",
"x&	c #FCB1B1",
"y&	c #FCBBBB",
"z&	c #FCBFBF",
"A&	c #FCC4C3",
"B&	c #FCC6C6",
"C&	c #FCC3C3",
"D&	c #FCBEBE",
"E&	c #FCB8B8",
"F&	c #FCAFAF",
"G&	c #FCA2A2",
"H&	c #F77979",
"I&	c #F37070",
"J&	c #ED5352",
"K&	c #F46F6F",
"L&	c #F88282",
"M&	c #FB9393",
"N&	c #FC9E9F",
"O&	c #FDAAAA",
"P&	c #FDB0B0",
"Q&	c #FDB6B6",
"R&	c #FDB9B9",
"S&	c #FDBABA",
"T&	c #FDB8B8",
"U&	c #FDB4B4",
"V&	c #FDAFAF",
"W&	c #FDA6A6",
"X&	c #FC9B9B",
"Y&	c #F98989",
"Z&	c #F67D7D",
"`&	c #F27D7C",
" *	c #EF6161",
".*	c #F37272",
"+*	c #F88181",
"@*	c #FA8D8D",
"#*	c #FC9F9F",
"$*	c #FCA0A0",
"%*	c #FC9E9E",
"&*	c #FB9898",
"**	c #FB9191",
"=*	c #F88484",
"-*	c #F57B7B",
";*	c #F27F7F",
">*	c #EF6867",
",*	c #F27474",
"'*	c #F47A7A",
")*	c #F58080",
"!*	c #F68282",
"~*	c #F58585",
"{*	c #F48484",
"]*	c #F38686",
"                          . + @ # $ %                           ",
"                    & * = - ; > , ' ) ! ~ {                     ",
"                ] ^ / ( _ : < [ } | 1 2 3 2 4 5                 ",
"              6 7 8 9 0 a b c c d e e e 0 f g h i j             ",
"          k l m n o p p q r q q s q q q t t p u v w x           ",
"        y z t A B C D E F G H I H H H H H J K L M N O P         ",
"        Q E R S T U V W X X Y Z `  .X X ..+.@.#.$.%.&.*.=.      ",
"      -.;.>.,.'.).!.!.~.{.].^.{./.].(._.:.<.[.}.|.1.2.3.4.5.    ",
"    6.7.8.9.0.a.b.c.d.e.e.f.f.g.f.h.i.j.k.l.m.n.o.p.q.r.s.t.    ",
"    u.v.w.x.y.z.A.B.C.D.E.E.F.F.G.H.I.J.K.L.M.N.O.P.Q.R.S.T.U.  ",
"  V.W.X.Y.Z.`. +.+++@+#+$+%+&+*+=+-+;+>+,+'+)+!+~+{+]+^+/+(+_+  ",
"  :+<+[+}+|+1+2+3+4+5+6+7+8+8+9+0+a+b+c+d+e+f+g+h+i+j+k+l+m+n+  ",
"  o+p+q+r+s+t+u+v+w+x+y+z+A+B+C+D+E+F+G+H+I+J+K+L+M+N+O+P+Q+R+S+",
"T+U+V+W+X+Y+Z+`+ @.@+@@@#@$@%@&@*@=@-@;@>@,@'@)@!@~@{@]@^@/@(@_@",
":@<@[@}@|@1@2@3@4@5@6@7@8@9@0@a@b@c@d@e@f@g@h@i@j@k@l@m@n@o@p@q@",
"r@s@t@u@v@w@x@y@z@A@B@C@D@E@F@G@H@I@J@K@L@M@N@O@P@Q@R@S@T@U@V@W@",
"X@Y@Z@`@ #.#+#@###$#%#&#*#=#-#;#>#,#'#)#!#~#{#]#^#/#(#_#:#<#[#}#",
"|#1#2#3#4#5#6#7#8#9#0#a#b#c#d#e#f#g#h#i#j#k#l#m#n#o#p#q#r#s#t#u#",
"v#w#x#y#z#A#B#C#D#E#F#G#H#I#J#K#L#M#N#O#P#Q#R#S#T#U#V#W#X#Y#Z#`#",
"   $.$+$@$#$$$%$&$*$=$-$;$>$,$'$)$N#!$~${$]$^$/$($_$:$<$[$}$|$1$",
"  2$3$4$5$6$7$8$9$0$a$b$c$d$e$f$g$h$i$j$k$l$m$n$o$p$q$r$s$t$u$v$",
"  w$x$y$z$A$B$C$D$E$F$G$H$I$J$K$L$M$N$O$P$Q$R$S$T$U$V$W$X$Y$Z$  ",
"  `$ %.%+%@%#%$%%%&%*%=%-%;%>%,%'%)%!%~%{%]%^%/%(%_%:%<%[%}%|%  ",
"    1%2%3%4%5%6%7%8%9%0%a%b%c%d%e%f%g%h%i%j%k%l%m%n%o%p%q%r%    ",
"      s%t%u%v%w%x%y%z%A%B%C%D%E%F%G%H%I%J%K%L%M%N%O%P%Q%R%S%    ",
"      T%U%V%W%X%Y%Z%`% &.&+&@&#&$&%&&&*&=&-&;&>&,&X%'&)&!&      ",
"        ~&{&]&^&/&(&=&_&:&<&[&}&|&|&1&2&3&_&4&5&6&7&8&9&        ",
"          0&a&b&c&d&e&f&g&h&i&j&j&j&k&h&l&m&n&o&p&q&r&          ",
"            s&t&u&v&w&x&y&z&A&B&k&B&C&D&E&F&G&p&H&I&            ",
"              J&K&L&M&N&O&P&Q&R&S&T&U&V&W&X&Y&Z&`&              ",
"                   *.*+*@*p&X&#*$*%*&***=*-*;*                  ",
"                      >*,*'*)*!*!*!*~*{*]*                      "};
