/* XPM */
static char * yellow32_xpm[] = {
"32 32 776 2",
"  	c None",
". 	c #646A07",
"+ 	c #707519",
"@ 	c #757B23",
"# 	c #767C25",
"$ 	c #72771D",
"% 	c #676D0C",
"& 	c #828635",
"* 	c #A6A86D",
"= 	c #C2C49A",
"- 	c #DBDDC4",
"; 	c #E6E7D4",
"> 	c #E7E8D8",
", 	c #DFE1CA",
"' 	c #CBCDAA",
") 	c #AFB27C",
"! 	c #8C9045",
"~ 	c #6F7519",
"{ 	c #616702",
"] 	c #7A7F26",
"^ 	c #C8CBA2",
"/ 	c #EDEEDC",
"( 	c #F2F4E7",
"_ 	c #F0F2E4",
": 	c #EFF0E0",
"< 	c #F1F1E1",
"[ 	c #F5F6E4",
"} 	c #F7F8E6",
"| 	c #F4F5E6",
"1 	c #F3F4E6",
"2 	c #F2F3E5",
"3 	c #D7D9BB",
"4 	c #8A8E3E",
"5 	c #646A05",
"6 	c #686E0C",
"7 	c #919647",
"8 	c #D3D5B1",
"9 	c #F2F3E3",
"0 	c #EBECD6",
"a 	c #E9EAD3",
"b 	c #E8EAD3",
"c 	c #EEEFD7",
"d 	c #E3E4CD",
"e 	c #C2C3B2",
"f 	c #BDBFAD",
"g 	c #DDDFC8",
"h 	c #EDEED6",
"i 	c #E9EAD5",
"j 	c #F0F1DF",
"k 	c #E6E8D0",
"l 	c #A7AB6B",
"m 	c #696F0B",
"n 	c #656B0C",
"o 	c #686D10",
"p 	c #646A00",
"q 	c #979C4E",
"r 	c #ECEED7",
"s 	c #EBECD4",
"t 	c #E5E7CA",
"u 	c #E6E8CA",
"v 	c #E7E8CB",
"w 	c #EFF1D1",
"x 	c #ABAE9A",
"y 	c #454949",
"z 	c #3C3F42",
"A 	c #373B3D",
"B 	c #3C4040",
"C 	c #A7AA98",
"D 	c #EEF0D1",
"E 	c #E6E8CB",
"F 	c #E8EAD0",
"G 	c #EDEFD8",
"H 	c #B6B97F",
"I 	c #6D730C",
"J 	c #686E0D",
"K 	c #676D10",
"L 	c #6B710C",
"M 	c #8F943C",
"N 	c #DBDDB6",
"O 	c #E7E8C8",
"P 	c #E3E5C1",
"Q 	c #E4E6C1",
"R 	c #E4E7C1",
"S 	c #E5E7C1",
"T 	c #EAECC4",
"U 	c #CED0AE",
"V 	c #75796B",
"W 	c #2D3035",
"X 	c #24282D",
"Y 	c #363A38",
"Z 	c #BFC3A4",
"` 	c #EBEDC6",
" .	c #E4E5C1",
"..	c #E4E6C4",
"+.	c #EBEDD2",
"@.	c #ACB06C",
"#.	c #6A7109",
"$.	c #696E10",
"%.	c #6C720D",
"&.	c #818625",
"*.	c #DCDDB4",
"=.	c #E4E6C0",
"-.	c #DFE2B6",
";.	c #E1E4B6",
">.	c #E1E4B5",
",.	c #E2E4B6",
"'.	c #E2E5B6",
").	c #E2E4B5",
"!.	c #F1F4C0",
"~.	c #BABD98",
"{.	c #454340",
"].	c #79735F",
"^.	c #0C0C07",
"/.	c #7D8166",
"(.	c #F0F3C0",
"_.	c #EBEEBC",
":.	c #EEF0BE",
"<.	c #EEF1BF",
"[.	c #EBEDC1",
"}.	c #DFE1B9",
"|.	c #8A9033",
"1.	c #6B7209",
"2.	c #6B7212",
"3.	c #6F7608",
"4.	c #A6AB5A",
"5.	c #E3E5BA",
"6.	c #DDE0AF",
"7.	c #DEE1AC",
"8.	c #DEE2AC",
"9.	c #DFE1AB",
"0.	c #DFE3AA",
"a.	c #E0E2AA",
"b.	c #E3E7AC",
"c.	c #E1E7AB",
"d.	c #CAC79B",
"e.	c #D2BD9E",
"f.	c #E6D3AE",
"g.	c #928366",
"h.	c #605D45",
"i.	c #CACD9D",
"j.	c #AFB691",
"k.	c #9DA388",
"l.	c #8C907E",
"m.	c #A4AA8C",
"n.	c #E8EBBD",
"o.	c #C3C688",
"p.	c #797F15",
"q.	c #6D730F",
"r.	c #666B10",
"s.	c #696F12",
"t.	c #71770F",
"u.	c #838B1F",
"v.	c #D1D599",
"w.	c #DCDFA6",
"x.	c #DADDA1",
"y.	c #DBDEA0",
"z.	c #DBE09F",
"A.	c #DBE09E",
"B.	c #DCE09D",
"C.	c #E7EBA3",
"D.	c #999F7B",
"E.	c #2E3A45",
"F.	c #6D6C63",
"G.	c #F7DEB5",
"H.	c #E4C9A3",
"I.	c #FDE0B6",
"J.	c #BBA583",
"K.	c #A19576",
"L.	c #3C403F",
"M.	c #0C1B34",
"N.	c #151D37",
"O.	c #585D5A",
"P.	c #DCDEA1",
"Q.	c #EDF0BB",
"R.	c #ADB155",
"S.	c #757B0A",
"T.	c #6D7312",
"U.	c #707614",
"V.	c #777D0E",
"W.	c #A8AD52",
"X.	c #DCDFA4",
"Y.	c #D7DB98",
"Z.	c #D8DC97",
"`.	c #D9DD95",
" +	c #DADE94",
".+	c #DADF94",
"++	c #DBDF94",
"@+	c #E0E797",
"#+	c #7F8069",
"$+	c #403F45",
"%+	c #494950",
"&+	c #DDC19A",
"*+	c #D4C1A1",
"=+	c #CEB490",
"-+	c #C6A97F",
";+	c #F8E5BF",
">+	c #686867",
",+	c #252C41",
"'+	c #19253E",
")+	c #6B6556",
"!+	c #ECD48A",
"~+	c #7F8671",
"{+	c #5D684D",
"]+	c #687017",
"^+	c #767C12",
"/+	c #676C10",
"(+	c #6B7012",
"_+	c #777E14",
":+	c #848A19",
"<+	c #C6CA7C",
"[+	c #D7DC96",
"}+	c #D5DA8E",
"|+	c #D7DB8D",
"1+	c #D8DC8A",
"2+	c #D9DD8A",
"3+	c #D8DD89",
"4+	c #E1E68D",
"5+	c #D7DA84",
"6+	c #DDCA84",
"7+	c #FFEA93",
"8+	c #7B745C",
"9+	c #3E424C",
"0+	c #2E3547",
"a+	c #444241",
"b+	c #B29A77",
"c+	c #A79A85",
"d+	c #2F3643",
"e+	c #2B3244",
"f+	c #202C41",
"g+	c #3E4446",
"h+	c #7B7259",
"i+	c #1E2A3F",
"j+	c #232D46",
"k+	c #2C3448",
"l+	c #535A2A",
"m+	c #74790D",
"n+	c #7E8516",
"o+	c #919928",
"p+	c #CED384",
"q+	c #D3D888",
"r+	c #D4DA85",
"s+	c #D6DB84",
"t+	c #D7DC83",
"u+	c #D7DC82",
"v+	c #DEE385",
"w+	c #BFC678",
"x+	c #717457",
"y+	c #7A705F",
"z+	c #887F61",
"A+	c #424748",
"B+	c #101F36",
"C+	c #283044",
"D+	c #1E2D3F",
"E+	c #2B3240",
"F+	c #2A3043",
"G+	c #272F42",
"H+	c #1A2839",
"I+	c #222E40",
"J+	c #212E43",
"K+	c #1B283F",
"L+	c #303749",
"M+	c #363B4D",
"N+	c #32384D",
"O+	c #2D3448",
"P+	c #545D25",
"Q+	c #777E16",
"R+	c #878D1A",
"S+	c #9EA533",
"T+	c #D1D57F",
"U+	c #D2D77D",
"V+	c #D4DA7D",
"W+	c #D6DB7D",
"X+	c #D7DC7C",
"Y+	c #D8DE7D",
"Z+	c #E3EA80",
"`+	c #525E4B",
" @	c #1C2443",
".@	c #262C44",
"+@	c #0D1B32",
"@@	c #1C2B40",
"#@	c #263244",
"$@	c #373B4C",
"%@	c #393E4E",
"&@	c #2B3447",
"*@	c #3E4152",
"=@	c #323849",
"-@	c #263446",
";@	c #243143",
">@	c #1E2D40",
",@	c #273446",
"'@	c #273143",
")@	c #2D3547",
"!@	c #273244",
"~@	c #293248",
"{@	c #242F49",
"]@	c #555D1F",
"^@	c #717715",
"/@	c #7F8418",
"(@	c #8E951D",
"_@	c #A6AC39",
":@	c #D0D579",
"<@	c #D2D879",
"[@	c #D4DA7A",
"}@	c #D6DC7A",
"|@	c #D7DC79",
"1@	c #DFE47D",
"2@	c #C6CE73",
"3@	c #2D3842",
"4@	c #2F3449",
"5@	c #252F40",
"6@	c #142336",
"7@	c #212F42",
"8@	c #283244",
"9@	c #3E4452",
"0@	c #3A3A50",
"a@	c #303149",
"b@	c #3E4151",
"c@	c #2F394A",
"d@	c #243245",
"e@	c #233144",
"f@	c #222F41",
"g@	c #2A3647",
"h@	c #273345",
"i@	c #263345",
"j@	c #2B3648",
"k@	c #2D3649",
"l@	c #232F46",
"m@	c #374234",
"n@	c #757B17",
"o@	c #868D1D",
"p@	c #969E23",
"q@	c #ADB43E",
"r@	c #D1D774",
"s@	c #D3D975",
"t@	c #D5DB77",
"u@	c #D7DD78",
"v@	c #E1E67C",
"w@	c #F1F782",
"x@	c #949C5E",
"y@	c #1B223C",
"z@	c #35394C",
"A@	c #2E3548",
"B@	c #222F42",
"C@	c #243142",
"D@	c #282748",
"E@	c #686173",
"F@	c #3E4956",
"G@	c #19263A",
"H@	c #353A4C",
"I@	c #253143",
"J@	c #2E3949",
"K@	c #223042",
"L@	c #283446",
"M@	c #30384B",
"N@	c #223144",
"O@	c #283547",
"P@	c #2C373F",
"Q@	c #7A8118",
"R@	c #8D9420",
"S@	c #9EA529",
"T@	c #B3BA3F",
"U@	c #D6DC71",
"V@	c #DFE477",
"W@	c #E1E67B",
"X@	c #DFE57C",
"Y@	c #B0B76D",
"Z@	c #80885D",
"`@	c #424C45",
" #	c #1F293E",
".#	c #383B4E",
"+#	c #1B2839",
"@#	c #212E3F",
"##	c #262D45",
"$#	c #555163",
"%#	c #383F50",
"&#	c #222E3F",
"*#	c #383D4E",
"=#	c #3A3D4E",
"-#	c #293244",
";#	c #2F384A",
">#	c #343B4D",
",#	c #30384A",
"'#	c #293447",
")#	c #243144",
"!#	c #283341",
"~#	c #80871A",
"{#	c #939A22",
"]#	c #ACB330",
"^#	c #939C3C",
"/#	c #606850",
"(#	c #8C955F",
"_#	c #C2CA72",
":#	c #AFB86D",
"<#	c #212B3F",
"[#	c #121E39",
"}#	c #1A263C",
"|#	c #1B283A",
"1#	c #2F3548",
"2#	c #282E40",
"3#	c #202C3F",
"4#	c #2E3549",
"5#	c #393E4A",
"6#	c #2E3647",
"7#	c #343A4B",
"8#	c #253042",
"9#	c #31384A",
"0#	c #363A4B",
"a#	c #273041",
"b#	c #212B3B",
"c#	c #252E40",
"d#	c #32394B",
"e#	c #2A3447",
"f#	c #293346",
"g#	c #2A3347",
"h#	c #293443",
"i#	c #868D1C",
"j#	c #98A026",
"k#	c #B4BC35",
"l#	c #939B40",
"m#	c #151F3C",
"n#	c #132039",
"o#	c #2C3845",
"p#	c #2F3A46",
"q#	c #152135",
"r#	c #1E2B3E",
"s#	c #232E41",
"t#	c #1D2B3E",
"u#	c #2A3143",
"v#	c #2C3244",
"w#	c #353A4D",
"x#	c #2C3446",
"y#	c #21283D",
"z#	c #313745",
"A#	c #293341",
"B#	c #263041",
"C#	c #142233",
"D#	c #1F2C3F",
"E#	c #2A3446",
"F#	c #3E4958",
"G#	c #172536",
"H#	c #1C2736",
"I#	c #2F3648",
"J#	c #283042",
"K#	c #272F43",
"L#	c #202B3F",
"M#	c #24303F",
"N#	c #8C9222",
"O#	c #9EA628",
"P#	c #B7BE3A",
"Q#	c #B0B846",
"R#	c #232F3D",
"S#	c #293048",
"T#	c #2E344D",
"U#	c #18243F",
"V#	c #0D2438",
"W#	c #16273C",
"X#	c #0B1E37",
"Y#	c #31384B",
"Z#	c #313749",
"`#	c #2E3447",
" $	c #282B40",
".$	c #0B1827",
"+$	c #1B2632",
"@$	c #0E1D2A",
"#$	c #0B1C2C",
"$$	c #182435",
"%$	c #232C3E",
"&$	c #31394B",
"*$	c #63707D",
"=$	c #313A4B",
"-$	c #102533",
";$	c #1C3448",
">$	c #1C2D3E",
",$	c #1E2B3C",
"'$	c #1E2C3E",
")$	c #1B2C39",
"!$	c #929824",
"~$	c #A2AA29",
"{$	c #B8C03C",
"]$	c #CBD44E",
"^$	c #6A7650",
"/$	c #292E47",
"($	c #4D4349",
"_$	c #615245",
":$	c #977E57",
"<$	c #997D54",
"[$	c #605545",
"}$	c #574E4B",
"|$	c #383B4A",
"1$	c #282D48",
"2$	c #2F2C4E",
"3$	c #2C2C45",
"4$	c #0D2130",
"5$	c #0C2235",
"6$	c #0E2439",
"7$	c #0D2539",
"8$	c #152436",
"9$	c #242E40",
"0$	c #1D2A3D",
"a$	c #6D7885",
"b$	c #525B69",
"c$	c #262E40",
"d$	c #1D2D3E",
"e$	c #1E374C",
"f$	c #193146",
"g$	c #172F41",
"h$	c #182F43",
"i$	c #243A45",
"j$	c #A5B129",
"k$	c #C2CD3D",
"l$	c #D1D24F",
"m$	c #CFBB5B",
"n$	c #B49265",
"o$	c #D3A366",
"p$	c #D39A4D",
"q$	c #DBA660",
"r$	c #DCA965",
"s$	c #DAA35D",
"t$	c #C6914A",
"u$	c #BE8E50",
"v$	c #98714F",
"w$	c #4D4A49",
"x$	c #1B374E",
"y$	c #133553",
"z$	c #1D3B54",
"A$	c #1F3950",
"B$	c #1E3B51",
"C$	c #1E3346",
"D$	c #222C3D",
"E$	c #182639",
"F$	c #3F4A5A",
"G$	c #495563",
"H$	c #293143",
"I$	c #34394C",
"J$	c #263143",
"K$	c #192D3E",
"L$	c #24394F",
"M$	c #304755",
"N$	c #405756",
"O$	c #BDAE3B",
"P$	c #A5953F",
"Q$	c #B7985E",
"R$	c #C79C69",
"S$	c #B58E58",
"T$	c #CC9956",
"U$	c #D09950",
"V$	c #CD974F",
"W$	c #CC964E",
"X$	c #D39C54",
"Y$	c #C39252",
"Z$	c #B98949",
"`$	c #C99751",
" %	c #B98F53",
".%	c #BA945D",
"+%	c #736854",
"@%	c #404F5A",
"#%	c #324D66",
"$%	c #2F4B64",
"%%	c #1D3048",
"&%	c #1F273B",
"*%	c #202D3F",
"=%	c #172437",
"-%	c #0E1B32",
";%	c #262E42",
">%	c #383C4E",
",%	c #34374A",
"'%	c #202D44",
")%	c #284364",
"!%	c #465D5D",
"~%	c #553A22",
"{%	c #7C5931",
"]%	c #B68852",
"^%	c #E1B175",
"/%	c #DAA35B",
"(%	c #D7A45F",
"_%	c #CE984F",
":%	c #CE9851",
"<%	c #CD9951",
"[%	c #D59E53",
"}%	c #BC8B4C",
"|%	c #C19D6B",
"1%	c #A38D6C",
"2%	c #B08F63",
"3%	c #B9894A",
"4%	c #79592D",
"5%	c #31210B",
"6%	c #314C6A",
"7%	c #3E5363",
"8%	c #767F71",
"9%	c #343D46",
"0%	c #0F1C34",
"a%	c #44504F",
"b%	c #21293C",
"c%	c #181F3B",
"d%	c #1E263D",
"e%	c #283136",
"f%	c #64723C",
"g%	c #6F7926",
"h%	c #171009",
"i%	c #000000",
"j%	c #271D0E",
"k%	c #5B4220",
"l%	c #916E3C",
"m%	c #B48A52",
"n%	c #D29C53",
"o%	c #D2A56A",
"p%	c #A87D44",
"q%	c #CA9650",
"r%	c #C9944D",
"s%	c #8C6A3B",
"t%	c #8D6F45",
"u%	c #5A4426",
"v%	c #181008",
"w%	c #3D3E39",
"x%	c #8B9689",
"y%	c #C4C89E",
"z%	c #FFFFC6",
"A%	c #D3D7A8",
"B%	c #A3AA86",
"C%	c #BBC28F",
"D%	c #ECF39C",
"E%	c #AEB772",
"F%	c #8F9954",
"G%	c #A7B152",
"H%	c #C1CB46",
"I%	c #D1D92F",
"J%	c #1C140B",
"K%	c #010102",
"L%	c #0A0703",
"M%	c #312513",
"N%	c #6E5431",
"O%	c #C2904D",
"P%	c #98703B",
"Q%	c #41301A",
"R%	c #161008",
"S%	c #070402",
"T%	c #010000",
"U%	c #8B8469",
"V%	c #FFFFD8",
"W%	c #FFFFCD",
"X%	c #F8FAC7",
"Y%	c #FEFFC6",
"Z%	c #FFFFC1",
"`%	c #FFFFB4",
" &	c #F7FC9D",
".&	c #FAFF8C",
"+&	c #F8FF73",
"@&	c #EEF75A",
"#&	c #DFE842",
"$&	c #C8D228",
"%&	c #322414",
"&&	c #161009",
"*&	c #140F09",
"=&	c #000002",
"-&	c #362715",
";&	c #151009",
">&	c #110E09",
",&	c #372F21",
"'&	c #2D1F0E",
")&	c #9E9577",
"!&	c #F4F1CD",
"~&	c #FCFCD2",
"{&	c #FAFBCE",
"]&	c #FAFBCA",
"^&	c #FAFBC4",
"/&	c #FAFBB8",
"(&	c #F9FBAA",
"_&	c #F7FC95",
":&	c #F4FB7F",
"<&	c #F0F766",
"[&	c #E8F151",
"}&	c #DAE531",
"|&	c #78572F",
"1&	c #402E1B",
"2&	c #8D7233",
"3&	c #86812B",
"4&	c #363216",
"5&	c #261C10",
"6&	c #0B0704",
"7&	c #221E15",
"8&	c #827A63",
"9&	c #D1CDB2",
"0&	c #807458",
"a&	c #211304",
"b&	c #D3CCA9",
"c&	c #FFFFE4",
"d&	c #FBFCD4",
"e&	c #FBFCD0",
"f&	c #FBFCC9",
"g&	c #FBFCC0",
"h&	c #FBFCB2",
"i&	c #FCFDA0",
"j&	c #FAFD89",
"k&	c #F8FE72",
"l&	c #F3FD5D",
"m&	c #EBF641",
"n&	c #44311C",
"o&	c #F0F150",
"p&	c #AFAA4B",
"q&	c #605B2D",
"r&	c #291B0F",
"s&	c #3C3420",
"t&	c #99936A",
"u&	c #E2DDAC",
"v&	c #FFFFDD",
"w&	c #FFFFDE",
"x&	c #BDBA9C",
"y&	c #918C76",
"z&	c #E4E2BD",
"A&	c #FEFED9",
"B&	c #FCFDD0",
"C&	c #FCFDCB",
"D&	c #FCFDC2",
"E&	c #FCFDB4",
"F&	c #FCFDA4",
"G&	c #FDFD91",
"H&	c #FDFE7A",
"I&	c #FCFE66",
"J&	c #F8FF46",
"K&	c #FFFF5C",
"L&	c #DAD45D",
"M&	c #24120C",
"N&	c #857648",
"O&	c #FFFFB9",
"P&	c #FDFEBE",
"Q&	c #FDFDC5",
"R&	c #FFFFD3",
"S&	c #FFFFD9",
"T&	c #FFFFD0",
"U&	c #FCFDCA",
"V&	c #FDFDC4",
"W&	c #FDFDBD",
"X&	c #FDFDB0",
"Y&	c #FDFEA2",
"Z&	c #FDFE8E",
"`&	c #FDFE7E",
" *	c #FEFE68",
".*	c #FFFF45",
"+*	c #D6D342",
"@*	c #686125",
"#*	c #A39B4F",
"$*	c #FFFF93",
"%*	c #FEFE9E",
"&*	c #FDFDAB",
"**	c #FDFEB2",
"=*	c #FEFEB9",
"-*	c #FEFEBB",
";*	c #FEFDBA",
">*	c #FDFEB7",
",*	c #FDFDB1",
"'*	c #FEFEA8",
")*	c #FEFE9C",
"!*	c #FEFE8F",
"~*	c #FDFE7C",
"{*	c #FEFE63",
"]*	c #FFFF3F",
"^*	c #FFFF55",
"/*	c #FFFF6E",
"(*	c #FEFE82",
"_*	c #FDFF90",
":*	c #FDFE98",
"<*	c #FEFFA0",
"[*	c #FEFF9D",
"}*	c #FDFE97",
"|*	c #FEFF8F",
"1*	c #FFFF81",
"2*	c #FFFF69",
"3*	c #FFFF42",
"4*	c #FEFF61",
"5*	c #FFFE6C",
"6*	c #FFFF76",
"7*	c #FFFF7A",
"8*	c #FFFF75",
"9*	c #FFFF6A",
"0*	c #FFFF5B",
"a*	c #FFFF44",
"                          . + @ # $ %                           ",
"                    % & * = - ; > , ' ) ! ~                     ",
"                { ] ^ / ( _ : < [ } | 1 2 3 4 5                 ",
"              6 7 8 9 0 a b c d e f g h i j k l m n             ",
"          o p q r s t u v w x y z A B C D E F G H I J           ",
"        K L M N O P Q R S T U V W X Y Z `  .P ..+.@.#.$.        ",
"        %.&.*.=.-.;.>.,.'.).!.~.{.].^./.(._.:.<.[.}.|.1.K       ",
"      2.3.4.5.6.7.8.9.0.a.b.c.d.e.f.g.h.i.j.k.l.m.n.o.p.q.r.    ",
"    s.t.u.v.w.x.y.z.A.B.C.D.E.F.G.H.I.J.K.L.M.N.O.P.Q.R.S.T.    ",
"    U.V.W.X.Y.Z.`. +.+++@+#+$+%+&+*+=+-+;+>+,+'+)+!+~+{+]+^+/+  ",
"  (+_+:+<+[+}+|+1+2+3+4+5+6+7+8+9+0+a+b+c+d+e+f+g+h+i+j+k+l+m+  ",
"  U.n+o+p+q+r+s+t+u+v+w+x+y+z+A+B+C+D+E+F+G+H+I+J+K+L+M+N+O+P+  ",
"  Q+R+S+T+U+V+W+X+Y+Z+`+ @.@+@@@#@$@%@&@*@=@-@;@>@,@'@)@!@~@{@]@",
"^@/@(@_@:@<@[@}@|@1@2@3@4@5@6@7@8@9@0@a@b@c@d@e@f@g@h@i@j@k@l@m@",
"n@o@p@q@r@s@t@u@v@w@x@y@z@A@B@C@D@E@F@G@b@H@I@J@K@L@M@N@O@;@e@P@",
"Q@R@S@T@U@V@W@X@Y@Z@`@ #.#e++#@###$#%#&#*#=#-#;#;#>#,#7@'#)#'#!#",
"~#{#]#^#/#(#_#:#<#[#}#|#1#2#'@3#4#5#6#7#8#9#*#0#a#b#c#d#e#f#g#h#",
"i#j#k#l#m#n#o#p#q#r#s#t#u#v#w#x#y#z#A#B#C#D#E#F#8#G#H#I#J#K#L#M#",
"N#O#P#Q#R#S#T#U#V#W#X#J+Y#Z#`# $.$+$@$#$$$%$&$*$=$5@-$;$>$,$'$)$",
"!$~${$]$^$/$($_$:$<$[$}$|$1$2$3$4$5$6$7$8$9$0$a$b$c$d$e$f$g$h$i$",
"  j$k$l$m$n$o$p$q$r$s$t$u$v$w$x$y$z$A$B$C$D$E$F$G$H$I$J$K$L$M$N$",
"  O$P$Q$R$S$T$U$V$W$X$Y$Z$`$ %.%+%@%#%$%%%&%*%=%-%;%>%,%'%)%!%  ",
"~%{%]%^%/%(%_%:%<%[%}%|%1%2%3%4%5%W 6%7%8%9%0%&#a%b%c%d%e%f%g%  ",
"h%i%j%k%l%m%n%o%p%q%r%s%t%u%v%i%i%w%x%y%z%A%B%C%D%E%F%G%H%I%    ",
"J%i%K%i%i%L%M%N%O%P%Q%R%i%i%i%S%T%U%V%W%X%Y%Z%`% &.&+&@&#&$&    ",
"  %&&&*&=&i%i%i%-&;&i%i%i%>&,&'&)&!&~&{&]&^&/&(&_&:&<&[&}&      ",
"  |&1&2&3&4&i%i%5&6&i%7&8&9&0&a&b&c&d&e&f&g&h&i&j&k&l&m&        ",
"    n&    o&p&q&r&s&t&u&v&w&x&y&z&A&B&C&D&E&F&G&H&I&J&          ",
"            K&L&M&N&`%O&P&Q&R&S&T&U&V&W&X&Y&Z&`& *.*            ",
"              +*@*#*$*%*&***=*-*;*>*,*'*)*!*~*{*]*              ",
"                  ^*/*(*_*:*%*<*<*[*}*|*1*2*3*                  ",
"                        4*5*6*7*7*8*9*0*a*                      "};
