/* XPM */
static char * black_icon_xpm[] = {
"22 22 211 2",
"  	c None",
". 	c #323132",
"+ 	c #313131",
"@ 	c #2F2F2F",
"# 	c #2D2D2D",
"$ 	c #29292A",
"% 	c #282829",
"& 	c #363737",
"* 	c #373838",
"= 	c #383838",
"- 	c #363636",
"; 	c #323232",
"> 	c #303030",
", 	c #2C2C2D",
"' 	c #242425",
") 	c #212122",
"! 	c #202021",
"~ 	c #39393A",
"{ 	c #3C3C3D",
"] 	c #3F3F41",
"^ 	c #404041",
"/ 	c #3C3C3E",
"( 	c #353435",
"_ 	c #302F30",
": 	c #2B2B2C",
"< 	c #262627",
"[ 	c #232324",
"} 	c #202121",
"| 	c #1C1D1D",
"1 	c #393A3B",
"2 	c #3E3F40",
"3 	c #424344",
"4 	c #48494B",
"5 	c #48484B",
"6 	c #434346",
"7 	c #3E3E3F",
"8 	c #3A3A3A",
"9 	c #333334",
"0 	c #2D2D2E",
"a 	c #1C1C1D",
"b 	c #1A1A1A",
"c 	c #373738",
"d 	c #3C3D3E",
"e 	c #444749",
"f 	c #4A4D51",
"g 	c #53555A",
"h 	c #525459",
"i 	c #4B4B50",
"j 	c #444447",
"k 	c #3E3E40",
"l 	c #303031",
"m 	c #2A2A2B",
"n 	c #252526",
"o 	c #1B1B1B",
"p 	c #181818",
"q 	c #333333",
"r 	c #404143",
"s 	c #494C50",
"t 	c #56595F",
"u 	c #63666B",
"v 	c #626469",
"w 	c #56575F",
"x 	c #4A4B50",
"y 	c #434345",
"z 	c #323234",
"A 	c #2B2B2D",
"B 	c #171717",
"C 	c #131313",
"D 	c #424245",
"E 	c #4D4E55",
"F 	c #5F6168",
"G 	c #747678",
"H 	c #757678",
"I 	c #64646B",
"J 	c #4F5056",
"K 	c #444446",
"L 	c #38393B",
"M 	c #313133",
"N 	c #252426",
"O 	c #1F1F20",
"P 	c #1C1C1C",
"Q 	c #191919",
"R 	c #161616",
"S 	c #151515",
"T 	c #2E2E2E",
"U 	c #3A3A3B",
"V 	c #4E4E55",
"W 	c #737477",
"X 	c #727376",
"Y 	c #606169",
"Z 	c #4D4E54",
"` 	c #414244",
" .	c #37373A",
"..	c #303032",
"+.	c #1E1F20",
"@.	c #1B1C1C",
"#.	c #181819",
"$.	c #161617",
"%.	c #2D2C2C",
"&.	c #383939",
"*.	c #3F4042",
"=.	c #48494E",
"-.	c #56575E",
";.	c #616269",
">.	c #5D5F67",
",.	c #53555D",
"'.	c #48494D",
").	c #3E3F41",
"!.	c #363638",
"~.	c #302F31",
"{.	c #2A292A",
"].	c #1E1E1F",
"^.	c #101010",
"/.	c #292827",
"(.	c #2E2E2F",
"_.	c #343435",
":.	c #3A3B3C",
"<.	c #4B4C50",
"[.	c #515258",
"}.	c #4C4E54",
"|.	c #414446",
"1.	c #3A3C3D",
"2.	c #2E2D2E",
"3.	c #292728",
"4.	c #242323",
"5.	c #1E1E1E",
"6.	c #19191A",
"7.	c #151615",
"8.	c #141514",
"9.	c #252524",
"0.	c #2C2B2B",
"a.	c #2F2F30",
"b.	c #343535",
"c.	c #3B3B3C",
"d.	c #414143",
"e.	c #414144",
"f.	c #3D3E41",
"g.	c #3A3B3D",
"h.	c #353737",
"i.	c #292727",
"j.	c #262524",
"k.	c #21201F",
"l.	c #181717",
"m.	c #161515",
"n.	c #0E0E0E",
"o.	c #2D2E2E",
"p.	c #323133",
"q.	c #343537",
"r.	c #353639",
"s.	c #353539",
"t.	c #343436",
"u.	c #323233",
"v.	c #2E2D2C",
"w.	c #2D2B2A",
"x.	c #2B2A29",
"y.	c #282827",
"z.	c #242423",
"A.	c #1E1D1D",
"B.	c #191818",
"C.	c #141414",
"D.	c #111111",
"E.	c #0D0D0D",
"F.	c #232325",
"G.	c #262729",
"H.	c #292A2C",
"I.	c #2C2C2F",
"J.	c #2D2D30",
"K.	c #2D2D2F",
"L.	c #2C2C2C",
"M.	c #2B2A2A",
"N.	c #2C2A29",
"O.	c #2D2C2B",
"P.	c #282727",
"Q.	c #212120",
"R.	c #0C0C0C",
"S.	c #252627",
"T.	c #262628",
"U.	c #272626",
"V.	c #2C2B2A",
"W.	c #2A2929",
"X.	c #222222",
"Y.	c #191A1A",
"Z.	c #1F1F21",
"`.	c #232221",
" +	c #201F1F",
".+	c #121212",
"++	c #161717",
"@+	c #1A1A1B",
"#+	c #1D1D1C",
"$+	c #222120",
"%+	c #232322",
"&+	c #1C1C1B",
"*+	c #161615",
"=+	c #0A0A0A",
"-+	c #141515",
";+	c #1B1A1A",
">+	c #1D1D1D",
",+	c #1F1E1E",
"'+	c #1A1A18",
")+	c #181916",
"!+	c #10110F",
"~+	c #121213",
"{+	c #141415",
"]+	c #181816",
"^+	c #171815",
"/+	c #111212",
"(+	c #111010",
"_+	c #0F100F",
":+	c #0F0F0F",
"<+	c #090909",
"[+	c #0B0B0B",
"              . + @ # $ %                   ",
"          & * = - ; > , $ ' ) !             ",
"        ~ { ] ^ / = ( _ : < [ } |           ",
"      1 2 3 4 5 6 7 8 9 0 % ' ! a b         ",
"    c d e f g h i j k c l m n ! a o p       ",
"  q ~ r s t u v w x y 1 z A < ! a b B C     ",
"  ; 1 D E F G H I J K L M : N O P Q R S     ",
"T ; U 6 V F W X Y Z `  ...m ' +.@.#.$.S     ",
"%.+ &.*.=.-.;.>.,.'.).!.~.{.[ ].b p R S ^.  ",
"/.(._.:.` <.[.}.'.|.1.9 2.3.4.5.6.B 7.8.^.  ",
"9.0.a.b.c.d.j e.f.g.h.> 0.i.j.k.o l.m.C n.  ",
"! < $ o.p.q.r.s.t.u.a.v.w.x.y.z.A.B.C.D.E.  ",
"].) F.G.H.I.J.K.0 L.M.N.O.0.0.P.Q.Q C.D.R.  ",
"  a +.) [ S.T.< < U.U./.V.%.%.W.X.Q C D.    ",
"  #.Y.a ].O ! Z.! Q.`.j.W.0.0.P. +B .+n.    ",
"  $.++p 6.@+@+@+@+b #+$+9.P.U.%+&+*+D.=+    ",
"    -+R B R $.B R R p ;+>+,+A.o '+)+!+      ",
"      C.C.C C.S C ~+{+C.R R S S ]+^+        ",
"        ^.D.C /+^.(+^.^.^.D.^._+_+          ",
"          :+:+:+:+:+n.:+n.:+R.<+            ",
"                R.R.R.[+<+                  ",
"                                            "};
