/* XPM */
static char * circle_xpm[] = {
"22 22 48 1",
" 	c None",
".	c #181818",
"+	c #181418",
"@	c #100C10",
"#	c #080808",
"$	c #000400",
"%	c #080408",
"&	c #292429",
"*	c #202020",
"=	c #181C18",
"-	c #080C08",
";	c #000000",
">	c #312C31",
",	c #313031",
"'	c #393439",
")	c #313431",
"!	c #414041",
"~	c #414441",
"{	c #4A444A",
"]	c #393C39",
"^	c #201C20",
"/	c #101010",
"(	c #525052",
"_	c #625D62",
":	c #FFFFFF",
"<	c #202420",
"[	c #393839",
"}	c #4A484A",
"|	c #626162",
"1	c #949194",
"2	c #737173",
"3	c #948D94",
"4	c #949594",
"5	c #524C52",
"6	c #838183",
"7	c #8B858B",
"8	c #A4A1A4",
"9	c #9C9D9C",
"0	c #292829",
"a	c #5A595A",
"b	c #7B797B",
"c	c #9C959C",
"d	c #4A4C4A",
"e	c #525552",
"f	c #6A696A",
"g	c #413C41",
"h	c #292C29",
"i	c #101410",
"                      ",
"        .+@#$%        ",
"      &**=+-#;;;      ",
"    &>,',>*.-#;;;;    ",
"   *>)!~{],^/$$;;;;   ",
"   &,{(_::::::$;;;;   ",
"  .<[}|:12_[**:#;;;;  ",
"  .&'(:34125&/$:#;;;  ",
" -+^,:67896(0-$#:;;;; ",
" #@.0:ab1cbd*@;;:;;;; ",
" $#/=:!effa,+$;;:;;;; ",
" %$#/:<,[gh.#$;;:@;;; ",
" ;;;#:/i.i/%;;;;:;;;; ",
" ;;;;:.#%%;;;;;;:;;;; ",
"  ;;;;:;;;;;;;;:+;;;  ",
"  ;;;;#:#;;;;;:*;;;;  ",
"   ;;;;#::::::+;;;;   ",
"   ;;;;;;;;@;;;;;;;   ",
"    ;;;;;;;;;;;;;;    ",
"      ;;;;;;;;;;      ",
"        ;;;;;;        ",
"                      "};
