/* XPM */
static char * cross_xpm[] = {
"22 22 47 1",
" 	c None",
".	c #202020",
"+	c #201C20",
"@	c #101010",
"#	c #080C08",
"$	c #100C10",
"%	c #292829",
"&	c #181C18",
"*	c #181418",
"=	c #080808",
"-	c #000000",
";	c #000400",
">	c #313031",
",	c #312C31",
"'	c #393439",
")	c #181818",
"!	c #292C29",
"~	c #393C39",
"{	c #414041",
"]	c #414441",
"^	c #4A444A",
"/	c #FFFFFF",
"(	c #6A656A",
"_	c #625D62",
":	c #5A595A",
"<	c #202420",
"[	c #393839",
"}	c #4A484A",
"|	c #838183",
"1	c #7B7D7B",
"2	c #737173",
"3	c #080408",
"4	c #413C41",
"5	c #292429",
"6	c #525052",
"7	c #6A696A",
"8	c #A4A1A4",
"9	c #949194",
"0	c #524C52",
"a	c #8B858B",
"b	c #ACAAAC",
"c	c #7B797B",
"d	c #8B898B",
"e	c #4A4C4A",
"f	c #525552",
"g	c #9C999C",
"h	c #101410",
"                      ",
"        .+@@#$        ",
"      %..&*#=--;      ",
"    >,>'>,.)#=---@    ",
"   !,~{]^~>+@;;---@   ",
"   %>/(__:{,)$;-/,-   ",
"  +<[}/|12_[.#3/4--;  ",
"  )5'67/89205@/{----  ",
" @*+>}7a/b|6%/{-----= ",
" $$)%4:c9/de/^------; ",
" ==@&%{f77b/e;------3 ",
" =;=@)<>[4/g5;------; ",
" ;--==@h)/}3/&------3 ",
" 3---3;=/{---/.-----3 ",
"  -----/4-----/&----  ",
"  ----/{-------/.--3  ",
"   --/4---------/&-   ",
"   --,-----------$-   ",
"    --------------    ",
"      ----------      ",
"        ------        ",
"                      "};
