/* XPM */
static char * delete_xpm[] = {
"16 16 6 1",
" 	c None",
".	c #FFFFFF",
"+	c #CCCCCC",
"@	c #999999",
"#	c #666666",
"$	c #333333",
"                ",
"      $$$       ",
"  $$$$$$$$$$$   ",
"  $++++@@@@#$.  ",
"  $$$$$$$$$$$.  ",
"   $.++@@@#$..  ",
"   $.@+#@$#$.   ",
"   $.@+#@$#$.   ",
"   $.@+#@$#$.   ",
"   $.@+#@$#$.   ",
"   $.@+#@$#$.   ",
"   $.@+#@$#$.   ",
"   $.++@@@#$.   ",
"   $$$$$$$$$.   ",
"    .........   ",
"                "};
