/* XPM */
static char * ggo_xpm[] = {
"32 32 440 2",
"  	c None",
". 	c #878991",
"+ 	c #75767B",
"@ 	c #69696D",
"# 	c #606063",
"$ 	c #5B5A5D",
"% 	c #59595A",
"& 	c #5A595B",
"* 	c #626263",
"= 	c #CED4D7",
"- 	c #ABB2BD",
"; 	c #8A8FA0",
"> 	c #7E8290",
", 	c #84858B",
"' 	c #8C8C90",
") 	c #8E8E90",
"! 	c #888789",
"~ 	c #79787A",
"{ 	c #605F61",
"] 	c #434344",
"^ 	c #363536",
"/ 	c #444345",
"( 	c #5C5C5D",
"_ 	c #B4BAC4",
": 	c #CDD4D6",
"< 	c #E9EEEB",
"[ 	c #D1D7DA",
"} 	c #C0C4CE",
"| 	c #BBBDC5",
"1 	c #B1B2B7",
"2 	c #AAAAAD",
"3 	c #A5A5A7",
"4 	c #A1A0A2",
"5 	c #9D9D9E",
"6 	c #99999A",
"7 	c #909091",
"8 	c #757576",
"9 	c #404041",
"0 	c #242425",
"a 	c #3F3F40",
"b 	c #9396A3",
"c 	c #9299AA",
"d 	c #C8D0D3",
"e 	c #F6F9F7",
"f 	c #E5E9E9",
"g 	c #C9CDD5",
"h 	c #BCBDC5",
"i 	c #AEAEB3",
"j 	c #A3A3A5",
"k 	c #9C9C9E",
"l 	c #989899",
"m 	c #949495",
"n 	c #919091",
"o 	c #8E8D8E",
"p 	c #8C8B8C",
"q 	c #868687",
"r 	c #636364",
"s 	c #1F1F20",
"t 	c #272728",
"u 	c #525253",
"v 	c #767880",
"w 	c #666A7A",
"x 	c #8E92A4",
"y 	c #C4C9D1",
"z 	c #D6DBDF",
"A 	c #C8CED5",
"B 	c #B7BAC6",
"C 	c #A9ABB5",
"D 	c #9EA0A5",
"E 	c #98989B",
"F 	c #939395",
"G 	c #8B8A8C",
"H 	c #878687",
"I 	c #838384",
"J 	c #808081",
"K 	c #7E7F7F",
"L 	c #7D7D7D",
"M 	c #696969",
"N 	c #222222",
"O 	c #1A1A1A",
"P 	c #4C4D4D",
"Q 	c #6C6D70",
"R 	c #4C4D54",
"S 	c #6A6D77",
"T 	c #9FA2AD",
"U 	c #B0B3BF",
"V 	c #B5B9C4",
"W 	c #AEB1BD",
"X 	c #A5A7B2",
"Y 	c #9A9CA4",
"Z 	c #929397",
"` 	c #8D8D90",
" .	c #88888B",
"..	c #848486",
"+.	c #807F81",
"@.	c #7C7B7C",
"#.	c #797979",
"$.	c #767676",
"%.	c #747474",
"&.	c #727273",
"*.	c #707171",
"=.	c #606060",
"-.	c #171718",
";.	c #4F4F4F",
">.	c #6C6C6E",
",.	c #434347",
"'.	c #4D4D52",
").	c #84858A",
"!.	c #909299",
"~.	c #9A9DA6",
"{.	c #9B9EA8",
"].	c #9599A2",
"^.	c #91959B",
"/.	c #8A8C90",
"(.	c #86868A",
"_.	c #808183",
":.	c #7C7C7E",
"<.	c #787779",
"[.	c #737374",
"}.	c #707071",
"|.	c #6C6C6D",
"1.	c #6A6A6A",
"2.	c #686868",
"3.	c #666666",
"4.	c #646565",
"5.	c #4D4D4D",
"6.	c #0C0C0D",
"7.	c #1E1E1E",
"8.	c #454547",
"9.	c #333336",
"0.	c #67676A",
"a.	c #7D7D81",
"b.	c #818185",
"c.	c #8B8C91",
"d.	c #87888E",
"e.	c #82858A",
"f.	c #808487",
"g.	c #79797C",
"h.	c #747477",
"i.	c #707072",
"j.	c #686769",
"k.	c #656465",
"l.	c #616162",
"m.	c #5F5F5F",
"n.	c #5D5D5D",
"o.	c #5B5B5C",
"p.	c #585859",
"q.	c #575757",
"r.	c #2E2E2E",
"s.	c #050505",
"t.	c #333333",
"u.	c #565658",
"v.	c #29292B",
"w.	c #3F3E41",
"x.	c #68696B",
"y.	c #6E6E71",
"z.	c #717174",
"A.	c #7B7C7F",
"B.	c #757579",
"C.	c #727276",
"D.	c #707174",
"E.	c #6F6F72",
"F.	c #88888A",
"G.	c #8E8D8F",
"H.	c #878788",
"I.	c #79797A",
"J.	c #5D5D5E",
"K.	c #535353",
"L.	c #515151",
"M.	c #4F4F50",
"N.	c #4D4D4E",
"O.	c #4C4C4C",
"P.	c #4B4B4B",
"Q.	c #444545",
"R.	c #0C0C0C",
"S.	c #0F0F0F",
"T.	c #505050",
"U.	c #343335",
"V.	c #202022",
"W.	c #4C4C4D",
"X.	c #5B5B5D",
"Y.	c #5E5D60",
"Z.	c #616163",
"`.	c #69696C",
" +	c #636366",
".+	c #626265",
"++	c #626165",
"@+	c #D2D1D2",
"#+	c #939394",
"$+	c #666567",
"%+	c #5E5D5F",
"&+	c #737274",
"*+	c #B5B4B5",
"=+	c #A7A7A8",
"-+	c #454545",
";+	c #424243",
">+	c #414141",
",+	c #3F3F3F",
"'+	c #3E3E3E",
")+	c #222223",
"!+	c #030303",
"~+	c #555555",
"{+	c #1F1E20",
"]+	c #232324",
"^+	c #484849",
"/+	c #4D4C4E",
"(+	c #504F51",
"_+	c #535255",
":+	c #575659",
"<+	c #545456",
"[+	c #7F7F80",
"}+	c #ECECEC",
"|+	c #6B6B6C",
"1+	c #4D4C4D",
"2+	c #49494A",
"3+	c #B4B4B5",
"4+	c #545455",
"5+	c #3B3C3C",
"6+	c #373738",
"7+	c #363636",
"8+	c #353535",
"9+	c #343434",
"0+	c #2C2C2C",
"a+	c #161616",
"b+	c #3F4040",
"c+	c #141415",
"d+	c #262627",
"e+	c #3E3D3F",
"f+	c #454446",
"g+	c #535354",
"h+	c #4B4B4D",
"i+	c #49494B",
"j+	c #CFCFCF",
"k+	c #DADADA",
"l+	c #777678",
"m+	c #3A3A3B",
"n+	c #383838",
"o+	c #333434",
"p+	c #2F2F30",
"q+	c #3A3A3A",
"r+	c #2B2B2B",
"s+	c #2A2929",
"t+	c #0B0B0B",
"u+	c #080808",
"v+	c #2C2D2E",
"w+	c #101011",
"x+	c #252526",
"y+	c #454546",
"z+	c #A4A4A5",
"A+	c #656566",
"B+	c #787879",
"C+	c #BEBEBE",
"D+	c #A5A5A6",
"E+	c #B5B5B6",
"F+	c #F4F4F4",
"G+	c #BBBBBB",
"H+	c #646361",
"I+	c #323132",
"J+	c #2D2D2E",
"K+	c #2C2C2D",
"L+	c #303131",
"M+	c #2D2D2D",
"N+	c #7C7C7C",
"O+	c #4B4B4C",
"P+	c #898989",
"Q+	c #646464",
"R+	c #252525",
"S+	c #0F0F10",
"T+	c #040404",
"U+	c #202021",
"V+	c #0E0E0F",
"W+	c #212122",
"X+	c #8B8B8B",
"Y+	c #B1B1B2",
"Z+	c #434244",
"`+	c #CECECF",
" @	c #8A898A",
".@	c #F8F8F8",
"+@	c #ACACAC",
"@@	c #4C4D4E",
"#@	c #2D2F2F",
"$@	c #292B2B",
"%@	c #2F3031",
"&@	c #737373",
"*@	c #6F6F6F",
"=@	c #424242",
"-@	c #626262",
";@	c #CCCCCC",
">@	c #313131",
",@	c #434343",
"'@	c #D6D6D6",
")@	c #4A4A4A",
"!@	c #141414",
"~@	c #292929",
"{@	c #19191A",
"]@	c #0C0D0D",
"^@	c #1C1C1D",
"/@	c #7F7F7F",
"(@	c #BFBFBF",
"_@	c #39383A",
":@	c #D5D5D5",
"<@	c #7B7B7B",
"[@	c #676768",
"}@	c #F3F3F3",
"|@	c #B3B3B3",
"1@	c #424444",
"2@	c #262C2A",
"3@	c #242727",
"4@	c #EBEBEB",
"5@	c #C8C8C8",
"6@	c #A9AAAA",
"7@	c #B2B2B2",
"8@	c #232323",
"9@	c #CDCDCD",
"0@	c #8A8A8A",
"a@	c #585858",
"b@	c #171717",
"c@	c #3B3B3C",
"d@	c #A7A7A7",
"e@	c #6D6D6E",
"f@	c #7C7C7D",
"g@	c #3C3C3D",
"h@	c #D1D1D1",
"i@	c #464748",
"j@	c #242726",
"k@	c #222323",
"l@	c #2A2A2B",
"m@	c #CACACA",
"n@	c #B4B4B4",
"o@	c #1D1D1D",
"p@	c #202020",
"q@	c #919191",
"r@	c #282828",
"s@	c #070707",
"t@	c #212121",
"u@	c #191919",
"v@	c #0B0B0C",
"w@	c #181818",
"x@	c #989898",
"y@	c #4A4A4B",
"z@	c #282929",
"A@	c #E8E8E8",
"B@	c #222425",
"C@	c #DFDFDF",
"D@	c #494949",
"E@	c #707070",
"F@	c #404040",
"G@	c #D7D7D7",
"H@	c #090909",
"I@	c #A8A8A8",
"J@	c #EFEFF0",
"K@	c #E6E6E6",
"L@	c #E3E3E3",
"M@	c #E5E5E5",
"N@	c #A0A0A0",
"O@	c #303031",
"P@	c #2F2F2F",
"Q@	c #777777",
"R@	c #BCBCBD",
"S@	c #373838",
"T@	c #373737",
"U@	c #C0C0C0",
"V@	c #474747",
"W@	c #9D9D9D",
"X@	c #393939",
"Y@	c #848484",
"Z@	c #2A2A2A",
"`@	c #121313",
" #	c #838383",
".#	c #727272",
"+#	c #6D6E6E",
"@#	c #858586",
"##	c #6E6E6E",
"$#	c #595959",
"%#	c #494848",
"&#	c #515050",
"*#	c #3B3B3B",
"=#	c #3C3C3C",
"-#	c #0E0E0E",
";#	c #515152",
">#	c #444445",
",#	c #464646",
"'#	c #BABABA",
")#	c #777878",
"!#	c #3B3A38",
"~#	c #3D3C39",
"{#	c #3E3D3A",
"]#	c #393936",
"^#	c #343330",
"/#	c #31302E",
"(#	c #30302F",
"_#	c #303030",
":#	c #131313",
"<#	c #151515",
"[#	c #4E4E4E",
"}#	c #1F2020",
"|#	c #BDBDBD",
"1#	c #393938",
"2#	c #3B3A39",
"3#	c #3A3A39",
"4#	c #383837",
"5#	c #242424",
"6#	c #1C1C1C",
"7#	c #787878",
"8#	c #616161",
"9#	c #525252",
"0#	c #262626",
"a#	c #444444",
"b#	c #484848",
"c#	c #565656",
"d#	c #545454",
"e#	c #5C5C5C",
"f#	c #5E5E5E",
"g#	c #5A5A5A",
"h#	c #5B5B5B",
"i#	c #2A2A29",
"j#	c #6B6B6B",
"k#	c #5D5C5C",
"l#	c #302F2E",
"m#	c #3C3C3B",
"n#	c #353534",
"o#	c #494948",
"p#	c #3D3D3D",
"q#	c #3C3C3A",
"r#	c #474644",
"s#	c #595957",
"t#	c #525251",
"u#	c #40403F",
"v#	c #424240",
"w#	c #444341",
"x#	c #484745",
"y#	c #52514F",
"z#	c #5E5D5A",
"A#	c #5C5B59",
"B#	c #5C5C5B",
"C#	c #5E5D5C",
"D#	c #62615E",
"E#	c #636360",
"F#	c #62615F",
"G#	c #565655",
"                        . + @ # $ % & *                         ",
"                  = - ; > , ' ) ! ~ { ] ^ / (                   ",
"              _ : < [ } | 1 2 3 4 5 6 7 8 9 0 a                 ",
"            b c d e f g h i j k l m n o p q r s t u             ",
"          v w x y z A B C D E F ) G H I J K L M N O P           ",
"        Q R S T U V W X Y Z `  ...+.@.#.$.%.&.*.=.O -.;.        ",
"      >.,.'.).!.~.{.].^./.(._.:.<.[.}.|.1.2.3.4.r 5.6.7.        ",
"      8.9.0.a.b.c.d.e.f.a.g.h.i.|.j.k.l.m.n.o.% p.q.r.s.t.      ",
"    u.v.w.x.y.z.A.B.C.D.y.E.F.G.H.I.J.q.K.L.M.N.O.P.Q.R.S.T.    ",
"    U.V.W.X.Y.Z.`. +.+++G.@+#+$+%+&+*+=+N.-+;+>+9 ,+'+)+!+r.    ",
"  ~+{+]+^+/+(+_+:+<+_+[+}+6 |+p.1+2+* 3+4+5+6+7+8+9+9+0+s.a+    ",
"  b+c+d+e+f+(+g+h+i+M.j+k+l+g+a m+n+m+|.N.o+p+n+q+9+r+s+t+u+-+  ",
"  v+w+x+y+z+A+B+C+D+E+F+G+H+q+I+p+J+K+L+9+M+N+%.O+P+Q+R+S+T+8+  ",
"  U+V+W+X+Y+O+Z+`+p  @.@+@@@#@$@%@J.&@*@=@-@;@] >@,@'@)@!@T+~@  ",
"  {@]@^@/@(@2+_@:@<@[@}@|@1@2@3@x+-+4@5@,@6@7@y+8@8@9@0@7.s.N   ",
"a@b@6.-.c@d@%.e@f@4+g@j+h@i@j@k@W+l@'@m@5.+@n@'+o@p@9@q@r@s@t@  ",
"  u@v@w@x@M % y@N.c@z@|+A@$.z@B@t@l@C@m@D@E@;@F@7.8+G@1.r@H@R+  ",
"  7.v@a+I@J@K@L@M@N@O@P@Q@R@*@S@T@$.U@0@V@>@W@<@X@Y@N+D@o@t+r.  ",
"  Z@]@`@a@ #.#+#@#M@##>@9+D@$#K.P.>+%#&#T@~@7+K.T.*#=#M+!@-#=#  ",
"  =#S.r@5@;#>#>+,#'#)#'+O@9+q+q+!#~#{#]#^#/#(#9+9+_#Z@o@:#<#[#  ",
"  L.b@}#|#W@,#X@q.I n.;+n+n+1#2#2#3#1#n+4#T@7+9+_#r+5#6#!@8@    ",
"    0+!@7+7#Q@8#9#5.;.,@>+=@=@=@=@=@=@=@>+F@'+q+8+r.0#o@b@,+    ",
"    [#O o@t.>+a#V@)@D@D@P.O.O.O.O.O.O.O.)@b#-+F@X@_#0#6#R+-@    ",
"      7+O )+r.X@>+b#5.T.K.~+c#c#c#c#~+d#9#;.)@,@q+_#R+p@b#      ",
"      -@0+p@Z@8+F@D@T.~+$#e#n.f#f#n.e#g#q.9#O.=@n+M+5#*#        ",
"        p.r+R+_#*#,#[#c#h#m.8#-@-@-@=.e#q.L.D@'+t.i#T@j#        ",
"          $#_#Z@9+,+D@L.a@k#=.8#8#=.f#g#K.P.=@7+l#m#1.          ",
"            c#'+r.9+'+V@[#d#a@g#g#$#~+T.D@F@T@n#o#m.            ",
"              L.;.=#7+q+>+V@P.5.5.O.b#,@p#q#r#s#t#              ",
"                  a@~+D@>+'+,+u#v#v#w#x#y#z#A#                  ",
"                      ~+f#m.n.B#C#D#E#F#G#                      ",
"                                                                "};
