/* XPM */
static char * info_xpm[] = {
"16 16 52 1",
" 	c None",
".	c #FFFFFF",
"+	c #C0C0C0",
"@	c #F7F1FF",
"#	c #A8A0B9",
"$	c #DBD4E9",
"%	c #948DA5",
"&	c #9790A8",
"*	c #B6AEC9",
"=	c #A19AB2",
"-	c #A19AB1",
";	c #DAD3EA",
">	c #ECE5FD",
",	c #DFD8EF",
"'	c #635D73",
")	c #8C869C",
"!	c #B6AECA",
"~	c #C8C0DE",
"{	c #A69FB8",
"]	c #B6AFC9",
"^	c #B3ACC6",
"/	c #B3ACC5",
"(	c #9E98AE",
"_	c #C0BAD0",
":	c #C4BED4",
"<	c #EBE4FD",
"[	c #95929D",
"}	c #9C96AE",
"|	c #9A94AB",
"1	c #BAB3CE",
"2	c #C6BFDB",
"3	c #C5BEDA",
"4	c #ADA7BF",
"5	c #ACA6BE",
"6	c #A7A1B8",
"7	c #DFD9F0",
"8	c #E5DFF6",
"9	c #A3A0AC",
"0	c #6F6B7D",
"a	c #C8C1DE",
"b	c #C5BEDB",
"c	c #ADA7C0",
"d	c #ACA6BF",
"e	c #C0BAD5",
"f	c #D9D2EF",
"g	c #BEB8D2",
"h	c #ACA7C0",
"i	c #C5BFDB",
"j	c #767386",
"k	c #B7B7B7",
"l	c #535353",
"m	c #0D0D0D",
"                ",
"     mmmmm      ",
"   mm:78>$mm.   ",
"  m_;|)'%^1em.  ",
"  m;|-'.'1e2mk. ",
" m:|-6%'}eia9l. ",
" m,=#50&ji~3gm. ",
" m8#d^'@'abg*m. ",
" m<d/1'@'2g*cm. ",
" m$^1''@'']4[l. ",
"  m1e'fff'c{mk. ",
"  me2'''''{(m.  ",
"  .mm9g!h[mm.   ",
"   .klmmmlk.    ",
"    .......     ",
"                "};
