/* XPM */
static char * number_xpm[] = {
"22 22 53 1",
" 	c None",
".	c #4A484A",
"+	c #313031",
"@	c #181418",
"#	c #101010",
"$	c #202020",
"%	c #393839",
"&	c #413C41",
"*	c #181C18",
"=	c #080C08",
"-	c #080808",
";	c #000000",
">	c #181818",
",	c #5A595A",
"'	c #312C31",
")	c #393439",
"!	c #393C39",
"~	c #5A555A",
"{	c #313431",
"]	c #414041",
"^	c #414441",
"/	c #4A444A",
"(	c #201C20",
"_	c #000400",
":	c #292429",
"<	c #525052",
"[	c #625D62",
"}	c #100C10",
"|	c #202420",
"1	c #626162",
"2	c #737173",
"3	c #7B7D7B",
"4	c #A4A1A4",
"5	c #EEEAEE",
"6	c #E6E6E6",
"7	c #080408",
"8	c #6A696A",
"9	c #8B858B",
"0	c #949594",
"a	c #FFFAFF",
"b	c #FFFFFF",
"c	c #292829",
"d	c #7B797B",
"e	c #949194",
"f	c #9C959C",
"g	c #FFF6FF",
"h	c #525552",
"i	c #F6F2F6",
"j	c #101410",
"k	c #F6EEF6",
"l	c #292C29",
"m	c #E6E2E6",
"n	c #EEEEEE",
"                      ",
"        .+@#$%        ",
"      &$$*@=-;;>      ",
"    ,'+)+'$>=-;;;!    ",
"   ~'{]^/!+(#__;;;%   ",
"   :+/<[[,]'>}_;;;;   ",
"  +|%.123456$=7;;;;>  ",
"  >:)<890abb:#_;;;;;  ",
" !@(+.8944abc=_;;;;;+ ",
" :}>c&,defgb$};;;;;;* ",
" =-#*c]h88gb@_;;;;;;- ",
" }_-#>|+%&ib-_;;;;;;- ",
" *;;--#j>jib;;;;;;;;* ",
" +;;;7_-77kb;;;;;;;;l ",
"  ;;;;;;;;mn;;;;;;;;  ",
"  >;;;;;;;;;;;;;;;;>  ",
"   ;;;;;;;;;;;;;;;;   ",
"   +;;;;;;;;;;;;;;l   ",
"    +;;;;;;;;;;;;c    ",
"      j;;;;;;;;@      ",
"        '>-7>c        ",
"                      "};
