/* XPM */
static char * square_xpm[] = {
"22 22 46 1",
" 	c None",
".	c #181818",
"+	c #181418",
"@	c #100C10",
"#	c #080808",
"$	c #000400",
"%	c #080408",
"&	c #292429",
"*	c #202020",
"=	c #181C18",
"-	c #080C08",
";	c #000000",
">	c #312C31",
",	c #313031",
"'	c #393439",
")	c #313431",
"!	c #414041",
"~	c #414441",
"{	c #4A444A",
"]	c #393C39",
"^	c #201C20",
"/	c #101010",
"(	c #525052",
"_	c #625D62",
":	c #5A595A",
"<	c #202420",
"[	c #393839",
"}	c #4A484A",
"|	c #FFFFFF",
"1	c #8B858B",
"2	c #949594",
"3	c #949194",
"4	c #737173",
"5	c #524C52",
"6	c #A4A1A4",
"7	c #9C9D9C",
"8	c #838183",
"9	c #292829",
"0	c #413C41",
"a	c #7B797B",
"b	c #9C959C",
"c	c #4A4C4A",
"d	c #525552",
"e	c #6A696A",
"f	c #292C29",
"g	c #101410",
"                      ",
"        .+@#$%        ",
"      &**=+-#;;;      ",
"    &>,',>*.-#;;;;    ",
"   *>)!~{],^/$$;;;;   ",
"   &,{(__:!>.@$;;;;   ",
"  .<[}||||||||||);;;  ",
"  .&'(|12345&/$|);;;  ",
" -+^,}|1678(9-$|';;;; ",
" #@.90|a3bac*@;|);;;; ",
" $#/=9|dee:,+$;|);;;; ",
" %$#/.|,[0f.#$;|);;;; ",
" ;;;##|g.g/%;;;|';;;; ",
" ;;;;%|#%%;;;;;|);;;; ",
"  ;;;;|;;;;;;;;|);;;  ",
"  ;;;;||||||||||);;;  ",
"   ;;;),',),',),-;;   ",
"   ;;;;;;;;;;;;;;;;   ",
"    ;;;;;;;;;;;;;;    ",
"      ;;;;;;;;;;      ",
"        ;;;;;;        ",
"                      "};
