/* XPM */
static char * stone_xpm[] = {
"22 22 61 1",
" 	c None",
".	c #181C18",
"+	c #181818",
"@	c #101010",
"#	c #DEDADE",
"$	c #EEEAEE",
"%	c #EEE6EE",
"&	c #292829",
"*	c #202020",
"=	c #181418",
"-	c #F6EEF6",
";	c #E6E6E6",
">	c #292C29",
",	c #312C31",
"'	c #313031",
")	c #393439",
"!	c #E6DEE6",
"~	c #EEEEEE",
"{	c #313431",
"]	c #414041",
"^	c #414441",
"/	c #4A444A",
"(	c #393C39",
"_	c #525052",
":	c #625D62",
"<	c #5A595A",
"[	c #E6E2E6",
"}	c #201C20",
"|	c #202420",
"1	c #393839",
"2	c #4A484A",
"3	c #626162",
"4	c #737173",
"5	c #7B7D7B",
"6	c #D5D2D5",
"7	c #DEDEDE",
"8	c #292429",
"9	c #6A696A",
"0	c #8B858B",
"a	c #949594",
"b	c #949194",
"c	c #DED6DE",
"d	c #A4A1A4",
"e	c #9C9D9C",
"f	c #838183",
"g	c #100C10",
"h	c #413C41",
"i	c #7B797B",
"j	c #9C959C",
"k	c #D5D6D5",
"l	c #080408",
"m	c #080808",
"n	c #525552",
"o	c #CDCECD",
"p	c #000400",
"q	c #CDCACD",
"r	c #000000",
"s	c #101410",
"t	c #CDC6CD",
"u	c #C5C6C5",
"v	c #BDBABD",
"                      ",
"        .+@#$%        ",
"      &**.=#-$$;      ",
"    >,')',*!~$%$%%    ",
"   &,{]^/('#-$$;$;$   ",
"   &'/_::<]#$-$%[%;   ",
"  }|123454:6$$$[[[[7  ",
"  +8)_90ab4c$$%%[[[%  ",
" @=}'290defc-;%;%[[[! ",
" gg+&h<ibjik$$;$[[[%[ ",
" lm@.&]n99<o%[;[;7!7[ ",
" lpm@+|'1h>q[;[[[[![! ",
" rrrmm@s+s@t[7;[[[[7! ",
" lrrrlpmllrq[[[;7![[# ",
"  rrrrrrrrru[[[7[7[7  ",
"  rrrrrrrrrq[[[!7!![  ",
"   rrrrrrrru[7[7!#!   ",
"   rrrrrrrrq[!7!7!#   ",
"    rrrrrrru[7!#!c    ",
"      rrrrrt![7!      ",
"        rrrvco        ",
"                      "};
