/* XPM */
static char * text_xpm[] = {
"22 22 67 1",
" 	c None",
".	c #4A484A",
"+	c #313031",
"@	c #181418",
"#	c #101010",
"$	c #202020",
"%	c #393839",
"&	c #413C41",
"*	c #181C18",
"=	c #080C08",
"-	c #080808",
";	c #000000",
">	c #181818",
",	c #5A595A",
"'	c #312C31",
")	c #393439",
"!	c #393C39",
"~	c #5A555A",
"{	c #313431",
"]	c #414041",
"^	c #414441",
"/	c #4A444A",
"(	c #201C20",
"_	c #000400",
":	c #292429",
"<	c #525052",
"[	c #625D62",
"}	c #EEEAEE",
"|	c #C5C2C5",
"1	c #100C10",
"2	c #202420",
"3	c #626162",
"4	c #737173",
"5	c #7B7D7B",
"6	c #A4A1A4",
"7	c #E6DEE6",
"8	c #F6F2F6",
"9	c #080408",
"0	c #6A696A",
"a	c #8B858B",
"b	c #949594",
"c	c #EEE6EE",
"d	c #BDB6BD",
"e	c #A49DA4",
"f	c #B4B2B4",
"g	c #F6F6F6",
"h	c #838583",
"i	c #6A6D6A",
"j	c #292829",
"k	c #7B797B",
"l	c #D5D6D5",
"m	c #CDCACD",
"n	c #4A4C4A",
"o	c #C5C6C5",
"p	c #7B757B",
"q	c #FFFAFF",
"r	c #DEDADE",
"s	c #9C959C",
"t	c #FFFFFF",
"u	c #FFF6FF",
"v	c #101410",
"w	c #BDBABD",
"x	c #D5D2D5",
"y	c #292C29",
"z	c #CDC6CD",
"A	c #5A5D5A",
"B	c #949194",
"                      ",
"        .+@#$%        ",
"      &$$*@=-;;>      ",
"    ,'+)+'$>=-;;;!    ",
"   ~'{]^/!+(#__;;;%   ",
"   :+/<[[,}|>1_;;;;   ",
"  +2%.345678]=9;;;;>  ",
"  >:)<0abc6de#_;;;;;  ",
" !@(+.0afghig>_;;;;;+ ",
" :1>j&,klmknop;;;;;;* ",
" =-#*j]3qp,+[r_;;;;;- ",
" 1_-#>2stu88}tn;;;;;- ",
" *;;--vc~2$@vkw;;;;;* ",
" +;;;9,x99;;;#8y;;;;y ",
"  ;;;;zA;;;;;;sb;;;;  ",
"  >;;vb-;;;;;;2B;;;>  ",
"   ;;;;;;;;;;;;;;;;   ",
"   +;;;;;;;;;;;;;;y   ",
"    +;;;;;;;;;;;;j    ",
"      v;;;;;;;;@      ",
"        '>-9>j        ",
"                      "};
