/* XPM */
static char * triangle_xpm[] = {
"22 22 48 1",
" 	c None",
".	c #181818",
"+	c #181418",
"@	c #100C10",
"#	c #080808",
"$	c #000400",
"%	c #080408",
"&	c #292429",
"*	c #202020",
"=	c #181C18",
"-	c #080C08",
";	c #000000",
">	c #312C31",
",	c #313031",
"'	c #393439",
")	c #313431",
"!	c #414041",
"~	c #414441",
"{	c #4A444A",
"]	c #393C39",
"^	c #949594",
"/	c #101010",
"(	c #525052",
"_	c #625D62",
":	c #5A595A",
"<	c #626162",
"[	c #FFFFFF",
"}	c #202420",
"|	c #393839",
"1	c #4A484A",
"2	c #737173",
"3	c #7B7D7B",
"4	c #A49DA4",
"5	c #6A696A",
"6	c #8B858B",
"7	c #9C959C",
"8	c #524C52",
"9	c #201C20",
"0	c #A4A1A4",
"a	c #838183",
"b	c #7B797B",
"c	c #292829",
"d	c #413C41",
"e	c #C5BEC5",
"f	c #4A4C4A",
"g	c #525552",
"h	c #292C29",
"i	c #101410",
"                      ",
"        .+@#$%        ",
"      &**=+-#;;;      ",
"    &>,',>*.-#;;;;    ",
"   *>)!~{],^/$$;;;;   ",
"   &,{(__:<[.@$;;;;   ",
"  .}|1<2324[,-%;;;;;  ",
"  .&'(56^7[8[/$;;;;;  ",
" -+9,1560[a(b[$;;;;;; ",
" #@.cd:b[ebfc[;;;;;;; ",
" $#/=c!g[2:,+5[;;;;;; ",
" %$#/.},[dh.#.[;;;;;; ",
" ;;;##/[ci/%;;[;;;;;; ",
" ;;;;%$[%%;;;;c[;;;;; ",
"  ;;;;[c;;;;;;;c[;;;  ",
"  ;;;;[[[[[[[[[[[;;;  ",
"   ;;;),',),',),+;;   ",
"   ;;;;;;;;;;;;;;;;   ",
"    ;;;;;;;;;;;;;;    ",
"      ;;;;;;;;;;      ",
"        ;;;;;;        ",
"                      "};
