/* XPM */
static char * volume_xpm[] = {
"24 24 14 1",
" 	c None",
".	c #303061",
"+	c #CFCFFF",
"@	c #6E6E9E",
"#	c #C2C2F2",
"$	c #3D3D6E",
"%	c #616191",
"&	c #FFFFFF",
"*	c #F2F2F2",
"=	c #303030",
"-	c #3D3D3D",
";	c #9191C2",
">	c #9E9ECF",
",	c #0D0D0D",
"                        ",
"           .            ",
"          .+.      @    ",
"         .+#$      %&   ",
"        .+#+.&  %  @*   ",
"       .+#+#$*  @*  @*  ",
"      .+#+#+.&  %&  %&  ",
" =-=-=+#+#+#$*   %& @*  ",
" -#+#-#+#+#+.&   @* %&  ",
" =+#+=+#+#+#$*   %& @*  ",
" -;+;-;+;+;+.&   @* %&  ",
" =>;>=+;+;+;$*   %& @*  ",
" -;@;-;>;>;>.&   @* %&  ",
" =@%@=>%>;>;$*   %& @*  ",
" -=-=-%>%>%>.&   @* %&  ",
"   *&*,%>%>%$*   %& @*  ",
"       ,%>%>.&   @* %&  ",
"        ,%>%$*  @*  @*  ",
"         ,%>.&  %&  %&  ",
"          ,%$*  @* %&   ",
"           ,*   *  @*   ",
"                   %&   ",
"                   &    ",
"                        "};
