/* XPM */
static char * volume_off_xpm[] = {
"24 24 53 1",
" 	c None",
".	c #303061",
"+	c #EF1C1C",
"@	c #F11818",
"#	c #CFCFFF",
"$	c #DE2129",
"%	c #F41313",
"&	c #C2C2F2",
"*	c #3D3D6E",
"=	c #F31414",
"-	c #EF1A1A",
";	c #F31313",
">	c #FFFFFF",
",	c #ED1618",
"'	c #F2F2F2",
")	c #F21616",
"!	c #D52732",
"~	c #CB9FC6",
"{	c #F21515",
"]	c #616191",
"^	c #303030",
"/	c #3D3D3D",
"(	c #E73E4A",
"_	c #F32828",
":	c #F99C9C",
"<	c #6E6E9E",
"[	c #DB6A82",
"}	c #F44343",
"|	c #B14058",
"1	c #F21718",
"2	c #982740",
"3	c #EF2424",
"4	c #9191C2",
"5	c #DB323E",
"6	c #9E9ECF",
"7	c #9A85B1",
"8	c #F11717",
"9	c #F33B3B",
"0	c #D64251",
"a	c #EA1D1F",
"b	c #D44658",
"c	c #F2C6C6",
"d	c #E01313",
"e	c #CF1B25",
"f	c #F53939",
"g	c #230D0D",
"h	c #F38282",
"i	c #EF2929",
"j	c #0D0D0D",
"k	c #EC1D1D",
"l	c #F8AEAE",
"m	c #EF3D3D",
"n	c #F65959",
"                        ",
"           .            ",
"  +@      .#.      $++  ",
" %%%%    .#&*    %=-%%  ",
"  ;%%%= .#&#.>  ,=%%%%  ",
"   %%%%.#&#&*' %)%%%!'  ",
"    %%%%~#&#.>%{%%% ]>  ",
" ^/^/%%%%(#&*_=%%%: <'  ",
" /&#&/%%%%[#%}+%%|' ]>  ",
" ^#&#^#%%%%123%=)]> <'  ",
" /4#4/4#5%%;%%%% <' ]>  ",
" ^646^#4#%%+%%=  ]> <'  ",
" /4<4/4678%%%9   <' ]>  ",
" ^<]<^6]0%%%%+   ]> <'  ",
" /^/^/]+a%%b%%+  <' ]>  ",
"   '>cd%%%6]e%%++]> <'  ",
"     %%%%6]6.f%%+<' ]>  ",
"    %%%@g]6]*h%%%i  <'  ",
"  %%%%+  j]6.> %%%+ ]>  ",
" ;%%%%    j]*'  $%%kl   ",
" ;%%+      j'   '%%%m   ",
" %%               %%n   ",
"                   >    ",
"                        "};
