/* XPM */
static char * volume16_xpm[] = {
"16 16 16 1",
" 	c None",
".	c #000000",
"+	c #FFFFFF",
"@	c #C0C0C0",
"#	c #303061",
"$	c #3D3D6E",
"%	c #656596",
"&	c #6E6E9E",
"*	c #7979AA",
"=	c #9191C2",
"-	c #9E9ECF",
";	c #C2C2F2",
">	c #CFCFFF",
",	c #F2F2F2",
"'	c #3D3D3D",
")	c #303030",
"                ",
"       #        ",
"      #>#   #   ",
"     #>;$,$ $,  ",
"    #>;>#+#+=$, ",
" )')>;-=$,-*+#+ ",
" ';';-;-#+ %,$, ",
" )-)-=-=$, #+#+ ",
" '='=-=-#+ %,$, ",
" )')&=&=$,-*+#+ ",
"  ,+.&=&#+#+=$, ",
"     .&=$,$,$,  ",
"      .&#+, #+  ",
"       .+,  +   ",
"        ,       ",
"                "};
