/* XPM */
static char * white_icon_xpm[] = {
"22 22 229 2",
"  	c None",
". 	c #FFFFFF",
"+ 	c #FFFFFE",
"@ 	c #FFFFFD",
"# 	c #FFFFFB",
"$ 	c #FFFEF9",
"% 	c #FEFEF8",
"& 	c #FEFEF9",
"* 	c #FDFDF8",
"= 	c #FBFAF5",
"- 	c #FEFEFA",
"; 	c #FDFDF6",
"> 	c #FCFBF3",
", 	c #FEFCF4",
"' 	c #FCFBF1",
") 	c #FAF8EF",
"! 	c #FAF8EE",
"~ 	c #FBFAF1",
"{ 	c #FDFCF3",
"] 	c #FDFCF4",
"^ 	c #F9F8F1",
"/ 	c #FFFFFC",
"( 	c #FDFCF5",
"_ 	c #FBFBF2",
": 	c #F9F8EE",
"< 	c #FAF9EF",
"[ 	c #FBFAF0",
"} 	c #F9F8ED",
"| 	c #F7F6EA",
"1 	c #F7F5E9",
"2 	c #F9F6EB",
"3 	c #FBF9EF",
"4 	c #F4F3EA",
"5 	c #FFFEFB",
"6 	c #FEFDF7",
"7 	c #FEFDF6",
"8 	c #FDFDF7",
"9 	c #FBFAF2",
"0 	c #F8F8EE",
"a 	c #FBF9F0",
"b 	c #F9F7EC",
"c 	c #F6F4E8",
"d 	c #F6F5E9",
"e 	c #F8F6EA",
"f 	c #F8F7EB",
"g 	c #EBEAE0",
"h 	c #FFFEFC",
"i 	c #FDFDF5",
"j 	c #FAF9F1",
"k 	c #F8F7ED",
"l 	c #F9F7ED",
"m 	c #F4F3E6",
"n 	c #F5F3E6",
"o 	c #F6F4E7",
"p 	c #F4F3E8",
"q 	c #D4D2C9",
"r 	c #FCFBF4",
"s 	c #FCFBF6",
"t 	c #F8F7EE",
"u 	c #F5F4EA",
"v 	c #F5F4E8",
"w 	c #F4F2E5",
"x 	c #F3F2E4",
"y 	c #F4F2E6",
"z 	c #F5F3E7",
"A 	c #F5F3E8",
"B 	c #E6E4DA",
"C 	c #F7F7EE",
"D 	c #FCFCF6",
"E 	c #FCFCF7",
"F 	c #F8F6EE",
"G 	c #F5F4E9",
"H 	c #F2F1E6",
"I 	c #F2F1E4",
"J 	c #F3F1E3",
"K 	c #F2F1E3",
"L 	c #F3F2E5",
"M 	c #F0EFE4",
"N 	c #FDFCF7",
"O 	c #F6F5EB",
"P 	c #FAF9F2",
"Q 	c #FEFEFB",
"R 	c #F9F7EE",
"S 	c #EFEEE1",
"T 	c #F1EFE1",
"U 	c #F2F0E3",
"V 	c #F3F1E4",
"W 	c #F2F0E5",
"X 	c #B9B7B0",
"Y 	c #F6F6EC",
"Z 	c #FBFBF4",
"` 	c #FFFEFA",
" .	c #FAF9F0",
"..	c #F7F6EC",
"+.	c #F1EFE2",
"@.	c #EDEDDF",
"#.	c #EEEDE0",
"$.	c #F0EFE1",
"%.	c #F2F0E2",
"&.	c #F2EFE1",
"*.	c #F2EFE2",
"=.	c #F1EEE3",
"-.	c #C4C3BA",
";.	c #FCFAF0",
">.	c #F7F4E8",
",.	c #F7F4E9",
"'.	c #F9F9F0",
").	c #F8F7EC",
"!.	c #ECECDE",
"~.	c #EDEDDE",
"{.	c #F0EFE0",
"].	c #F3F0E2",
"^.	c #F2EEE1",
"/.	c #EEECE0",
"(.	c #C5C4BB",
"_.	c #F5F4E7",
":.	c #F7F6EB",
"<.	c #F7F5E8",
"[.	c #F4F3E7",
"}.	c #F2F2E6",
"|.	c #F1F1E5",
"1.	c #F2EFE3",
"2.	c #F1EEE1",
"3.	c #EFECDE",
"4.	c #EDEBDC",
"5.	c #EBEADB",
"6.	c #ECECDD",
"7.	c #F0EEE2",
"8.	c #EDEBDF",
"9.	c #B9B8B0",
"0.	c #F0EDE0",
"a.	c #F4F2E4",
"b.	c #F4F1E4",
"c.	c #F3F1E5",
"d.	c #F0EFE2",
"e.	c #EDECDF",
"f.	c #EFECDF",
"g.	c #F0EDDF",
"h.	c #EEECDE",
"i.	c #EAE9D9",
"j.	c #EAE9DB",
"k.	c #EDEBDD",
"l.	c #EFEDE0",
"m.	c #EBE9DD",
"n.	c #A19F98",
"o.	c #EAE8DA",
"p.	c #EDEADD",
"q.	c #EFEDDF",
"r.	c #F3F0E3",
"s.	c #F0EEE0",
"t.	c #E9E8DA",
"u.	c #ECEADC",
"v.	c #ECE9DB",
"w.	c #EDECDE",
"x.	c #EAE9DA",
"y.	c #EAE9DC",
"z.	c #E3E2D7",
"A.	c #E4E2D3",
"B.	c #E6E4D5",
"C.	c #E9E7D8",
"D.	c #E6E5D6",
"E.	c #E7E5D6",
"F.	c #EBE9D9",
"G.	c #EAE8D9",
"H.	c #ECEBDC",
"I.	c #EBE9DA",
"J.	c #E9E8D9",
"K.	c #E5E4D7",
"L.	c #C8C6BD",
"M.	c #DFDECD",
"N.	c #E0DFCE",
"O.	c #E2E1D1",
"P.	c #EAE7D9",
"Q.	c #ECEADB",
"R.	c #E4E3D3",
"S.	c #E5E3D4",
"T.	c #E8E7D7",
"U.	c #EAE8D8",
"V.	c #E8E7D9",
"W.	c #DBDACD",
"X.	c #909088",
"Y.	c #DAD8C8",
"Z.	c #DDDCCB",
"`.	c #E0DFCF",
" +	c #E4E2D2",
".+	c #E8E6D6",
"++	c #EBE8D9",
"@+	c #E6E4D4",
"#+	c #E3E2D1",
"$+	c #E5E4D3",
"%+	c #E8E7D8",
"&+	c #E2E2D4",
"*+	c #B6B6AB",
"=+	c #D5D4C3",
"-+	c #DBDAC8",
";+	c #DEDDCC",
">+	c #E1E0CF",
",+	c #EAE7D7",
"'+	c #E5E4D2",
")+	c #E7E5D7",
"!+	c #E8E6D8",
"~+	c #E7E6D7",
"{+	c #E0DFD1",
"]+	c #C0C0B4",
"^+	c #CDCCBB",
"/+	c #D7D6C5",
"(+	c #DBDAC9",
"_+	c #DFDDCC",
":+	c #E4E2D1",
"<+	c #E8E6D7",
"[+	c #E9E6D6",
"}+	c #E2E0D0",
"|+	c #DEDECE",
"1+	c #DFDECF",
"2+	c #DADACC",
"3+	c #B6B5AB",
"4+	c #B9B8A9",
"5+	c #CAC9B9",
"6+	c #D5D5C4",
"7+	c #E0DECE",
"8+	c #E3E1D2",
"9+	c #D6D6C6",
"0+	c #BDBDB0",
"a+	c #8E8D84",
"b+	c #A5A598",
"c+	c #B4B3A6",
"d+	c #BAB9AD",
"e+	c #B3B2A7",
"f+	c #9C9B92",
"              . . . . . +                   ",
"          . + + @ # $ % % & * =             ",
"        . @ - ; > , ' ) ! ~ { ] ^           ",
"      + / & ( _ : < [ } | 1 2 ! 3 4         ",
"    + 5 6 7 & 8 9 0 } a b 1 c d e f g       ",
"  / h % i & @ / 8 j k k l d m n o 1 p q     ",
"  % r > 6 @ . . @ s t u v v w x y z A B     ",
"- > k C D + . . + E F G H I J K L w L M     ",
"N s O u P Q . + - r R G K S T K U J V W X   ",
"7 a b G Y Z Q ` r  ...A +.@.#.$.%.&.*.=.-.  ",
"] ;.>.,.p O 0 '. .).A L +.@.!.~.{.].^./.(.  ",
"_.:.<.n n [.}.|.p v 1.2.2.3.4.5.6.T 7.8.9.  ",
"+.0.U a.b.c.d.e.e.7.2.f.g.h.5.i.j.k.l.m.n.  ",
"  o.p.q.r.*.s.5.t.j.u.u.v.u.w.5.i.x.y.z.    ",
"  A.B.C.u.g.q.4.C.D.E.C.F.G.H.k.I.J.K.L.    ",
"  M.N.O.B.P.4.Q.I.E.R.S.T.U.U.I.5.V.W.X.    ",
"    Y.Z.`. +.+++F.G.@+#+$+G.++C.%+&+*+      ",
"      =+-+;+>+@+++F.,+'+ +)+!+~+{+]+        ",
"        ^+/+(+_+:+<+[+.+}+|+1+2+3+          ",
"          4+5+6+(+7+S.S.8+9+0+a+            ",
"                b+c+d+e+f+                  ",
"                                            "};
